<svg id="Layer_1" data-name="Layer 1" xmlns="http://www.w3.org/2000/svg" viewBox="0 0 123.99 81.43"><defs><style>.cls-1{fill:#f7bcae;stroke:#fff;stroke-width:0.87px;}.cls-2{fill:#3d4752;}</style></defs><title>UML Sequence</title><path class="cls-1" d="M78,11.68h45.56V81H.43V.43H74.1Zm-77.56,0H78"/><path id="ac" class="cls-2" d="M8.39,4.61c0,1.49-1.33,1.71-2.9,1.64V8.54h-1V3h1.8C7.53,3,8.39,3.41,8.39,4.61Zm-1,0c0-.89-1-.77-1.91-.77V5.43c.9,0,1.91.09,1.91-.81"/><path id="M" class="cls-2" d="M10.31,4.68c1.08,0,1.67.54,1.67,1.58V8.54h-.87V8.06h0a1.3,1.3,0,0,1-1.16.57c-.79,0-1.4-.36-1.4-1.16,0-1.18,1.36-1.23,2.57-1.27.05-.55-.37-.77-.86-.78a1.49,1.49,0,0,0-1,.43l-.48-.57A2.29,2.29,0,0,1,10.31,4.68Zm-.2,3.24a.91.91,0,0,0,1-1.09c-.72,0-1.64,0-1.64.62,0,.35.3.46.66.47"/><path id="B" class="cls-2" d="M12.85,6.67a1.85,1.85,0,0,1,2-2,1.88,1.88,0,0,1,1.41.58l-.64.56a1,1,0,0,0-.77-.37,1.05,1.05,0,0,0-1,1.2c0,.69.36,1.2,1.06,1.2a1,1,0,0,0,.79-.34l.58.59a1.89,1.89,0,0,1-1.38.52,1.85,1.85,0,0,1-2-2"/><path id="ad" class="cls-2" d="M16.89,2.64h.94V6.37h0l1.42-1.58h1.2L18.85,6.49l1.72,2.05H19.34L17.85,6.62h0V8.54h-.94V2.64"/><path id="M-2" data-name="M" class="cls-2" d="M22.6,4.68c1.08,0,1.67.54,1.67,1.58V8.54h-.87V8.06h0a1.3,1.3,0,0,1-1.16.57c-.79,0-1.4-.36-1.4-1.16,0-1.18,1.36-1.23,2.57-1.27.05-.55-.37-.77-.86-.78a1.49,1.49,0,0,0-1,.43L21,5.28A2.29,2.29,0,0,1,22.6,4.68Zm-.2,3.24a.91.91,0,0,0,1-1.09c-.72,0-1.64,0-1.64.62,0,.35.3.46.66.47"/><path id="aa" class="cls-2" d="M27,4.68a1.47,1.47,0,0,1,1.3.67V4.79h.89V8.2c0,1.58-.94,2.39-2.59,2.17a2.81,2.81,0,0,1-1.38-.58l.54-.73A1.92,1.92,0,0,0,27,9.6C28,9.61,28.31,9,28.21,8A1.46,1.46,0,0,1,27,8.6a1.76,1.76,0,0,1-1.85-1.95A1.76,1.76,0,0,1,27,4.68Zm1.3,2a1.06,1.06,0,0,0-1.11-1.19,1,1,0,0,0-1.08,1.19,1.06,1.06,0,0,0,1.07,1.19,1.07,1.07,0,0,0,1.12-1.19"/><path id="K" class="cls-2" d="M32.92,6.29a.83.83,0,0,0-.88-.9,1,1,0,0,0-1,.9ZM32,4.68c1.29,0,1.87.9,1.8,2.28H31a1,1,0,0,0,1.07.92,1.09,1.09,0,0,0,1-.48l.62.5a1.87,1.87,0,0,1-1.61.75,1.82,1.82,0,0,1-2-2,1.84,1.84,0,0,1,2-2"/><path id="A" class="cls-2" d="M8,43.31h.85l2.38,5.52H10.08l-.51-1.26H7.17l-.5,1.26H5.57Zm1.25,3.42-.85-2.25-.87,2.25H9.22"/><path id="C" class="cls-2" d="M13,48.91c-.87,0-1.22-.48-1.22-1.33V45.84h-.66v-.75h.66V44h.92v1.08h.94v.75h-.94v1.74c0,.36.09.59.49.58a1,1,0,0,0,.4-.08l0,.73a1.9,1.9,0,0,1-.62.1"/><path id="C-2" data-name="C" class="cls-2" d="M15.57,48.91c-.87,0-1.22-.48-1.22-1.33V45.84H13.7v-.75h.66V44h.92v1.08h.94v.75h-.94v1.74c0,.36.09.59.49.58a1,1,0,0,0,.4-.08l0,.73a1.9,1.9,0,0,1-.62.1"/><path id="E" class="cls-2" d="M19.12,45.86a1,1,0,0,0-1.29,1v2h-.94V45.09h.9a4.09,4.09,0,0,0,0,.62A1.18,1.18,0,0,1,19.12,45v.86"/><path id="N" class="cls-2" d="M19.74,45.09h.94v3.74h-.94Zm.46-.71a.56.56,0,1,1,.61-.56.59.59,0,0,1-.61.56"/><path id="I" class="cls-2" d="M24,48.95a1.47,1.47,0,0,1-1.3-.67v.56h-.89v-5.9h.94v2.63h0A1.51,1.51,0,0,1,24,45a1.76,1.76,0,0,1,1.82,2A1.8,1.8,0,0,1,24,48.95Zm-.19-.78a1.22,1.22,0,0,0,0-2.42,1.21,1.21,0,0,0,0,2.42"/><path id="Z" class="cls-2" d="M28.38,48.17c.58,0,.87-.43.87-1V45.09h.94v3.74H29.3a3.79,3.79,0,0,0,0-.6,1.27,1.27,0,0,1-1.16.71,1.33,1.33,0,0,1-1.38-1.51V45.09h.94v2.07c0,.55.15,1,.7,1"/><path id="C-3" data-name="C" class="cls-2" d="M32.64,48.91c-.87,0-1.22-.48-1.22-1.33V45.84h-.66v-.75h.66V44h.92v1.08h.94v.75h-.94v1.74c0,.36.09.59.49.58a1,1,0,0,0,.4-.08l0,.73a1.9,1.9,0,0,1-.62.1"/><path id="K-2" data-name="K" class="cls-2" d="M36.6,46.59a.83.83,0,0,0-.88-.9,1,1,0,0,0-1,.9ZM35.72,45c1.29,0,1.87.9,1.8,2.28H34.68a1,1,0,0,0,1.07.92,1.09,1.09,0,0,0,1-.48l.62.5a1.87,1.87,0,0,1-1.61.75,1.82,1.82,0,0,1-2-2,1.84,1.84,0,0,1,2-2"/><path id="F" class="cls-2" d="M38.3,46.62c-.48-1.28,1-2,2.18-1.5a1.32,1.32,0,0,1,.62.43l-.61.54a1.06,1.06,0,0,0-.82-.41c-.28,0-.63.11-.6.41,0,.5.8.41,1.24.62a1.09,1.09,0,0,1,.78,1c.06,1.56-2.39,1.51-3.1.63l.62-.58a1.18,1.18,0,0,0,1,.47c.32,0,.6-.12.6-.44,0-.54-.8-.44-1.26-.66a1,1,0,0,1-.61-.5"/></svg>