<svg id="Layer_1" data-name="Layer 1" xmlns="http://www.w3.org/2000/svg" viewBox="0 0 61.53 69.76"><defs><style>.cls-1{fill:none;stroke:#3d4752;}.cls-1,.cls-2{stroke-width:0.87px;}.cls-2{fill:#f7bcae;stroke:#fff;}.cls-3{fill:#3d4752;}</style></defs><title>UML Sequence</title><path class="cls-1" d="M30.77,26.43v4.81m0,4.82v9.63m0,4.82v9.63m0,4.81v4.82"/><path class="cls-2" d="M.43.43H61.1v26H.43Z"/><path id="X" class="cls-3" d="M22.59,16a.6.6,0,0,1-.62-.59.62.62,0,0,1,.62-.61.63.63,0,0,1,.62.59A.62.62,0,0,1,22.59,16Zm0-2.64a.6.6,0,0,1-.62-.59.62.62,0,0,1,.62-.61.63.63,0,0,1,.62.59.62.62,0,0,1-.62.61"/><path id="w" class="cls-3" d="M26.55,15.16a1.16,1.16,0,0,0,1.24-1.33V10.38h1v3.49A2,2,0,0,1,26.55,16a2,2,0,0,1-2.22-2.17V10.38h1v3.46c0,.81.41,1.33,1.24,1.33"/><path id="F" class="cls-3" d="M29.75,13.69c-.48-1.28,1-2,2.18-1.5a1.32,1.32,0,0,1,.62.43l-.61.54a1.06,1.06,0,0,0-.82-.41c-.28,0-.63.11-.6.41,0,.5.8.41,1.24.62a1.09,1.09,0,0,1,.78,1c.06,1.56-2.39,1.51-3.1.63l.62-.58a1.18,1.18,0,0,0,1,.47c.32,0,.6-.12.6-.44,0-.54-.8-.44-1.26-.66a1,1,0,0,1-.61-.5"/><path id="K" class="cls-3" d="M36,13.66a.83.83,0,0,0-.88-.9,1,1,0,0,0-1,.9Zm-.87-1.61c1.29,0,1.87.9,1.8,2.28H34.07a1,1,0,0,0,1.07.92,1.09,1.09,0,0,0,1-.48l.62.5a1.87,1.87,0,0,1-1.61.75,1.82,1.82,0,0,1-2-2,1.84,1.84,0,0,1,2-2"/><path id="E" class="cls-3" d="M40.06,12.93a1,1,0,0,0-1.29,1v2h-.94V12.16h.9a4.09,4.09,0,0,0,0,.62,1.18,1.18,0,0,1,1.32-.71v.86"/></svg>