<svg xmlns="http://www.w3.org/2000/svg" xmlns:xlink="http://www.w3.org/1999/xlink" xmlns:lucid="lucid" width="1814.43" height="1402.06"><g transform="translate(0 0)" lucid:page-tab-id="PaLdq~84CkD7"><path d="M0 0h1814.43v1402.06H0z" fill="#fff"/><path d="M618.56 369a8 8 0 0 1 8-8h215.96a8 8 0 0 1 8 8v4.93a17.07 17.07 0 0 1-5 12.07 17.07 17.07 0 0 1-12.08 5H626.56a8 8 0 0 1-8-8z" fill="#f2f3f5"/><path d="M850.52 361v20l-10 10H618.56" stroke="#4c535d" fill="none"/><path d="M618.56 369a8 8 0 0 1 8-8h924.74a8 8 0 0 1 8 8v220.94a8 8 0 0 1-8 8H626.56a8 8 0 0 1-8-8z" stroke="#4c535d" fill="none"/><use xlink:href="#a" transform="matrix(1,0,0,1,626.5567010309279,361) translate(0 18.6)"/><path d="M556.7 647.18a8 8 0 0 1 8-8h154.1a8 8 0 0 1 8 8v4.92a17.07 17.07 0 0 1-5 12.08 17.07 17.07 0 0 1-12.07 5H564.7a8 8 0 0 1-8-8z" fill="#f2f3f5"/><path d="M726.8 639.18v20l-10 10H556.7" stroke="#4c535d" fill="none"/><path d="M556.7 647.18a8 8 0 0 1 8-8h986.6a8 8 0 0 1 8 8v499.46a8 8 0 0 1-8 8H564.7a8 8 0 0 1-8-8z" stroke="#4c535d" fill="none"/><use xlink:href="#b" transform="matrix(1,0,0,1,564.7010309278351,639.1752577275038) translate(0 18.6)"/><use xlink:href="#c" transform="matrix(1,0,0,1,564.7010309278351,639.1752577275038) translate(79.9 18.6)"/><use xlink:href="#d" transform="matrix(1,0,0,1,564.7010309278351,639.1752577275038) translate(123.9 18.6)"/><path d="M278.46 301.95v9.9m0 9.9v19.8m0 9.92v19.8m0 9.9v19.8m0 9.9v19.82m0 9.9v19.8m0 9.9v19.8m0 9.9v19.82m0 9.9v19.8m0 9.9v19.8m0 9.92v19.8m0 9.9v19.8m0 9.9v19.82m0 9.9v19.8m0 9.9v19.82m0 9.9v19.8m0 9.9v19.82m0 9.9v19.8m0 9.9v19.8m0 9.92v19.8m0 9.9v19.8m0 9.9v19.82m0 9.9v19.8m0 9.9v19.82m0 9.9v19.8m0 9.9v19.82m0 9.9v19.8m0 9.9v19.8m0 9.92v19.8m0 9.9v19.8m0 9.9v19.82m0 9.9v19.8m0 9.9v19.82m0 9.9v9.9M278.46 301.98v-1.03M278.46 1282.32v1.02" stroke="#999" stroke-width="2" fill="none"/><path d="M258.46 366a5 5 0 0 1 5-5h30a5 5 0 0 1 5 5v268.18a5 5 0 0 1-5 5h-30a5 5 0 0 1-5-5z" stroke="#666" stroke-width="2" fill="#f2f2f2"/><path d="M698.46 302.95v9.97m0 9.97v19.94m0 9.97v19.95m0 9.97v19.94m0 9.97v19.94m0 9.98v19.94m0 9.96v19.94m0 9.97v19.94m0 10v19.93m0 9.97v19.94m0 9.97v19.95m0 9.98v19.94m0 9.97v19.94m0 9.97v19.94m0 9.96v19.95m0 9.98v19.94m0 9.97v19.93m0 9.97v19.95m0 9.97v19.94m0 9.97v19.94m0 9.97v19.95m0 9.96v19.94m0 9.97V971m0 9.98v19.95m0 9.97v19.94m0 9.97v19.95m0 9.97v19.95m0 9.97v19.94m0 9.97v19.94m0 9.96v19.95m0 9.98v19.94m0 9.97v19.93m0 9.97v19.94m0 9.98v19.94m0 9.97v9.97" stroke="#999" stroke-width="2" fill="none"/><path d="M699.46 302.98h-2v-1.03h2z" stroke="#999" stroke-width=".05" fill="#999"/><path d="M698.46 1319.97v1.03" stroke="#999" stroke-width="2" fill="none"/><path d="M678.46 426a5 5 0 0 1 5-5h30a5 5 0 0 1 5 5v187.56a5 5 0 0 1-5 5h-30a5 5 0 0 1-5-5z" stroke="#666" stroke-width="2" fill="#f2f2f2"/><path d="M300.4 431h358.56" stroke="#999" stroke-width="2" fill="none"/><path d="M300.44 432h-1.03v-2h1.04z" stroke="#999" stroke-width=".05" fill="#999"/><path d="M674.22 431l-14.26 4.64v-9.27z" stroke="#999" stroke-width="2" fill="#999"/><use xlink:href="#e" transform="matrix(1,0,0,1,395.50963348401444,405.39978198179875) translate(0 14.4)"/><use xlink:href="#f" transform="matrix(1,0,0,1,395.50963348401444,405.39978198179875) translate(64 14.4)"/><use xlink:href="#g" transform="matrix(1,0,0,1,395.50963348401444,405.39978198179875) translate(122.95 14.4)"/><use xlink:href="#h" transform="matrix(1,0,0,1,395.50963348401444,405.39978198179875) translate(147.95 14.4)"/><path d="M1078.97 462H720.4v-2h358.57z" stroke="#999" stroke-width=".05" fill="#999"/><path d="M720.43 462h-1.02v-2h1.03z" fill="#999"/><path d="M720.46 462.02h-1.08v-2.05h1.08zm-1.03-2v1.95h.98v-1.95z" stroke="#999" stroke-width=".05" fill="#999"/><path d="M1094.24 461l-14.27 4.63v-9.27z" fill="#999"/><path d="M1097.47 461l-18.5 6v-12.02zm-16.5 3.25L1091 461l-10.03-3.27z" stroke="#999" stroke-width=".05" fill="#999"/><use xlink:href="#i" transform="matrix(1,0,0,1,883.5403553823348,435.39091300190756) translate(0 14.4)"/><use xlink:href="#j" transform="matrix(1,0,0,1,908.4407572525294,450.1952635821771) translate(0 14.4)"/><path d="M1118.46 302.95v9.97m0 9.97v19.94m0 9.97v19.95m0 9.97v19.94m0 9.97v19.94m0 9.98v19.94m0 9.96v19.94m0 9.97v19.94m0 10v19.93m0 9.97v19.94m0 9.97v19.95m0 9.98v19.94m0 9.97v19.94m0 9.97v19.94m0 9.96v19.95m0 9.98v19.94m0 9.97v19.93m0 9.97v19.95m0 9.97v19.94m0 9.97v19.94m0 9.97v19.95m0 9.96v19.94m0 9.97V971m0 9.98v19.95m0 9.97v19.94m0 9.97v19.95m0 9.97v19.95m0 9.97v19.94m0 9.97v19.94m0 9.96v19.95m0 9.98v19.94m0 9.97v19.93m0 9.97v19.94m0 9.98v19.94m0 9.97v9.97" stroke="#999" stroke-width="2" fill="none"/><path d="M1119.46 302.98h-2v-1.03h2z" stroke="#999" stroke-width=".05" fill="#999"/><path d="M1118.46 1319.97v1.03" stroke="#999" stroke-width="2" fill="none"/><path d="M1098.46 706.03a5 5 0 0 1 5-5h30a5 5 0 0 1 5 5v381.75a5 5 0 0 1-5 5h-30a5 5 0 0 1-5-5z" stroke="#666" stroke-width="2" fill="#f2f2f2"/><path d="M595.98 188a8 8 0 0 1 8-8h188.96a8 8 0 0 1 8 8v106a8 8 0 0 1-8 8H603.98a8 8 0 0 1-8-8z" stroke="#000" stroke-opacity="0" fill="#ffcc78"/><use xlink:href="#k" transform="matrix(1,0,0,1,603.9758996115919,188) translate(35.29012345679012 56.55555555555555)"/><use xlink:href="#l" transform="matrix(1,0,0,1,603.9758996115919,188) translate(86.59876543209876 56.55555555555555)"/><use xlink:href="#m" transform="matrix(1,0,0,1,603.9758996115919,188) translate(124.08024691358025 56.55555555555555)"/><path d="M1015.98 188a8 8 0 0 1 8-8h188.96a8 8 0 0 1 8 8v106a8 8 0 0 1-8 8h-188.96a8 8 0 0 1-8-8z" stroke="#000" stroke-opacity="0" fill="#ffd99a"/><use xlink:href="#n" transform="matrix(1,0,0,1,1023.9758996115918,188) translate(19.537037037037024 56.55555555555555)"/><use xlink:href="#o" transform="matrix(1,0,0,1,1023.9758996115918,188) translate(75.73456790123456 56.55555555555555)"/><use xlink:href="#p" transform="matrix(1,0,0,1,1023.9758996115918,188) translate(117.21604938271605 56.55555555555555)"/><path d="M480.36 60.17a8 8 0 0 1 8-8h836.75a8 8 0 0 1 8 8v63.33a8 8 0 0 1-8 8H488.37a8 8 0 0 1-8-8z" stroke="#000" stroke-opacity="0" stroke-width="2" fill="#fff" fill-opacity="0"/><use xlink:href="#q" transform="matrix(1,0,0,1,484.36304763070416,56.16515463917526) translate(186.48201221840398 40.42312714776632)"/><use xlink:href="#r" transform="matrix(1,0,0,1,484.36304763070416,56.16515463917526) translate(319.2044253531883 40.42312714776632)"/><use xlink:href="#s" transform="matrix(1,0,0,1,484.36304763070416,56.16515463917526) translate(358.83787323405886 40.42312714776632)"/><use xlink:href="#t" transform="matrix(1,0,0,1,484.36304763070416,56.16515463917526) translate(500.6477243222604 40.42312714776632)"/><use xlink:href="#u" transform="matrix(1,0,0,1,484.36304763070416,56.16515463917526) translate(541.732107674685 40.42312714776632)"/><path d="M669.1 128.92h483.93M669.14 128.92h-1.03M1153 128.92h1.03" stroke="#b2b2b2" stroke-width="2" fill="none"/><path d="M480.36 120.4a8 8 0 0 1 8-8h837.7a8 8 0 0 1 8 8v2.86a8 8 0 0 1-8 8h-837.7a8 8 0 0 1-8-8z" stroke="#000" stroke-opacity="0" stroke-width="2" fill="#fff" fill-opacity="0"/><use xlink:href="#v" transform="matrix(1,0,0,1,484.3630476307046,116.41245733927416) translate(311.8427160493827 14.917037037037037)"/><use xlink:href="#w" transform="matrix(1,0,0,1,484.3630476307046,116.41245733927416) translate(356.83932098765433 14.917037037037037)"/><use xlink:href="#x" transform="matrix(1,0,0,1,484.3630476307046,116.41245733927416) translate(402.68572016460905 14.917037037037037)"/><use xlink:href="#y" transform="matrix(1,0,0,1,484.3630476307046,116.41245733927416) translate(415.13520576131685 14.917037037037037)"/><use xlink:href="#z" transform="matrix(1,0,0,1,484.3630476307046,116.41245733927416) translate(489.7896296296296 14.917037037037037)"/><use xlink:href="#A" transform="matrix(1,0,0,1,484.3630476307046,116.41245733927416) translate(506.78551440329215 14.917037037037037)"/><path d="M291 185.83c0 6.93-5.6 12.55-12.54 12.55-6.93 0-12.55-5.62-12.55-12.55 0-6.93 5.63-12.55 12.56-12.55 6.93 0 12.55 5.62 12.55 12.55z" stroke="#333" fill="#fff"/><path d="M278.46 198.38v30.93a29.4 29.4 0 0 0 4.05 14.9l21.06 35.8m-25.1-42.7l-25.1 42.7m0-69.07h50.2" stroke="#333" fill="none"/><path d="M253.36 181.28a8 8 0 0 1 8-8h34.2a8 8 0 0 1 8 8V294a8 8 0 0 1-8 8h-34.2a8 8 0 0 1-8-8z" fill="none"/><use xlink:href="#B" transform="matrix(1,0,0,1,173.3557382114787,280) translate(64.6 14.6)"/><path d="M1547.52 192v5.92c0 2.7-7.6 7.15-21.95 9.7-8.06 1.38-16.1 2.05-24.27 2.04-29.9 0-46.4-7.74-46.4-11.7V192c0 3.96 16.3 11.7 46.4 11.7 8.62.04 15.84-.54 24.37-2 14.26-2.64 21.85-7 21.85-9.7z" fill="#4f4f4f"/><path d="M1559.3 238.85v5.2c-.8 32.18-27.5 57.55-59.5 56.7-30.98-.88-55.7-25.63-56.5-56.7v-5.2h116z" fill-opacity="0"/><path d="M1547.14 193.1v6c-1.57 2.6-9 6.3-21.6 8.5-7.97 1.4-16.13 2.06-24.3 2.06-29.93 0-46.34-7.74-46.34-11.66v-6c0 3.93 16.32 11.67 46.35 11.67 8.62.1 15.95-.55 24.38-1.97 12.7-2.18 20.03-5.88 21.7-8.6m.1 87.73c.08-.22.18-.44.18-.77v9.92l-.1.44c-.08.1-.17.32-.26.54v.1l-.28.34-.37.54-.38.44-.65.43-.56.45-.64.55-.74.32-.93.55-.75.43-1.3.55-.74.32c-.73.33-1.47.55-2.3.88l-.84.2-1.85.56-1.2.34-1.76.43-1.4.33-1.94.44-1.57.2-2.14.45-1.77.2-2.4.23-1.77.2-2.87.23-1.87.22-3.24.1h-6.97c-16.87 0-29.57-2.06-38-4.8-6.12-2.17-10.57-4.56-11.04-6.3v-9.5c.46 1.75 4.35 3.93 9.82 6l-.1-.54c13.36 4.14 25.22 5.88 39.22 5.88h6.95l3.33-.1 1.76-.1 2.77-.34 1.77-.1 2.5-.34 1.57-.2 2.33-.34 10.57-2.62c.84-.32 1.67-.54 2.4-.87l2.05-.86.46-.33 1.3-.64.48-.33.92-.54.37-.34.75-.65.27-.2.55-.67v-.43l.37-.87z" fill="#4f4f4f"/><path d="M1501.3 181c8.16-.07 16.3.6 24.37 1.98 14.26 2.55 21.85 7 21.85 9.74 0 2.78-7.6 7.08-21.95 9.65-8.06 1.35-16.1 2.03-24.27 1.98-29.9 0-46.4-7.73-46.4-11.67 0-3.97 16.4-11.68 46.4-11.68z" fill="#7d7c7c"/><path d="M1524.97 211.8c-1.3.27-2.5.36-3.8.64-.65 0-1.3.18-2.04.27l-3.52.38c-.82 0-1.66.18-2.4.18-1.58.1-3.06.2-4.64.28h-.83c-1.85 0-3.7.1-5.65.18h-1.2c-18.37 0-36.9-3.22-45.9-9.28v80.27c.46 1.85 4.9 4.24 11.03 6.36 8.26 2.67 21.06 4.78 37.93 4.78 30.87.1 43.76-7.45 43.76-11.5V203.9c-4.83 3.3-12.62 6.17-22.73 7.9z" fill="#7d7c7c"/><use xlink:href="#C" transform="matrix(1,0,0,1,1443.298969072165,301) translate(21 14.4)"/><use xlink:href="#D" transform="matrix(1,0,0,1,1443.298969072165,301) translate(75 14.4)"/><use xlink:href="#E" transform="matrix(1,0,0,1,1443.298969072165,301) translate(33.5 36)"/><path d="M1098.46 417.37a5 5 0 0 1 5-5h30a5 5 0 0 1 5 5v154.95a5 5 0 0 1-5 5h-30a5 5 0 0 1-5-5z" stroke="#666" stroke-width="2" fill="#f2f2f2"/><path d="M1501.3 301.82v9.96m0 9.96v19.92m0 9.96v19.92m0 9.97v19.93m0 9.96v19.9m0 9.97v19.92m0 9.95v19.92m0 9.96v19.92m0 9.96v19.93m0 9.96v19.9m0 9.97v19.93m0 9.96v19.92m0 9.96v19.92m0 9.96v19.92m0 9.96v19.92m0 9.96V760m0 9.96v19.92m0 9.96v19.93m0 9.96v19.92m0 9.96v19.93m0 9.96v19.9m0 9.97v19.92m0 9.95v19.92m0 9.96v19.92m0 9.96v19.93m0 9.96v19.92m0 9.96v19.92m0 9.96v19.92m0 9.96v19.92m0 9.96v19.92m0 9.96v19.92m0 9.96v19.92m0 9.96V1268m0 9.95v19.92m0 9.96v19.92m0 9.96v9.97l.03.45.1.43.18.42.24.38.3.34.34.28.38.23.4.18.45.1.45.04" stroke="#999" stroke-width="2" fill="none"/><path d="M1502.3 300.88v.97h-2v-1.1z" stroke="#999" stroke-width=".05" fill="#999"/><path d="M1504.13 1350.52h1.02" stroke="#999" stroke-width="2" fill="none"/><path d="M1465.06 479.35H1140.4v-2h324.63z" stroke="#999" stroke-width=".05" fill="#999"/><path d="M1140.45 479.36h-1.03v-2h1.03z" fill="#999"/><path d="M1140.47 479.38h-1.07v-2.05h1.07zm-1.03-2v1.95h.98v-1.95z" stroke="#999" stroke-width=".05" fill="#999"/><path d="M1480.32 478.35l-14.26 4.64v-9.28z" fill="#999"/><path d="M1483.56 478.35l-18.5 6v-12zm-16.5 3.26l10.03-3.25-10.04-3.26z" stroke="#999" stroke-width=".05" fill="#999"/><use xlink:href="#F" transform="matrix(1,0,0,1,1169.2391705978935,452.7520967285679) translate(0 14.4)"/><use xlink:href="#G" transform="matrix(1,0,0,1,1169.2391705978935,452.7520967285679) translate(135.75 14.4)"/><use xlink:href="#H" transform="matrix(1,0,0,1,1169.2391705978935,452.7520967285679) translate(150.75 14.4)"/><use xlink:href="#j" transform="matrix(1,0,0,1,1311.4892190724809,467.55447386004005) translate(0 14.4)"/><path d="M1484.54 438a5 5 0 0 1 5-5h30a5 5 0 0 1 5 5v110a5 5 0 0 1-5 5h-30a5 5 0 0 1-5-5z" stroke="#666" stroke-width="2" fill="#f2f2f2"/><path d="M747.4 537.12h-9.47v-2h9.48zm28.43 0h-18.95v-2h18.95zm28.42 0H785.3v-2h18.95zm28.42 0h-18.95v-2h18.95zm28.42 0h-18.96v-2h18.95zm28.4 0h-18.94v-2h18.95zm29.42-.02h-10.44l-9.5.02v-2l9.5-.02h10.44zm177.58 0h-10.44v-2h10.44zm-20.9 0h-20.88v-2h20.9zm-31.33 0h-20.9v-2h20.9zm-31.33 0h-20.9v-2h20.9zm-31.34 0h-20.9v-2h20.9zm-31.34 0h-20.9v-2h20.9z" stroke="#999" stroke-width=".05" fill="#999"/><path d="M1097.5 537.1h-1.02v-2h1.02z" fill="#999"/><path d="M1097.53 537.12h-1.08v-2.05h1.08zm-1.03-2v1.95h.98v-1.95z" stroke="#999" stroke-width=".05" fill="#999"/><path d="M736.93 540.75l-14.26-4.63 14.26-4.64z" fill="#999"/><path d="M737.93 542.13l-18.5-6 18.5-6.02zm-12.03-6l10.03 3.25v-6.52z" stroke="#999" stroke-width=".05" fill="#999"/><use xlink:href="#I" transform="matrix(1,0,0,1,835.1175140195417,510.4966108509445) translate(0 14.4)"/><use xlink:href="#j" transform="matrix(1,0,0,1,908.467914882385,525.3072648483078) translate(0 14.4)"/><path d="M327.4 557.7h-9.46v-2h9.47zm28.43 0H336.9v-2h18.93zm28.42 0H365.3v-2h18.95zm28.42 0h-18.95v-2h18.95zm28.4 0h-18.93v-2h18.94zm28.43 0h-18.94v-2h18.94zm29.44-.06H488.5l-9.52.06v-2l9.52-.06h10.44zm177.56 0h-10.44v-2h10.44zm-20.9 0h-20.88v-2h20.9zm-31.32 0h-20.9v-2h20.9zm-31.34 0h-20.9v-2h20.9zm-31.33 0h-20.88v-2h20.9zm-31.32 0h-20.9v-2h20.9z" stroke="#999" stroke-width=".05" fill="#999"/><path d="M677.5 557.64h-1.03v-2h1.03z" fill="#999"/><path d="M677.53 557.67h-1.08v-2.05h1.07zm-1.03-2v1.95h.98v-1.95z" stroke="#999" stroke-width=".05" fill="#999"/><path d="M316.94 561.34l-14.26-4.64 14.26-4.63z" fill="#999"/><path d="M317.94 562.7l-18.5-6 18.5-6zm-12.03-6l10.04 3.26v-6.52z" stroke="#999" stroke-width=".05" fill="#999"/><use xlink:href="#J" transform="matrix(1,0,0,1,329.1690715397531,531.0442191137976) translate(0 14.4)"/><use xlink:href="#K" transform="matrix(1,0,0,1,329.1690715397531,531.0442191137976) translate(63.900000000000006 14.4)"/><use xlink:href="#L" transform="matrix(1,0,0,1,329.1690715397531,531.0442191137976) translate(177.70000000000002 14.4)"/><use xlink:href="#M" transform="matrix(1,0,0,1,329.1690715397531,531.0442191137976) translate(218.65000000000003 14.4)"/><use xlink:href="#N" transform="matrix(1,0,0,1,329.1690715397531,531.0442191137976) translate(233.65000000000003 14.4)"/><use xlink:href="#j" transform="matrix(1,0,0,1,488.46959162835606,545.8726154920334) translate(0 14.4)"/><path d="M258.46 676.9a5 5 0 0 1 5-5h30a5 5 0 0 1 5 5v431.5a5 5 0 0 1-5 5h-30a5 5 0 0 1-5-5z" stroke="#666" stroke-width="2" fill="#f2f2f2"/><path d="M300.4 721.68h188.52v-.02H659.97" stroke="#999" stroke-width="2" fill="none"/><path d="M300.43 722.68h-1.03v-2h1.03z" stroke="#999" stroke-width=".05" fill="#999"/><path d="M675.22 721.65l-14.26 4.64V717z" stroke="#999" stroke-width="2" fill="#999"/><use xlink:href="#O" transform="matrix(1,0,0,1,428.6289049485013,696.0500846783473) translate(0 14.4)"/><path d="M678.46 685.4a5 5 0 0 1 5-5h30a5 5 0 0 1 5 5v381.76a5 5 0 0 1-5 5h-30a5 5 0 0 1-5-5zM1481.3 706.03a5 5 0 0 1 5-5h30a5 5 0 0 1 5 5v423a5 5 0 0 1-5 5h-30a5 5 0 0 1-5-5z" stroke="#666" stroke-width="2" fill="#f2f2f2"/><path d="M676.47 786.34h-9.96v-2h9.97zm-19.92 0h-19.92v-2h19.92zm-29.88 0h-19.92v-2h19.92zm-29.88 0h-19.93v-2h19.92zm-29.9 0H547v-2h19.9zm-29.87 0H517.1v-2h19.93zm-29.88 0h-19.92v-2h19.92zm-29.88 0h-19.92v-2h19.92zm-29.88 0h-19.93v-2h19.92zm-29.9 0h-19.9v-2h19.9zm-29.87 0H367.7v-2h19.93zm-29.88 0h-19.92v-2h19.92zm-29.88 0h-9.96v-2h9.97z" stroke="#999" stroke-width=".05" fill="#999"/><path d="M677.47 786.34h-1.02v-2h1.02z" fill="#999"/><path d="M677.5 786.36h-1.08v-2.05h1.08zm-1.03-2v1.95h.98v-1.94z" stroke="#999" stroke-width=".05" fill="#999"/><path d="M316.9 789.97l-14.25-4.63 14.26-4.64z" fill="#999"/><path d="M317.9 791.35l-18.5-6 18.5-6.03zm-12.02-6l10.03 3.24v-6.52z" stroke="#999" stroke-width=".05" fill="#999"/><use xlink:href="#P" transform="matrix(1,0,0,1,380.56710603753663,759.735557342021) translate(0 14.4)"/><use xlink:href="#g" transform="matrix(1,0,0,1,380.56710603753663,759.735557342021) translate(86.85000000000001 14.4)"/><use xlink:href="#Q" transform="matrix(1,0,0,1,380.56710603753663,759.735557342021) translate(111.85000000000001 14.4)"/><use xlink:href="#R" transform="matrix(1,0,0,1,380.56710603753663,759.735557342021) translate(165.85000000000002 14.4)"/><use xlink:href="#S" transform="matrix(1,0,0,1,380.56710603753663,759.735557342021) translate(190.85000000000002 14.4)"/><use xlink:href="#j" transform="matrix(1,0,0,1,488.44210603753663,774.535557342021) translate(0 14.4)"/><path d="M1140.43 901.05h321.4" stroke="#999" stroke-width="2" fill="none"/><path d="M1140.45 902.05h-1.02v-2h1.02z" stroke="#999" stroke-width=".05" fill="#999"/><path d="M1477.1 901.05l-14.27 4.63v-9.27z" stroke="#999" stroke-width="2" fill="#999"/><use xlink:href="#T" transform="matrix(1,0,0,1,1214.7591606195547,875.4451024590868) translate(0 14.4)"/><path d="M1479.34 965h-9.74v-2h9.74zm-19.48 0h-19.48v-2h19.48zm-29.22 0h-19.48v-2h19.48zm-29.22 0h-19.48v-2h19.48zm-29.22 0h-19.47v-2h19.47zm-29.2 0h-19.5v-2h19.5zm-29.23 0h-19.48v-2h19.47zm-29.22 0h-19.48v-2h19.48zm-29.22 0h-19.48v-2h19.48zm-29.22 0h-19.46v-2h19.47zm-29.2 0h-19.48v-2h19.48zm-29.22 0h-9.74v-2h9.74z" stroke="#999" stroke-width=".05" fill="#999"/><path d="M1480.34 965h-1.03v-2h1.04z" fill="#999"/><path d="M1480.36 965.03h-1.07v-2.05h1.06zm-1.02-2v1.95h.97v-1.95z" stroke="#999" stroke-width=".05" fill="#999"/><path d="M1156.94 968.64l-14.27-4.64 14.27-4.63z" fill="#999"/><path d="M1157.94 970l-18.5-6 18.5-6zm-12.03-6l10.04 3.26v-6.52z" stroke="#999" stroke-width=".05" fill="#999"/><use xlink:href="#U" transform="matrix(1,0,0,1,1182.561818804968,938.4015947069951) translate(0 14.4)"/><use xlink:href="#j" transform="matrix(1,0,0,1,1309.886818804968,953.2015947069951) translate(0 14.4)"/><path d="M1482.6 537.1h-9.5v-2h9.5zm-19.02 0h-19v-2h19zm-28.5 0h-19.02v-2h19zm-28.52 0h-19v-2h19zm-28.5 0h-19.02v-2h19zm-28.53 0h-19v-2h19zm-28.5 0h-19.75v-2h19.74zm-30 0h-20.47v-2h20.48zm-30.7 0h-20.48v-2h20.48zm-30.72 0h-20.46v-2h20.47zm-30.7 0h-20.48v-2h20.48zm-30.72 0h-10.23v-2h10.23z" stroke="#999" stroke-width=".05" fill="#999"/><path d="M1483.6 537.1h-1.03v-2h1.02z" fill="#999"/><path d="M1483.62 537.13h-1.08v-2.05h1.08zm-1.03-2v1.95h.97v-1.95z" stroke="#999" stroke-width=".05" fill="#999"/><path d="M1156.95 540.74l-14.27-4.64 14.27-4.63z" fill="#999"/><path d="M1157.95 542.12l-18.5-6.02 18.5-6zm-12.03-6.02l10.03 3.26v-6.52z" stroke="#999" stroke-width=".05" fill="#999"/><g><use xlink:href="#J" transform="matrix(1,0,0,1,1233.0917156225607,510.5038426378508) translate(0 14.4)"/><use xlink:href="#V" transform="matrix(1,0,0,1,1233.0917156225607,510.5038426378508) translate(63.900000000000006 14.4)"/></g><g><use xlink:href="#j" transform="matrix(1,0,0,1,1311.5167156225607,525.303842637851) translate(0 14.4)"/></g><path d="M300.42 859.6h358.56" stroke="#999" stroke-width="2" fill="none"/><path d="M300.45 860.6h-1.03v-2h1.03z" stroke="#999" stroke-width=".05" fill="#999"/><path d="M674.25 859.6l-14.27 4.64v-9.27z" stroke="#999" stroke-width="2" fill="#999"/><g><use xlink:href="#W" transform="matrix(1,0,0,1,406.07838519393215,834.0026048326963) translate(0 14.4)"/></g><path d="M720.43 891.2H1079" stroke="#999" stroke-width="2" fill="none"/><path d="M720.45 892.2h-1.02v-2h1.02z" stroke="#999" stroke-width=".05" fill="#999"/><path d="M1094.25 891.2l-14.26 4.64v-9.27z" stroke="#999" stroke-width="2" fill="#999"/><g><use xlink:href="#X" transform="matrix(1,0,0,1,843.0216687164766,865.6057869600816) translate(0 14.4)"/></g><path d="M1096.5 1013.88h-10.44v-2h10.45zm-20.9 0h-20.88v-2h20.9zm-31.32 0h-20.9v-2h20.9zm-31.34 0h-20.9v-2h20.9zm-31.34 0h-20.9v-2h20.9zm-31.34 0h-20.9v-2h20.9zm-31.34 0H899v-2h19.92zm-29.4 0H870.6v-2h18.95zm-28.4 0h-18.96v-2h18.95zm-28.43 0h-18.96v-2h18.95zm-28.43 0h-18.95v-2h18.95zm-28.42 0H756.9v-2h18.95zm-28.43 0h-9.47v-2h9.47z" stroke="#999" stroke-width=".05" fill="#999"/><path d="M1097.5 1013.88h-1.02v-2h1.03z" fill="#999"/><path d="M1097.53 1013.9h-1.07v-2.05h1.07zm-1.02-2v1.95h.98v-1.95z" stroke="#999" stroke-width=".05" fill="#999"/><path d="M736.95 1017.5l-14.26-4.62 14.25-4.64z" fill="#999"/><path d="M737.95 1018.9l-18.5-6.02 18.5-6zm-12.03-6.02l10.03 3.26v-6.52z" stroke="#999" stroke-width=".05" fill="#999"/><g><use xlink:href="#Y" transform="matrix(1,0,0,1,805.6524391046885,987.2768229019462) translate(0 14.4)"/></g><g><use xlink:href="#j" transform="matrix(1,0,0,1,908.4774391046884,1002.0768229019461) translate(0 14.4)"/></g><path d="M676.52 1052.55h-9.96v-2h9.96zm-19.92 0h-19.92v-2h19.92zm-29.88 0H606.8v-2h19.92zm-29.9 0h-19.9v-2h19.9zm-29.87 0h-19.92v-2h19.92zm-29.88 0h-19.92v-2h19.92zm-29.88 0h-19.93v-2h19.92zm-29.9 0h-19.9v-2h19.9zm-29.87 0H427.5v-2h19.93zm-29.88 0h-19.92v-2h19.92zm-29.88 0h-19.92v-2h19.92zm-29.88 0h-19.93v-2h19.92zm-29.9 0h-9.95v-2h9.96z" stroke="#999" stroke-width=".05" fill="#999"/><path d="M677.52 1052.55h-1.03v-2h1.02z" fill="#999"/><path d="M677.54 1052.57h-1.07v-2.05h1.07zm-1.02-2v1.95h.97v-1.95z" stroke="#999" stroke-width=".05" fill="#999"/><path d="M316.95 1056.18l-14.26-4.63 14.25-4.64z" fill="#999"/><path d="M317.95 1057.56l-18.5-6 18.5-6.03zm-12.03-6l10.03 3.25v-6.5z" stroke="#999" stroke-width=".05" fill="#999"/><g><use xlink:href="#Z" transform="matrix(1,0,0,1,348.60753626516725,1025.9463917525782) translate(0 14.4)"/><use xlink:href="#aa" transform="matrix(1,0,0,1,348.60753626516725,1025.9463917525782) translate(43.95 14.4)"/><use xlink:href="#ab" transform="matrix(1,0,0,1,348.60753626516725,1025.9463917525782) translate(80.85000000000001 14.4)"/><use xlink:href="#ac" transform="matrix(1,0,0,1,348.60753626516725,1025.9463917525782) translate(174.8 14.4)"/><use xlink:href="#ad" transform="matrix(1,0,0,1,348.60753626516725,1025.9463917525782) translate(213.75 14.4)"/></g><g><use xlink:href="#j" transform="matrix(1,0,0,1,488.48253626516725,1040.7463917525781) translate(0 14.4)"/></g><defs><path d="M24 0v-261h32V0H24" id="ae"/><path d="M100-194c62-1 85 37 85 99 1 63-27 99-86 99S16-35 15-95c0-66 28-99 85-99zM99-20c44 1 53-31 53-75 0-43-8-75-51-75s-53 32-53 75 10 74 51 75" id="af"/><path d="M177-190C167-65 218 103 67 71c-23-6-38-20-44-43l32-5c15 47 100 32 89-28v-30C133-14 115 1 83 1 29 1 15-40 15-95c0-56 16-97 71-98 29-1 48 16 59 35 1-10 0-23 2-32h30zM94-22c36 0 50-32 50-73 0-42-14-75-50-75-39 0-46 34-46 75s6 73 46 73" id="ag"/><path d="M24-231v-30h32v30H24zM24 0v-190h32V0H24" id="ah"/><path d="M117-194c89-4 53 116 60 194h-32v-121c0-31-8-49-39-48C34-167 62-67 57 0H25l-1-190h30c1 10-1 24 2 32 11-22 29-35 61-36" id="ai"/><g id="a"><use transform="matrix(0.05,0,0,0.05,0,0)" xlink:href="#ae"/><use transform="matrix(0.05,0,0,0.05,3.95,0)" xlink:href="#af"/><use transform="matrix(0.05,0,0,0.05,13.949999999999998,0)" xlink:href="#ag"/><use transform="matrix(0.05,0,0,0.05,23.95,0)" xlink:href="#ah"/><use transform="matrix(0.05,0,0,0.05,27.899999999999995,0)" xlink:href="#ai"/></g><path d="M96-169c-40 0-48 33-48 73s9 75 48 75c24 0 41-14 43-38l32 2c-6 37-31 61-74 61-59 0-76-41-82-99-10-93 101-131 147-64 4 7 5 14 7 22l-32 3c-4-21-16-35-41-35" id="aj"/><path d="M141-36C126-15 110 5 73 4 37 3 15-17 15-53c-1-64 63-63 125-63 3-35-9-54-41-54-24 1-41 7-42 31l-33-3c5-37 33-52 76-52 45 0 72 20 72 64v82c-1 20 7 32 28 27v20c-31 9-61-2-59-35zM48-53c0 20 12 33 32 33 41-3 63-29 60-74-43 2-92-5-92 41" id="ak"/><path d="M85-194c31 0 48 13 60 33l-1-100h32l1 261h-30c-2-10 0-23-3-31C134-8 116 4 85 4 32 4 16-35 15-94c0-66 23-100 70-100zm9 24c-40 0-46 34-46 75 0 40 6 74 45 74 42 0 51-32 51-76 0-42-9-74-50-73" id="al"/><path d="M135-143c-3-34-86-38-87 0 15 53 115 12 119 90S17 21 10-45l28-5c4 36 97 45 98 0-10-56-113-15-118-90-4-57 82-63 122-42 12 7 21 19 24 35" id="am"/><path d="M59-47c-2 24 18 29 38 22v24C64 9 27 4 27-40v-127H5v-23h24l9-43h21v43h35v23H59v120" id="an"/><path d="M114-163C36-179 61-72 57 0H25l-1-190h30c1 12-1 29 2 39 6-27 23-49 58-41v29" id="ao"/><g id="b"><use transform="matrix(0.05,0,0,0.05,0,0)" xlink:href="#aj"/><use transform="matrix(0.05,0,0,0.05,9,0)" xlink:href="#ak"/><use transform="matrix(0.05,0,0,0.05,19,0)" xlink:href="#al"/><use transform="matrix(0.05,0,0,0.05,29,0)" xlink:href="#ak"/><use transform="matrix(0.05,0,0,0.05,39,0)" xlink:href="#am"/><use transform="matrix(0.05,0,0,0.05,48,0)" xlink:href="#an"/><use transform="matrix(0.05,0,0,0.05,53,0)" xlink:href="#ao"/><use transform="matrix(0.05,0,0,0.05,58.95,0)" xlink:href="#ak"/><use transform="matrix(0.05,0,0,0.05,68.95,0)" xlink:href="#ao"/></g><path d="M108 0H70L1-190h34L89-25l56-165h34" id="ap"/><g id="c"><use transform="matrix(0.05,0,0,0.05,0,0)" xlink:href="#ai"/><use transform="matrix(0.05,0,0,0.05,10,0)" xlink:href="#af"/><use transform="matrix(0.05,0,0,0.05,20,0)" xlink:href="#ap"/><use transform="matrix(0.05,0,0,0.05,29,0)" xlink:href="#ak"/></g><path d="M101-234c-31-9-42 10-38 44h38v23H63V0H32v-167H5v-23h27c-7-52 17-82 69-68v24" id="aq"/><g id="d"><use transform="matrix(0.05,0,0,0.05,0,0)" xlink:href="#ao"/><use transform="matrix(0.05,0,0,0.05,5.95,0)" xlink:href="#ah"/><use transform="matrix(0.05,0,0,0.05,9.9,0)" xlink:href="#aq"/><use transform="matrix(0.05,0,0,0.05,14.9,0)" xlink:href="#ak"/></g><path fill="#333" d="M205 0l-28-72H64L36 0H1l101-248h38L239 0h-34zm-38-99l-47-123c-12 45-31 82-46 123h93" id="ar"/><path fill="#333" d="M96-169c-40 0-48 33-48 73s9 75 48 75c24 0 41-14 43-38l32 2c-6 37-31 61-74 61-59 0-76-41-82-99-10-93 101-131 147-64 4 7 5 14 7 22l-32 3c-4-21-16-35-41-35" id="as"/><path fill="#333" d="M100-194c63 0 86 42 84 106H49c0 40 14 67 53 68 26 1 43-12 49-29l28 8c-11 28-37 45-77 45C44 4 14-33 15-96c1-61 26-98 85-98zm52 81c6-60-76-77-97-28-3 7-6 17-6 28h103" id="at"/><path fill="#333" d="M135-143c-3-34-86-38-87 0 15 53 115 12 119 90S17 21 10-45l28-5c4 36 97 45 98 0-10-56-113-15-118-90-4-57 82-63 122-42 12 7 21 19 24 35" id="au"/><path fill="#333" d="M141-36C126-15 110 5 73 4 37 3 15-17 15-53c-1-64 63-63 125-63 3-35-9-54-41-54-24 1-41 7-42 31l-33-3c5-37 33-52 76-52 45 0 72 20 72 64v82c-1 20 7 32 28 27v20c-31 9-61-2-59-35zM48-53c0 20 12 33 32 33 41-3 63-29 60-74-43 2-92-5-92 41" id="av"/><g id="e"><use transform="matrix(0.05,0,0,0.05,0,0)" xlink:href="#ar"/><use transform="matrix(0.05,0,0,0.05,12,0)" xlink:href="#as"/><use transform="matrix(0.05,0,0,0.05,21,0)" xlink:href="#at"/><use transform="matrix(0.05,0,0,0.05,31,0)" xlink:href="#au"/><use transform="matrix(0.05,0,0,0.05,40,0)" xlink:href="#au"/><use transform="matrix(0.05,0,0,0.05,49,0)" xlink:href="#av"/></g><path fill="#333" d="M115-194c55 1 70 41 70 98S169 2 115 4C84 4 66-9 55-30l1 105H24l-1-265h31l2 30c10-21 28-34 59-34zm-8 174c40 0 45-34 45-75s-6-73-45-74c-42 0-51 32-51 76 0 43 10 73 51 73" id="aw"/><path fill="#333" d="M141-36C126-15 110 5 73 4 37 3 15-17 15-53c-1-64 63-63 125-63 3-35-9-54-41-54-24 1-41 7-42 31l-33-3c5-37 33-52 76-52 45 0 72 20 72 64v82c-1 20 7 32 28 27v20c-31 9-61-2-59-35zM48-53c0 20 12 33 32 33 41-3 63-29 60-74-43 2-92-5-92 41zm25-158c8-23 27-35 38-54h36v5l-58 49H73" id="ax"/><path fill="#333" d="M177-190C167-65 218 103 67 71c-23-6-38-20-44-43l32-5c15 47 100 32 89-28v-30C133-14 115 1 83 1 29 1 15-40 15-95c0-56 16-97 71-98 29-1 48 16 59 35 1-10 0-23 2-32h30zM94-22c36 0 50-32 50-73 0-42-14-75-50-75-39 0-46 34-46 75s6 73 46 73" id="ay"/><path fill="#333" d="M24-231v-30h32v30H24zM24 0v-190h32V0H24" id="az"/><path fill="#333" d="M117-194c89-4 53 116 60 194h-32v-121c0-31-8-49-39-48C34-167 62-67 57 0H25l-1-190h30c1 10-1 24 2 32 11-22 29-35 61-36" id="aA"/><g id="f"><use transform="matrix(0.05,0,0,0.05,0,0)" xlink:href="#aw"/><use transform="matrix(0.05,0,0,0.05,10,0)" xlink:href="#ax"/><use transform="matrix(0.05,0,0,0.05,20,0)" xlink:href="#ay"/><use transform="matrix(0.05,0,0,0.05,30,0)" xlink:href="#az"/><use transform="matrix(0.05,0,0,0.05,33.95,0)" xlink:href="#aA"/><use transform="matrix(0.05,0,0,0.05,43.95,0)" xlink:href="#av"/></g><path fill="#333" d="M85-194c31 0 48 13 60 33l-1-100h32l1 261h-30c-2-10 0-23-3-31C134-8 116 4 85 4 32 4 16-35 15-94c0-66 23-100 70-100zm9 24c-40 0-46 34-46 75 0 40 6 74 45 74 42 0 51-32 51-76 0-42-9-74-50-73" id="aB"/><g id="g"><use transform="matrix(0.05,0,0,0.05,0,0)" xlink:href="#aB"/><use transform="matrix(0.05,0,0,0.05,10,0)" xlink:href="#at"/></g><path fill="#333" d="M24 0v-261h32V0H24" id="aC"/><path fill="#333" d="M100-194c62-1 85 37 85 99 1 63-27 99-86 99S16-35 15-95c0-66 28-99 85-99zM99-20c44 1 53-31 53-75 0-43-8-75-51-75s-53 32-53 75 10 74 51 75" id="aD"/><g id="h"><use transform="matrix(0.05,0,0,0.05,0,0)" xlink:href="#aC"/><use transform="matrix(0.05,0,0,0.05,3.95,0)" xlink:href="#aD"/><use transform="matrix(0.05,0,0,0.05,13.949999999999998,0)" xlink:href="#ay"/><use transform="matrix(0.05,0,0,0.05,23.95,0)" xlink:href="#az"/><use transform="matrix(0.05,0,0,0.05,27.899999999999995,0)" xlink:href="#aA"/></g><path fill="#333" d="M87 75C49 33 22-17 22-94c0-76 28-126 65-167h31c-38 41-64 92-64 168S80 34 118 75H87" id="aE"/><path fill="#333" d="M33-261c38 41 65 92 65 168S71 34 33 75H2C39 34 66-17 66-93S39-220 2-261h31" id="aF"/><g id="i"><use transform="matrix(0.05,0,0,0.05,0,0)" xlink:href="#aC"/><use transform="matrix(0.05,0,0,0.05,3.95,0)" xlink:href="#aD"/><use transform="matrix(0.05,0,0,0.05,13.949999999999998,0)" xlink:href="#ay"/><use transform="matrix(0.05,0,0,0.05,23.95,0)" xlink:href="#az"/><use transform="matrix(0.05,0,0,0.05,27.899999999999995,0)" xlink:href="#aA"/><use transform="matrix(0.05,0,0,0.05,37.9,0)" xlink:href="#aE"/><use transform="matrix(0.05,0,0,0.05,43.85,0)" xlink:href="#aF"/></g><path fill="#333" d="M233-177c-1 41-23 64-60 70L243 0h-38l-65-103H63V0H30v-248c88 3 205-21 203 71zM63-129c60-2 137 13 137-47 0-61-80-42-137-45v92" id="aG"/><path fill="#333" d="M59-47c-2 24 18 29 38 22v24C64 9 27 4 27-40v-127H5v-23h24l9-43h21v43h35v23H59v120" id="aH"/><g id="k"><use transform="matrix(0.04938271604938272,0,0,0.04938271604938272,0,0)" xlink:href="#aG"/><use transform="matrix(0.04938271604938272,0,0,0.04938271604938272,12.790123456790125,0)" xlink:href="#at"/><use transform="matrix(0.04938271604938272,0,0,0.04938271604938272,22.66666666666667,0)" xlink:href="#av"/><use transform="matrix(0.04938271604938272,0,0,0.04938271604938272,32.543209876543216,0)" xlink:href="#as"/><use transform="matrix(0.04938271604938272,0,0,0.04938271604938272,41.4320987654321,0)" xlink:href="#aH"/></g><path fill="#333" d="M206 0h-36l-40-164L89 0H53L-1-190h32L70-26l43-164h34l41 164 42-164h31" id="aI"/><path fill="#333" d="M115-194c53 0 69 39 70 98 0 66-23 100-70 100C84 3 66-7 56-30L54 0H23l1-261h32v101c10-23 28-34 59-34zm-8 174c40 0 45-34 45-75 0-40-5-75-45-74-42 0-51 32-51 76 0 43 10 73 51 73" id="aJ"/><g id="l"><use transform="matrix(0.04938271604938272,0,0,0.04938271604938272,0,0)" xlink:href="#aI"/><use transform="matrix(0.04938271604938272,0,0,0.04938271604938272,12.790123456790125,0)" xlink:href="#at"/><use transform="matrix(0.04938271604938272,0,0,0.04938271604938272,22.66666666666667,0)" xlink:href="#aJ"/></g><g id="m"><use transform="matrix(0.04938271604938272,0,0,0.04938271604938272,0,0)" xlink:href="#av"/><use transform="matrix(0.04938271604938272,0,0,0.04938271604938272,9.876543209876544,0)" xlink:href="#aw"/><use transform="matrix(0.04938271604938272,0,0,0.04938271604938272,19.75308641975309,0)" xlink:href="#aw"/></g><path fill="#333" d="M185-189c-5-48-123-54-124 2 14 75 158 14 163 119 3 78-121 87-175 55-17-10-28-26-33-46l33-7c5 56 141 63 141-1 0-78-155-14-162-118-5-82 145-84 179-34 5 7 8 16 11 25" id="aK"/><path fill="#333" d="M114-163C36-179 61-72 57 0H25l-1-190h30c1 12-1 29 2 39 6-27 23-49 58-41v29" id="aL"/><g id="n"><use transform="matrix(0.04938271604938272,0,0,0.04938271604938272,0,0)" xlink:href="#aK"/><use transform="matrix(0.04938271604938272,0,0,0.04938271604938272,11.851851851851853,0)" xlink:href="#aw"/><use transform="matrix(0.04938271604938272,0,0,0.04938271604938272,21.7283950617284,0)" xlink:href="#aL"/><use transform="matrix(0.04938271604938272,0,0,0.04938271604938272,27.604938271604947,0)" xlink:href="#az"/><use transform="matrix(0.04938271604938272,0,0,0.04938271604938272,31.506172839506174,0)" xlink:href="#aA"/><use transform="matrix(0.04938271604938272,0,0,0.04938271604938272,41.38271604938272,0)" xlink:href="#ay"/></g><path fill="#333" d="M160-131c35 5 61 23 61 61C221 17 115-2 30 0v-248c76 3 177-17 177 60 0 33-19 50-47 57zm-97-11c50-1 110 9 110-42 0-47-63-36-110-37v79zm0 115c55-2 124 14 124-45 0-56-70-42-124-44v89" id="aM"/><g id="o"><use transform="matrix(0.04938271604938272,0,0,0.04938271604938272,0,0)" xlink:href="#aM"/><use transform="matrix(0.04938271604938272,0,0,0.04938271604938272,11.851851851851853,0)" xlink:href="#aD"/><use transform="matrix(0.04938271604938272,0,0,0.04938271604938272,21.7283950617284,0)" xlink:href="#aD"/><use transform="matrix(0.04938271604938272,0,0,0.04938271604938272,31.60493827160494,0)" xlink:href="#aH"/></g><path fill="#333" d="M108 0H70L1-190h34L89-25l56-165h34" id="aN"/><g id="p"><use transform="matrix(0.04938271604938272,0,0,0.04938271604938272,0,0)" xlink:href="#aK"/><use transform="matrix(0.04938271604938272,0,0,0.04938271604938272,11.851851851851853,0)" xlink:href="#at"/><use transform="matrix(0.04938271604938272,0,0,0.04938271604938272,21.7283950617284,0)" xlink:href="#aL"/><use transform="matrix(0.04938271604938272,0,0,0.04938271604938272,27.604938271604947,0)" xlink:href="#aN"/><use transform="matrix(0.04938271604938272,0,0,0.04938271604938272,36.49382716049384,0)" xlink:href="#at"/><use transform="matrix(0.04938271604938272,0,0,0.04938271604938272,46.37037037037038,0)" xlink:href="#aL"/></g><path fill="#b2b2b2" d="M24-248c120-7 223 5 221 122C244-46 201 0 124 0H24v-248zM76-40c74 7 117-18 117-86 0-67-45-88-117-82v168" id="aO"/><path fill="#b2b2b2" d="M25-224v-37h50v37H25zM25 0v-190h50V0H25" id="aP"/><path fill="#b2b2b2" d="M133-34C117-15 103 5 69 4 32 3 11-16 11-54c-1-60 55-63 116-61 1-26-3-47-28-47-18 1-26 9-28 27l-52-2c7-38 36-58 82-57s74 22 75 68l1 82c-1 14 12 18 25 15v27c-30 8-71 5-69-32zm-48 3c29 0 43-24 42-57-32 0-66-3-65 30 0 17 8 27 23 27" id="aQ"/><path fill="#b2b2b2" d="M195-6C206 82 75 100 31 46c-4-6-6-13-8-21l49-6c3 16 16 24 34 25 40 0 42-37 40-79-11 22-30 35-61 35-53 0-70-43-70-97 0-56 18-96 73-97 30 0 46 14 59 34l2-30h47zm-90-29c32 0 41-27 41-63 0-35-9-62-40-62-32 0-39 29-40 63 0 36 9 62 39 62" id="aR"/><path fill="#b2b2b2" d="M135-150c-39-12-60 13-60 57V0H25l-1-190h47c2 13-1 29 3 40 6-28 27-53 61-41v41" id="aS"/><path fill="#b2b2b2" d="M220-157c-53 9-28 100-34 157h-49v-107c1-27-5-49-29-50C55-147 81-57 75 0H25l-1-190h47c2 12-1 28 3 38 10-53 101-56 108 0 13-22 24-43 59-42 82 1 51 116 57 194h-49v-107c-1-25-5-48-29-50" id="aT"/><g id="q"><use transform="matrix(0.07636502481863307,0,0,0.07636502481863307,0,0)" xlink:href="#aO"/><use transform="matrix(0.07636502481863307,0,0,0.07636502481863307,19.778541428025964,0)" xlink:href="#aP"/><use transform="matrix(0.07636502481863307,0,0,0.07636502481863307,27.41504390988927,0)" xlink:href="#aQ"/><use transform="matrix(0.07636502481863307,0,0,0.07636502481863307,42.688048873615884,0)" xlink:href="#aR"/><use transform="matrix(0.07636502481863307,0,0,0.07636502481863307,59.41198930889653,0)" xlink:href="#aS"/><use transform="matrix(0.07636502481863307,0,0,0.07636502481863307,70.10309278350515,0)" xlink:href="#aQ"/><use transform="matrix(0.07636502481863307,0,0,0.07636502481863307,85.37609774723177,0)" xlink:href="#aT"/><use transform="matrix(0.07636502481863307,0,0,0.07636502481863307,109.81290568919435,0)" xlink:href="#aQ"/></g><path fill="#b2b2b2" d="M88-194c31-1 46 15 58 34l-1-101h50l1 261h-48c-2-10 0-23-3-31C134-8 116 4 84 4 32 4 16-41 15-95c0-56 19-97 73-99zm17 164c33 0 40-30 41-66 1-37-9-64-41-64s-38 30-39 65c0 43 13 65 39 65" id="aU"/><path fill="#b2b2b2" d="M185-48c-13 30-37 53-82 52C43 2 14-33 14-96s30-98 90-98c62 0 83 45 84 108H66c0 31 8 55 39 56 18 0 30-7 34-22zm-45-69c5-46-57-63-70-21-2 6-4 13-4 21h74" id="aV"/><g id="r"><use transform="matrix(0.07636502481863307,0,0,0.07636502481863307,0,0)" xlink:href="#aU"/><use transform="matrix(0.07636502481863307,0,0,0.07636502481863307,16.723940435280642,0)" xlink:href="#aV"/></g><path fill="#b2b2b2" d="M137-138c1-29-70-34-71-4 15 46 118 7 119 86 1 83-164 76-172 9l43-7c4 19 20 25 44 25 33 8 57-30 24-41C81-84 22-81 20-136c-2-80 154-74 161-7" id="aW"/><path fill="#b2b2b2" d="M84 4C32 4 15-41 15-95c0-55 18-99 73-99 29 0 47 12 58 34l2-30h48l-1 265h-49V-32C136-9 114 4 84 4zm21-34c32 0 41-29 41-66 0-36-9-64-40-64-33 0-39 30-40 65 0 43 13 65 39 65" id="aX"/><path fill="#b2b2b2" d="M85 4C-2 5 27-109 22-190h50c7 57-23 150 33 157 60-5 35-97 40-157h50l1 190h-47c-2-12 1-28-3-38-12 25-28 42-61 42" id="aY"/><path fill="#b2b2b2" d="M185-48c-13 30-37 53-82 52C43 2 14-33 14-96s30-98 90-98c62 0 83 45 84 108H66c0 31 8 55 39 56 18 0 30-7 34-22zm-45-69c5-46-57-63-70-21-2 6-4 13-4 21h74zm29-96v5h-28c-13-11-23-24-37-34l-37 34H39c9-26 32-39 45-61h41" id="aZ"/><path fill="#b2b2b2" d="M135-194c87-1 58 113 63 194h-50c-7-57 23-157-34-157-59 0-34 97-39 157H25l-1-190h47c2 12-1 28 3 38 12-26 28-41 61-42" id="ba"/><path fill="#b2b2b2" d="M190-63c-7 42-38 67-86 67-59 0-84-38-90-98-12-110 154-137 174-36l-49 2c-2-19-15-32-35-32-30 0-35 28-38 64-6 74 65 87 74 30" id="bb"/><g id="s"><use transform="matrix(0.07636502481863307,0,0,0.07636502481863307,0,0)" xlink:href="#aW"/><use transform="matrix(0.07636502481863307,0,0,0.07636502481863307,15.273004963726613,0)" xlink:href="#aV"/><use transform="matrix(0.07636502481863307,0,0,0.07636502481863307,30.546009927453227,0)" xlink:href="#aX"/><use transform="matrix(0.07636502481863307,0,0,0.07636502481863307,47.269950362733866,0)" xlink:href="#aY"/><use transform="matrix(0.07636502481863307,0,0,0.07636502481863307,63.993890798014505,0)" xlink:href="#aZ"/><use transform="matrix(0.07636502481863307,0,0,0.07636502481863307,79.26689576174113,0)" xlink:href="#ba"/><use transform="matrix(0.07636502481863307,0,0,0.07636502481863307,95.99083619702176,0)" xlink:href="#bb"/><use transform="matrix(0.07636502481863307,0,0,0.07636502481863307,111.26384116074836,0)" xlink:href="#aP"/><use transform="matrix(0.07636502481863307,0,0,0.07636502481863307,118.90034364261167,0)" xlink:href="#aQ"/></g><path fill="#b2b2b2" d="M110-194c64 0 96 36 96 99 0 64-35 99-97 99-61 0-95-36-95-99 0-62 34-99 96-99zm-1 164c35 0 45-28 45-65 0-40-10-65-43-65-34 0-45 26-45 65 0 36 10 65 43 65" id="bc"/><g id="t"><use transform="matrix(0.07636502481863307,0,0,0.07636502481863307,0,0)" xlink:href="#aU"/><use transform="matrix(0.07636502481863307,0,0,0.07636502481863307,16.723940435280642,0)" xlink:href="#bc"/></g><path fill="#b2b2b2" d="M128 0H69L1-190h53L99-40l48-150h52" id="bd"/><g id="u"><use transform="matrix(0.07636502481863307,0,0,0.07636502481863307,0,0)" xlink:href="#bd"/><use transform="matrix(0.07636502481863307,0,0,0.07636502481863307,15.273004963726613,0)" xlink:href="#aV"/><use transform="matrix(0.07636502481863307,0,0,0.07636502481863307,30.546009927453227,0)" xlink:href="#ba"/><use transform="matrix(0.07636502481863307,0,0,0.07636502481863307,47.269950362733866,0)" xlink:href="#aU"/><use transform="matrix(0.07636502481863307,0,0,0.07636502481863307,63.993890798014505,0)" xlink:href="#aV"/><use transform="matrix(0.07636502481863307,0,0,0.07636502481863307,79.26689576174113,0)" xlink:href="#aU"/><use transform="matrix(0.07636502481863307,0,0,0.07636502481863307,95.99083619702176,0)" xlink:href="#bc"/><use transform="matrix(0.07636502481863307,0,0,0.07636502481863307,112.7147766323024,0)" xlink:href="#aS"/></g><path fill="#b2b2b2" d="M205 0l-28-72H64L36 0H1l101-248h38L239 0h-34zm-38-99l-47-123c-12 45-31 82-46 123h93" id="be"/><path fill="#b2b2b2" d="M117-194c89-4 53 116 60 194h-32v-121c0-31-8-49-39-48C34-167 62-67 57 0H25l-1-190h30c1 10-1 24 2 32 11-22 29-35 61-36" id="bf"/><path fill="#b2b2b2" d="M85-194c31 0 48 13 60 33l-1-100h32l1 261h-30c-2-10 0-23-3-31C134-8 116 4 85 4 32 4 16-35 15-94c0-66 23-100 70-100zm9 24c-40 0-46 34-46 75 0 40 6 74 45 74 42 0 51-32 51-76 0-42-9-74-50-73" id="bg"/><path fill="#b2b2b2" d="M114-163C36-179 61-72 57 0H25l-1-190h30c1 12-1 29 2 39 6-27 23-49 58-41v29" id="bh"/><path fill="#b2b2b2" d="M100-194c63 0 86 42 84 106H49c0 40 14 67 53 68 26 1 43-12 49-29l28 8c-11 28-37 45-77 45C44 4 14-33 15-96c1-61 26-98 85-98zm52 81c6-60-76-77-97-28-3 7-6 17-6 28h103zm-74-98c8-23 27-35 38-54h36v5l-58 49H78" id="bi"/><g id="v"><use transform="matrix(0.04248971193415638,0,0,0.04248971193415638,0,0)" xlink:href="#be"/><use transform="matrix(0.04248971193415638,0,0,0.04248971193415638,10.19753086419753,0)" xlink:href="#bf"/><use transform="matrix(0.04248971193415638,0,0,0.04248971193415638,18.695473251028805,0)" xlink:href="#bg"/><use transform="matrix(0.04248971193415638,0,0,0.04248971193415638,27.193415637860078,0)" xlink:href="#bh"/><use transform="matrix(0.04248971193415638,0,0,0.04248971193415638,32.249691358024684,0)" xlink:href="#bi"/></g><path fill="#b2b2b2" d="M24 0v-261h32V0H24" id="bj"/><path fill="#b2b2b2" d="M108 0H70L1-190h34L89-25l56-165h34" id="bk"/><path fill="#b2b2b2" d="M100-194c63 0 86 42 84 106H49c0 40 14 67 53 68 26 1 43-12 49-29l28 8c-11 28-37 45-77 45C44 4 14-33 15-96c1-61 26-98 85-98zm52 81c6-60-76-77-97-28-3 7-6 17-6 28h103" id="bl"/><path fill="#b2b2b2" d="M135-143c-3-34-86-38-87 0 15 53 115 12 119 90S17 21 10-45l28-5c4 36 97 45 98 0-10-56-113-15-118-90-4-57 82-63 122-42 12 7 21 19 24 35" id="bm"/><g id="w"><use transform="matrix(0.04248971193415638,0,0,0.04248971193415638,0,0)" xlink:href="#be"/><use transform="matrix(0.04248971193415638,0,0,0.04248971193415638,10.19753086419753,0)" xlink:href="#bj"/><use transform="matrix(0.04248971193415638,0,0,0.04248971193415638,13.554218106995881,0)" xlink:href="#bk"/><use transform="matrix(0.04248971193415638,0,0,0.04248971193415638,21.20236625514403,0)" xlink:href="#bl"/><use transform="matrix(0.04248971193415638,0,0,0.04248971193415638,29.7003086419753,0)" xlink:href="#bm"/></g><path fill="#b2b2b2" d="M32 76v-337h29V76H32" id="bn"/><use transform="matrix(0.04248971193415638,0,0,0.04248971193415638,0,0)" xlink:href="#bn" id="x"/><path fill="#b2b2b2" d="M30-248c118-7 216 8 213 122C240-48 200 0 122 0H30v-248zM63-27c89 8 146-16 146-99s-60-101-146-95v194" id="bo"/><path fill="#b2b2b2" d="M96-169c-40 0-48 33-48 73s9 75 48 75c24 0 41-14 43-38l32 2c-6 37-31 61-74 61-59 0-76-41-82-99-10-93 101-131 147-64 4 7 5 14 7 22l-32 3c-4-21-16-35-41-35" id="bp"/><path fill="#b2b2b2" d="M210-169c-67 3-38 105-44 169h-31v-121c0-29-5-50-35-48C34-165 62-65 56 0H25l-1-190h30c1 10-1 24 2 32 10-44 99-50 107 0 11-21 27-35 58-36 85-2 47 119 55 194h-31v-121c0-29-5-49-35-48" id="bq"/><path fill="#b2b2b2" d="M115-194c53 0 69 39 70 98 0 66-23 100-70 100C84 3 66-7 56-30L54 0H23l1-261h32v101c10-23 28-34 59-34zm-8 174c40 0 45-34 45-75 0-40-5-75-45-74-42 0-51 32-51 76 0 43 10 73 51 73" id="br"/><g id="y"><use transform="matrix(0.04248971193415638,0,0,0.04248971193415638,0,0)" xlink:href="#bo"/><use transform="matrix(0.04248971193415638,0,0,0.04248971193415638,11.004835390946502,0)" xlink:href="#bl"/><use transform="matrix(0.04248971193415638,0,0,0.04248971193415638,19.502777777777776,0)" xlink:href="#bp"/><use transform="matrix(0.04248971193415638,0,0,0.04248971193415638,27.150925925925925,0)" xlink:href="#bl"/><use transform="matrix(0.04248971193415638,0,0,0.04248971193415638,35.6488683127572,0)" xlink:href="#bq"/><use transform="matrix(0.04248971193415638,0,0,0.04248971193415638,48.35329218106995,0)" xlink:href="#br"/><use transform="matrix(0.04248971193415638,0,0,0.04248971193415638,56.851234567901244,0)" xlink:href="#bl"/><use transform="matrix(0.04248971193415638,0,0,0.04248971193415638,65.34917695473251,0)" xlink:href="#bh"/></g><path fill="#b2b2b2" d="M54-142c48-35 137-8 131 61C196 18 31 33 14-55l32-4c7 23 22 37 52 37 35-1 51-22 54-58 4-55-73-65-99-34H22l8-134h141v27H59" id="bs"/><path fill="#b2b2b2" d="M68-38c1 34 0 65-14 84H32c9-13 17-26 17-46H33v-38h35" id="bt"/><g id="z"><use transform="matrix(0.04248971193415638,0,0,0.04248971193415638,0,0)" xlink:href="#bs"/><use transform="matrix(0.04248971193415638,0,0,0.04248971193415638,8.497942386831275,0)" xlink:href="#bt"/></g><path fill="#b2b2b2" d="M101-251c82-7 93 87 43 132L82-64C71-53 59-42 53-27h129V0H18c2-99 128-94 128-182 0-28-16-43-45-43s-46 15-49 41l-32-3c6-41 34-60 81-64" id="bu"/><path fill="#b2b2b2" d="M101-251c68 0 85 55 85 127S166 4 100 4C33 4 14-52 14-124c0-73 17-127 87-127zm-1 229c47 0 54-49 54-102s-4-102-53-102c-51 0-55 48-55 102 0 53 5 102 54 102" id="bv"/><g id="A"><use transform="matrix(0.04248971193415638,0,0,0.04248971193415638,0,0)" xlink:href="#bu"/><use transform="matrix(0.04248971193415638,0,0,0.04248971193415638,8.497942386831275,0)" xlink:href="#bv"/><use transform="matrix(0.04248971193415638,0,0,0.04248971193415638,16.99588477366255,0)" xlink:href="#bu"/><use transform="matrix(0.04248971193415638,0,0,0.04248971193415638,25.493827160493822,0)" xlink:href="#bu"/></g><path fill="#333" d="M147 0H94L2-248h55l64 206c17-72 42-137 63-206h54" id="bw"/><path fill="#333" d="M185-48c-13 30-37 53-82 52C43 2 14-33 14-96s30-98 90-98c62 0 83 45 84 108H66c0 31 8 55 39 56 18 0 30-7 34-22zm-45-69c5-46-57-63-70-21-2 6-4 13-4 21h74" id="bx"/><path fill="#333" d="M135-194c87-1 58 113 63 194h-50c-7-57 23-157-34-157-59 0-34 97-39 157H25l-1-190h47c2 12-1 28 3 38 12-26 28-41 61-42" id="by"/><path fill="#333" d="M88-194c31-1 46 15 58 34l-1-101h50l1 261h-48c-2-10 0-23-3-31C134-8 116 4 84 4 32 4 16-41 15-95c0-56 19-97 73-99zm17 164c33 0 40-30 41-66 1-37-9-64-41-64s-38 30-39 65c0 43 13 65 39 65" id="bz"/><path fill="#333" d="M110-194c64 0 96 36 96 99 0 64-35 99-97 99-61 0-95-36-95-99 0-62 34-99 96-99zm-1 164c35 0 45-28 45-65 0-40-10-65-43-65-34 0-45 26-45 65 0 36 10 65 43 65" id="bA"/><path fill="#333" d="M135-150c-39-12-60 13-60 57V0H25l-1-190h47c2 13-1 29 3 40 6-28 27-53 61-41v41" id="bB"/><g id="B"><use transform="matrix(0.05,0,0,0.05,0,0)" xlink:href="#bw"/><use transform="matrix(0.05,0,0,0.05,11,0)" xlink:href="#bx"/><use transform="matrix(0.05,0,0,0.05,21,0)" xlink:href="#by"/><use transform="matrix(0.05,0,0,0.05,31.950000000000003,0)" xlink:href="#bz"/><use transform="matrix(0.05,0,0,0.05,42.900000000000006,0)" xlink:href="#bx"/><use transform="matrix(0.05,0,0,0.05,52.900000000000006,0)" xlink:href="#bz"/><use transform="matrix(0.05,0,0,0.05,63.85,0)" xlink:href="#bA"/><use transform="matrix(0.05,0,0,0.05,74.80000000000001,0)" xlink:href="#bB"/></g><g id="C"><use transform="matrix(0.05,0,0,0.05,0,0)" xlink:href="#aJ"/><use transform="matrix(0.05,0,0,0.05,10,0)" xlink:href="#av"/><use transform="matrix(0.05,0,0,0.05,20,0)" xlink:href="#aA"/><use transform="matrix(0.05,0,0,0.05,30,0)" xlink:href="#as"/><use transform="matrix(0.05,0,0,0.05,39,0)" xlink:href="#aD"/></g><g id="D"><use transform="matrix(0.05,0,0,0.05,0,0)" xlink:href="#aB"/><use transform="matrix(0.05,0,0,0.05,10,0)" xlink:href="#at"/></g><g id="E"><use transform="matrix(0.05,0,0,0.05,0,0)" xlink:href="#aB"/><use transform="matrix(0.05,0,0,0.05,10,0)" xlink:href="#av"/><use transform="matrix(0.05,0,0,0.05,20,0)" xlink:href="#aB"/><use transform="matrix(0.05,0,0,0.05,30,0)" xlink:href="#aD"/><use transform="matrix(0.05,0,0,0.05,40,0)" xlink:href="#au"/></g><g id="F"><use transform="matrix(0.05,0,0,0.05,0,0)" xlink:href="#aL"/><use transform="matrix(0.05,0,0,0.05,5.95,0)" xlink:href="#at"/><use transform="matrix(0.05,0,0,0.05,15.949999999999998,0)" xlink:href="#ay"/><use transform="matrix(0.05,0,0,0.05,25.950000000000003,0)" xlink:href="#az"/><use transform="matrix(0.05,0,0,0.05,29.899999999999995,0)" xlink:href="#au"/><use transform="matrix(0.05,0,0,0.05,38.9,0)" xlink:href="#aH"/><use transform="matrix(0.05,0,0,0.05,43.9,0)" xlink:href="#aL"/><use transform="matrix(0.05,0,0,0.05,49.85,0)" xlink:href="#av"/><use transform="matrix(0.05,0,0,0.05,59.85,0)" xlink:href="#ar"/><use transform="matrix(0.05,0,0,0.05,71.85,0)" xlink:href="#as"/><use transform="matrix(0.05,0,0,0.05,80.85,0)" xlink:href="#at"/><use transform="matrix(0.05,0,0,0.05,90.85,0)" xlink:href="#au"/><use transform="matrix(0.05,0,0,0.05,99.85,0)" xlink:href="#au"/><use transform="matrix(0.05,0,0,0.05,108.84999999999998,0)" xlink:href="#aD"/><use transform="matrix(0.05,0,0,0.05,118.84999999999998,0)" xlink:href="#aE"/><use transform="matrix(0.05,0,0,0.05,124.80000000000001,0)" xlink:href="#aF"/></g><use transform="matrix(0.05,0,0,0.05,0,0)" xlink:href="#at" id="G"/><path fill="#333" d="M210-169c-67 3-38 105-44 169h-31v-121c0-29-5-50-35-48C34-165 62-65 56 0H25l-1-190h30c1 10-1 24 2 32 10-44 99-50 107 0 11-21 27-35 58-36 85-2 47 119 55 194h-31v-121c0-29-5-49-35-48" id="bC"/><path fill="#333" d="M30-248c118-7 216 8 213 122C240-48 200 0 122 0H30v-248zM63-27c89 8 146-16 146-99s-60-101-146-95v194" id="bD"/><g id="H"><use transform="matrix(0.05,0,0,0.05,0,0)" xlink:href="#as"/><use transform="matrix(0.05,0,0,0.05,9,0)" xlink:href="#aD"/><use transform="matrix(0.05,0,0,0.05,19,0)" xlink:href="#bC"/><use transform="matrix(0.05,0,0,0.05,33.95,0)" xlink:href="#aw"/><use transform="matrix(0.05,0,0,0.05,43.95,0)" xlink:href="#av"/><use transform="matrix(0.05,0,0,0.05,53.95,0)" xlink:href="#aL"/><use transform="matrix(0.05,0,0,0.05,59.900000000000006,0)" xlink:href="#av"/><use transform="matrix(0.05,0,0,0.05,69.9,0)" xlink:href="#bD"/><use transform="matrix(0.05,0,0,0.05,82.85000000000001,0)" xlink:href="#av"/><use transform="matrix(0.05,0,0,0.05,92.85000000000001,0)" xlink:href="#aB"/><use transform="matrix(0.05,0,0,0.05,102.85000000000001,0)" xlink:href="#aD"/><use transform="matrix(0.05,0,0,0.05,112.85000000000001,0)" xlink:href="#au"/><use transform="matrix(0.05,0,0,0.05,121.85000000000001,0)" xlink:href="#aE"/><use transform="matrix(0.05,0,0,0.05,127.80000000000001,0)" xlink:href="#aF"/></g><path fill="#333" d="M84 4C-5 8 30-112 23-190h32v120c0 31 7 50 39 49 72-2 45-101 50-169h31l1 190h-30c-1-10 1-25-2-33-11 22-28 36-60 37" id="bE"/><path fill="#333" d="M232-93c-1 65-40 97-104 97C67 4 28-28 28-90v-158h33c8 89-33 224 67 224 102 0 64-133 71-224h33v155" id="bF"/><g id="I"><use transform="matrix(0.05,0,0,0.05,0,0)" xlink:href="#av"/><use transform="matrix(0.05,0,0,0.05,10,0)" xlink:href="#bE"/><use transform="matrix(0.05,0,0,0.05,20,0)" xlink:href="#aH"/><use transform="matrix(0.05,0,0,0.05,25,0)" xlink:href="#at"/><use transform="matrix(0.05,0,0,0.05,35,0)" xlink:href="#aA"/><use transform="matrix(0.05,0,0,0.05,45,0)" xlink:href="#aH"/><use transform="matrix(0.05,0,0,0.05,50,0)" xlink:href="#az"/><use transform="matrix(0.05,0,0,0.05,53.95,0)" xlink:href="#as"/><use transform="matrix(0.05,0,0,0.05,62.95,0)" xlink:href="#av"/><use transform="matrix(0.05,0,0,0.05,72.95,0)" xlink:href="#bF"/><use transform="matrix(0.05,0,0,0.05,85.9,0)" xlink:href="#au"/><use transform="matrix(0.05,0,0,0.05,94.9,0)" xlink:href="#bE"/><use transform="matrix(0.05,0,0,0.05,104.9,0)" xlink:href="#av"/><use transform="matrix(0.05,0,0,0.05,114.9,0)" xlink:href="#aL"/><use transform="matrix(0.05,0,0,0.05,120.85000000000001,0)" xlink:href="#az"/><use transform="matrix(0.05,0,0,0.05,124.80000000000001,0)" xlink:href="#aD"/><use transform="matrix(0.05,0,0,0.05,134.8,0)" xlink:href="#aE"/><use transform="matrix(0.05,0,0,0.05,140.75,0)" xlink:href="#aF"/></g><g id="J"><use transform="matrix(0.05,0,0,0.05,0,0)" xlink:href="#bE"/><use transform="matrix(0.05,0,0,0.05,10,0)" xlink:href="#au"/><use transform="matrix(0.05,0,0,0.05,19,0)" xlink:href="#bE"/><use transform="matrix(0.05,0,0,0.05,29,0)" xlink:href="#av"/><use transform="matrix(0.05,0,0,0.05,39,0)" xlink:href="#aL"/><use transform="matrix(0.05,0,0,0.05,44.95,0)" xlink:href="#az"/><use transform="matrix(0.05,0,0,0.05,48.900000000000006,0)" xlink:href="#aD"/></g><g id="K"><use transform="matrix(0.05,0,0,0.05,0,0)" xlink:href="#aL"/><use transform="matrix(0.05,0,0,0.05,5.95,0)" xlink:href="#at"/><use transform="matrix(0.05,0,0,0.05,15.949999999999998,0)" xlink:href="#aB"/><use transform="matrix(0.05,0,0,0.05,25.950000000000003,0)" xlink:href="#az"/><use transform="matrix(0.05,0,0,0.05,29.899999999999995,0)" xlink:href="#aL"/><use transform="matrix(0.05,0,0,0.05,35.85,0)" xlink:href="#at"/><use transform="matrix(0.05,0,0,0.05,45.85,0)" xlink:href="#as"/><use transform="matrix(0.05,0,0,0.05,54.85,0)" xlink:href="#az"/><use transform="matrix(0.05,0,0,0.05,58.800000000000004,0)" xlink:href="#aD"/><use transform="matrix(0.05,0,0,0.05,68.80000000000001,0)" xlink:href="#aA"/><use transform="matrix(0.05,0,0,0.05,78.80000000000001,0)" xlink:href="#av"/><use transform="matrix(0.05,0,0,0.05,88.80000000000001,0)" xlink:href="#aB"/><use transform="matrix(0.05,0,0,0.05,98.80000000000001,0)" xlink:href="#aD"/></g><g id="L"><use transform="matrix(0.05,0,0,0.05,0,0)" xlink:href="#aw"/><use transform="matrix(0.05,0,0,0.05,10,0)" xlink:href="#av"/><use transform="matrix(0.05,0,0,0.05,20,0)" xlink:href="#aL"/><use transform="matrix(0.05,0,0,0.05,25.950000000000003,0)" xlink:href="#av"/></g><use transform="matrix(0.05,0,0,0.05,0,0)" xlink:href="#aD" id="M"/><path fill="#333" d="M106-169C34-169 62-67 57 0H25v-261h32l-1 103c12-21 28-36 61-36 89 0 53 116 60 194h-32v-121c2-32-8-49-39-48" id="bG"/><g id="N"><use transform="matrix(0.05,0,0,0.05,0,0)" xlink:href="#aB"/><use transform="matrix(0.05,0,0,0.05,10,0)" xlink:href="#av"/><use transform="matrix(0.05,0,0,0.05,20,0)" xlink:href="#au"/><use transform="matrix(0.05,0,0,0.05,29,0)" xlink:href="#bG"/><use transform="matrix(0.05,0,0,0.05,39,0)" xlink:href="#aJ"/><use transform="matrix(0.05,0,0,0.05,49,0)" xlink:href="#aD"/><use transform="matrix(0.05,0,0,0.05,59,0)" xlink:href="#av"/><use transform="matrix(0.05,0,0,0.05,69,0)" xlink:href="#aL"/><use transform="matrix(0.05,0,0,0.05,74.95,0)" xlink:href="#aB"/></g><path fill="#333" d="M190 0L58-211 59 0H30v-248h39L202-35l-2-213h31V0h-41" id="bH"/><path fill="#333" d="M101-234c-31-9-42 10-38 44h38v23H63V0H32v-167H5v-23h27c-7-52 17-82 69-68v24" id="bI"/><g id="O"><use transform="matrix(0.05,0,0,0.05,0,0)" xlink:href="#as"/><use transform="matrix(0.05,0,0,0.05,9,0)" xlink:href="#aL"/><use transform="matrix(0.05,0,0,0.05,14.949999999999998,0)" xlink:href="#az"/><use transform="matrix(0.05,0,0,0.05,18.9,0)" xlink:href="#av"/><use transform="matrix(0.05,0,0,0.05,28.899999999999995,0)" xlink:href="#aL"/><use transform="matrix(0.05,0,0,0.05,34.85,0)" xlink:href="#bH"/><use transform="matrix(0.05,0,0,0.05,47.800000000000004,0)" xlink:href="#aD"/><use transform="matrix(0.05,0,0,0.05,57.800000000000004,0)" xlink:href="#aN"/><use transform="matrix(0.05,0,0,0.05,66.80000000000001,0)" xlink:href="#av"/><use transform="matrix(0.05,0,0,0.05,76.80000000000001,0)" xlink:href="#aG"/><use transform="matrix(0.05,0,0,0.05,89.75000000000001,0)" xlink:href="#az"/><use transform="matrix(0.05,0,0,0.05,93.70000000000002,0)" xlink:href="#bI"/><use transform="matrix(0.05,0,0,0.05,98.70000000000002,0)" xlink:href="#av"/><use transform="matrix(0.05,0,0,0.05,108.7,0)" xlink:href="#aE"/><use transform="matrix(0.05,0,0,0.05,114.65000000000003,0)" xlink:href="#aF"/></g><path fill="#333" d="M145-31C134-9 116 4 85 4 32 4 16-35 15-94c0-59 17-99 70-100 32-1 48 14 60 33 0-11-1-24 2-32h30l-1 268h-32zM93-21c41 0 51-33 51-76s-8-73-50-73c-40 0-46 35-46 75s5 74 45 74" id="bJ"/><path fill="#333" d="M96-169c-40 0-48 33-48 73s9 75 48 75c24 0 41-14 43-38l32 2c-6 37-31 61-74 61-59 0-76-41-82-99-10-93 101-131 147-64 4 7 5 14 7 22l-32 3c-4-21-16-35-41-35zm3 187c19-1 33 8 33 26 0 31-30 33-64 32V58c18 2 39 4 41-13 1-15-18-13-34-13L87 0h19" id="bK"/><path fill="#333" d="M141-36C126-15 110 5 73 4 37 3 15-17 15-53c-1-64 63-63 125-63 3-35-9-54-41-54-24 1-41 7-42 31l-33-3c5-37 33-52 76-52 45 0 72 20 72 64v82c-1 20 7 32 28 27v20c-31 9-61-2-59-35zM48-53c0 20 12 33 32 33 41-3 63-29 60-74-43 2-92-5-92 41zm117-205c-3 23-9 48-36 47-26-1-65-44-74 0H39c4-23 8-48 36-47s64 44 74 0h16" id="bL"/><g id="P"><use transform="matrix(0.05,0,0,0.05,0,0)" xlink:href="#aL"/><use transform="matrix(0.05,0,0,0.05,5.95,0)" xlink:href="#at"/><use transform="matrix(0.05,0,0,0.05,15.949999999999998,0)" xlink:href="#bJ"/><use transform="matrix(0.05,0,0,0.05,25.950000000000003,0)" xlink:href="#bE"/><use transform="matrix(0.05,0,0,0.05,35.95,0)" xlink:href="#az"/><use transform="matrix(0.05,0,0,0.05,39.900000000000006,0)" xlink:href="#au"/><use transform="matrix(0.05,0,0,0.05,48.900000000000006,0)" xlink:href="#az"/><use transform="matrix(0.05,0,0,0.05,52.85,0)" xlink:href="#bK"/><use transform="matrix(0.05,0,0,0.05,61.85,0)" xlink:href="#bL"/><use transform="matrix(0.05,0,0,0.05,71.85000000000001,0)" xlink:href="#aD"/></g><g id="Q"><use transform="matrix(0.05,0,0,0.05,0,0)" xlink:href="#aB"/><use transform="matrix(0.05,0,0,0.05,10,0)" xlink:href="#av"/><use transform="matrix(0.05,0,0,0.05,20,0)" xlink:href="#aB"/><use transform="matrix(0.05,0,0,0.05,30,0)" xlink:href="#aD"/><use transform="matrix(0.05,0,0,0.05,40,0)" xlink:href="#au"/></g><g id="R"><use transform="matrix(0.05,0,0,0.05,0,0)" xlink:href="#aB"/><use transform="matrix(0.05,0,0,0.05,10,0)" xlink:href="#av"/></g><g id="S"><use transform="matrix(0.05,0,0,0.05,0,0)" xlink:href="#aL"/><use transform="matrix(0.05,0,0,0.05,5.95,0)" xlink:href="#az"/><use transform="matrix(0.05,0,0,0.05,9.9,0)" xlink:href="#bI"/><use transform="matrix(0.05,0,0,0.05,14.9,0)" xlink:href="#av"/></g><path fill="#333" d="M127-220V0H93v-220H8v-28h204v28h-85" id="bM"/><g id="T"><use transform="matrix(0.05,0,0,0.05,0,0)" xlink:href="#az"/><use transform="matrix(0.05,0,0,0.05,3.95,0)" xlink:href="#aA"/><use transform="matrix(0.05,0,0,0.05,13.949999999999998,0)" xlink:href="#au"/><use transform="matrix(0.05,0,0,0.05,22.95,0)" xlink:href="#at"/><use transform="matrix(0.05,0,0,0.05,32.95,0)" xlink:href="#aL"/><use transform="matrix(0.05,0,0,0.05,38.900000000000006,0)" xlink:href="#az"/><use transform="matrix(0.05,0,0,0.05,42.85000000000001,0)" xlink:href="#aL"/><use transform="matrix(0.05,0,0,0.05,48.80000000000001,0)" xlink:href="#bD"/><use transform="matrix(0.05,0,0,0.05,61.750000000000014,0)" xlink:href="#av"/><use transform="matrix(0.05,0,0,0.05,71.75000000000001,0)" xlink:href="#aB"/><use transform="matrix(0.05,0,0,0.05,81.75000000000001,0)" xlink:href="#aD"/><use transform="matrix(0.05,0,0,0.05,91.75000000000001,0)" xlink:href="#au"/><use transform="matrix(0.05,0,0,0.05,100.75000000000001,0)" xlink:href="#bH"/><use transform="matrix(0.05,0,0,0.05,113.7,0)" xlink:href="#av"/><use transform="matrix(0.05,0,0,0.05,123.7,0)" xlink:href="#bM"/><use transform="matrix(0.05,0,0,0.05,132.65,0)" xlink:href="#av"/><use transform="matrix(0.05,0,0,0.05,142.65,0)" xlink:href="#aJ"/><use transform="matrix(0.05,0,0,0.05,152.65,0)" xlink:href="#at"/><use transform="matrix(0.05,0,0,0.05,162.65,0)" xlink:href="#aC"/><use transform="matrix(0.05,0,0,0.05,166.6,0)" xlink:href="#av"/></g><path fill="#333" d="M212-179c-10-28-35-45-73-45-59 0-87 40-87 99 0 60 29 101 89 101 43 0 62-24 78-52l27 14C228-24 195 4 139 4 59 4 22-46 18-125c-6-104 99-153 187-111 19 9 31 26 39 46" id="bN"/><g id="U"><use transform="matrix(0.05,0,0,0.05,0,0)" xlink:href="#az"/><use transform="matrix(0.05,0,0,0.05,3.95,0)" xlink:href="#aA"/><use transform="matrix(0.05,0,0,0.05,13.949999999999998,0)" xlink:href="#au"/><use transform="matrix(0.05,0,0,0.05,22.95,0)" xlink:href="#at"/><use transform="matrix(0.05,0,0,0.05,32.95,0)" xlink:href="#aL"/><use transform="matrix(0.05,0,0,0.05,38.900000000000006,0)" xlink:href="#bK"/><use transform="matrix(0.05,0,0,0.05,47.900000000000006,0)" xlink:href="#bL"/><use transform="matrix(0.05,0,0,0.05,57.900000000000006,0)" xlink:href="#aD"/><use transform="matrix(0.05,0,0,0.05,67.9,0)" xlink:href="#bN"/><use transform="matrix(0.05,0,0,0.05,80.85000000000001,0)" xlink:href="#aD"/><use transform="matrix(0.05,0,0,0.05,90.85000000000001,0)" xlink:href="#aA"/><use transform="matrix(0.05,0,0,0.05,100.85000000000001,0)" xlink:href="#as"/><use transform="matrix(0.05,0,0,0.05,109.85000000000001,0)" xlink:href="#aC"/><use transform="matrix(0.05,0,0,0.05,113.80000000000001,0)" xlink:href="#bE"/><use transform="matrix(0.05,0,0,0.05,123.80000000000001,0)" xlink:href="#az"/><use transform="matrix(0.05,0,0,0.05,127.75,0)" xlink:href="#aB"/><use transform="matrix(0.05,0,0,0.05,137.75,0)" xlink:href="#av"/><use transform="matrix(0.05,0,0,0.05,147.75,0)" xlink:href="#bN"/><use transform="matrix(0.05,0,0,0.05,160.7,0)" xlink:href="#aD"/><use transform="matrix(0.05,0,0,0.05,170.7,0)" xlink:href="#bC"/><use transform="matrix(0.05,0,0,0.05,185.64999999999998,0)" xlink:href="#aK"/><use transform="matrix(0.05,0,0,0.05,197.64999999999998,0)" xlink:href="#bE"/><use transform="matrix(0.05,0,0,0.05,207.64999999999998,0)" xlink:href="#as"/><use transform="matrix(0.05,0,0,0.05,216.64999999999998,0)" xlink:href="#at"/><use transform="matrix(0.05,0,0,0.05,226.64999999999998,0)" xlink:href="#au"/><use transform="matrix(0.05,0,0,0.05,235.64999999999998,0)" xlink:href="#au"/><use transform="matrix(0.05,0,0,0.05,244.64999999999998,0)" xlink:href="#aD"/></g><g id="V"><use transform="matrix(0.05,0,0,0.05,0,0)" xlink:href="#av"/><use transform="matrix(0.05,0,0,0.05,10,0)" xlink:href="#bE"/><use transform="matrix(0.05,0,0,0.05,20,0)" xlink:href="#aH"/><use transform="matrix(0.05,0,0,0.05,25,0)" xlink:href="#at"/><use transform="matrix(0.05,0,0,0.05,35,0)" xlink:href="#aA"/><use transform="matrix(0.05,0,0,0.05,45,0)" xlink:href="#aH"/><use transform="matrix(0.05,0,0,0.05,50,0)" xlink:href="#az"/><use transform="matrix(0.05,0,0,0.05,53.95,0)" xlink:href="#as"/><use transform="matrix(0.05,0,0,0.05,62.95,0)" xlink:href="#av"/><use transform="matrix(0.05,0,0,0.05,72.95,0)" xlink:href="#aB"/><use transform="matrix(0.05,0,0,0.05,82.95,0)" xlink:href="#aD"/></g><g id="W"><use transform="matrix(0.05,0,0,0.05,0,0)" xlink:href="#as"/><use transform="matrix(0.05,0,0,0.05,9,0)" xlink:href="#av"/><use transform="matrix(0.05,0,0,0.05,19,0)" xlink:href="#aB"/><use transform="matrix(0.05,0,0,0.05,29,0)" xlink:href="#av"/><use transform="matrix(0.05,0,0,0.05,39,0)" xlink:href="#au"/><use transform="matrix(0.05,0,0,0.05,48,0)" xlink:href="#aH"/><use transform="matrix(0.05,0,0,0.05,53,0)" xlink:href="#aL"/><use transform="matrix(0.05,0,0,0.05,58.95,0)" xlink:href="#aD"/><use transform="matrix(0.05,0,0,0.05,68.95,0)" xlink:href="#bD"/><use transform="matrix(0.05,0,0,0.05,81.9,0)" xlink:href="#aD"/><use transform="matrix(0.05,0,0,0.05,91.9,0)" xlink:href="#au"/><use transform="matrix(0.05,0,0,0.05,100.9,0)" xlink:href="#bD"/><use transform="matrix(0.05,0,0,0.05,113.85000000000001,0)" xlink:href="#av"/><use transform="matrix(0.05,0,0,0.05,123.85000000000001,0)" xlink:href="#aB"/><use transform="matrix(0.05,0,0,0.05,133.85000000000002,0)" xlink:href="#aD"/><use transform="matrix(0.05,0,0,0.05,143.85000000000002,0)" xlink:href="#au"/><use transform="matrix(0.05,0,0,0.05,152.85000000000002,0)" xlink:href="#aE"/><use transform="matrix(0.05,0,0,0.05,158.8,0)" xlink:href="#aF"/></g><g id="X"><use transform="matrix(0.05,0,0,0.05,0,0)" xlink:href="#av"/><use transform="matrix(0.05,0,0,0.05,10,0)" xlink:href="#aB"/><use transform="matrix(0.05,0,0,0.05,20,0)" xlink:href="#aB"/><use transform="matrix(0.05,0,0,0.05,30,0)" xlink:href="#bH"/><use transform="matrix(0.05,0,0,0.05,42.95,0)" xlink:href="#aD"/><use transform="matrix(0.05,0,0,0.05,52.95,0)" xlink:href="#aN"/><use transform="matrix(0.05,0,0,0.05,61.95,0)" xlink:href="#av"/><use transform="matrix(0.05,0,0,0.05,71.95,0)" xlink:href="#aG"/><use transform="matrix(0.05,0,0,0.05,84.9,0)" xlink:href="#az"/><use transform="matrix(0.05,0,0,0.05,88.85000000000001,0)" xlink:href="#bI"/><use transform="matrix(0.05,0,0,0.05,93.85000000000001,0)" xlink:href="#av"/><use transform="matrix(0.05,0,0,0.05,103.85000000000001,0)" xlink:href="#aE"/><use transform="matrix(0.05,0,0,0.05,109.80000000000001,0)" xlink:href="#aF"/></g><g id="Y"><use transform="matrix(0.05,0,0,0.05,0,0)" xlink:href="#au"/><use transform="matrix(0.05,0,0,0.05,9,0)" xlink:href="#bE"/><use transform="matrix(0.05,0,0,0.05,19,0)" xlink:href="#as"/><use transform="matrix(0.05,0,0,0.05,28,0)" xlink:href="#at"/><use transform="matrix(0.05,0,0,0.05,38,0)" xlink:href="#au"/><use transform="matrix(0.05,0,0,0.05,47,0)" xlink:href="#au"/><use transform="matrix(0.05,0,0,0.05,56,0)" xlink:href="#aD"/><use transform="matrix(0.05,0,0,0.05,66,0)" xlink:href="#bN"/><use transform="matrix(0.05,0,0,0.05,78.95,0)" xlink:href="#av"/><use transform="matrix(0.05,0,0,0.05,88.95,0)" xlink:href="#aB"/><use transform="matrix(0.05,0,0,0.05,98.95,0)" xlink:href="#av"/><use transform="matrix(0.05,0,0,0.05,108.95,0)" xlink:href="#au"/><use transform="matrix(0.05,0,0,0.05,117.95,0)" xlink:href="#aH"/><use transform="matrix(0.05,0,0,0.05,122.95,0)" xlink:href="#aL"/><use transform="matrix(0.05,0,0,0.05,128.9,0)" xlink:href="#aD"/><use transform="matrix(0.05,0,0,0.05,138.9,0)" xlink:href="#bD"/><use transform="matrix(0.05,0,0,0.05,151.85,0)" xlink:href="#at"/><use transform="matrix(0.05,0,0,0.05,161.85,0)" xlink:href="#aG"/><use transform="matrix(0.05,0,0,0.05,174.79999999999998,0)" xlink:href="#az"/><use transform="matrix(0.05,0,0,0.05,178.74999999999997,0)" xlink:href="#bI"/><use transform="matrix(0.05,0,0,0.05,183.74999999999997,0)" xlink:href="#av"/><use transform="matrix(0.05,0,0,0.05,193.74999999999997,0)" xlink:href="#aE"/><use transform="matrix(0.05,0,0,0.05,199.69999999999996,0)" xlink:href="#aF"/></g><path fill="#333" d="M33-154v-36h34v36H33zM33 0v-36h34V0H33" id="bO"/><g id="Z"><use transform="matrix(0.05,0,0,0.05,0,0)" xlink:href="#bC"/><use transform="matrix(0.05,0,0,0.05,14.950000000000001,0)" xlink:href="#au"/><use transform="matrix(0.05,0,0,0.05,23.950000000000003,0)" xlink:href="#ay"/><use transform="matrix(0.05,0,0,0.05,33.95,0)" xlink:href="#bO"/></g><g id="aa"><use transform="matrix(0.05,0,0,0.05,0,0)" xlink:href="#aG"/><use transform="matrix(0.05,0,0,0.05,12.950000000000001,0)" xlink:href="#az"/><use transform="matrix(0.05,0,0,0.05,16.900000000000002,0)" xlink:href="#bI"/><use transform="matrix(0.05,0,0,0.05,21.900000000000002,0)" xlink:href="#av"/></g><g id="ab"><use transform="matrix(0.05,0,0,0.05,0,0)" xlink:href="#as"/><use transform="matrix(0.05,0,0,0.05,9,0)" xlink:href="#av"/><use transform="matrix(0.05,0,0,0.05,19,0)" xlink:href="#aB"/><use transform="matrix(0.05,0,0,0.05,29,0)" xlink:href="#av"/><use transform="matrix(0.05,0,0,0.05,39,0)" xlink:href="#au"/><use transform="matrix(0.05,0,0,0.05,48,0)" xlink:href="#aH"/><use transform="matrix(0.05,0,0,0.05,53,0)" xlink:href="#aL"/><use transform="matrix(0.05,0,0,0.05,58.95,0)" xlink:href="#av"/><use transform="matrix(0.05,0,0,0.05,68.95,0)" xlink:href="#aB"/><use transform="matrix(0.05,0,0,0.05,78.95,0)" xlink:href="#av"/></g><g id="ac"><use transform="matrix(0.05,0,0,0.05,0,0)" xlink:href="#as"/><use transform="matrix(0.05,0,0,0.05,9,0)" xlink:href="#aD"/><use transform="matrix(0.05,0,0,0.05,19,0)" xlink:href="#bC"/></g><g id="ad"><use transform="matrix(0.05,0,0,0.05,0,0)" xlink:href="#au"/><use transform="matrix(0.05,0,0,0.05,9,0)" xlink:href="#bE"/><use transform="matrix(0.05,0,0,0.05,19,0)" xlink:href="#as"/><use transform="matrix(0.05,0,0,0.05,28,0)" xlink:href="#at"/><use transform="matrix(0.05,0,0,0.05,38,0)" xlink:href="#au"/><use transform="matrix(0.05,0,0,0.05,47,0)" xlink:href="#au"/><use transform="matrix(0.05,0,0,0.05,56,0)" xlink:href="#aD"/></g></defs></g></svg>