<svg xmlns="http://www.w3.org/2000/svg" xmlns:xlink="http://www.w3.org/1999/xlink" xmlns:lucid="lucid" width="1814.43" height="1402.06"><g transform="translate(0 0)" lucid:page-tab-id="PaLdq~84CkD7"><path d="M0 0h1814.43v1402.06H0z" fill="#fff"/><path d="M618.56 647.18a8 8 0 0 1 8-8h215.96a8 8 0 0 1 8 8v4.92a17.07 17.07 0 0 1-5 12.08 17.07 17.07 0 0 1-12.08 5H626.56a8 8 0 0 1-8-8z" fill="#f2f3f5"/><path d="M850.52 639.18v20l-10 10H618.56" stroke="#4c535d" fill="none"/><path d="M618.56 647.18a8 8 0 0 1 8-8h924.74a8 8 0 0 1 8 8v210.8a8 8 0 0 1-8 8H626.56a8 8 0 0 1-8-8z" stroke="#4c535d" fill="none"/><use xlink:href="#a" transform="matrix(1,0,0,1,626.5567010309279,639.1752577275038) translate(0 18.6)"/><use xlink:href="#b" transform="matrix(1,0,0,1,626.5567010309279,639.1752577275038) translate(106.95 18.6)"/><use xlink:href="#c" transform="matrix(1,0,0,1,626.5567010309279,639.1752577275038) translate(131.95 18.6)"/><path d="M886.6 791.5a8 8 0 0 1 8-8h154.1a8 8 0 0 1 8 8v4.93a17.07 17.07 0 0 1-5 12.08 17.07 17.07 0 0 1-12.07 5H894.6a8 8 0 0 1-8-8z" fill="#f2f3f5"/><path d="M1056.7 783.5v20l-10 10H886.6" stroke="#4c535d" fill="none"/><path d="M886.6 791.5a8 8 0 0 1 8-8h656.7a8 8 0 0 1 8 8v355.14a8 8 0 0 1-8 8H894.6a8 8 0 0 1-8-8z" stroke="#4c535d" fill="none"/><use xlink:href="#d" transform="matrix(1,0,0,1,894.59793814433,783.5051546391753) translate(0 18.6)"/><use xlink:href="#e" transform="matrix(1,0,0,1,894.59793814433,783.5051546391753) translate(73.95 18.6)"/><use xlink:href="#f" transform="matrix(1,0,0,1,894.59793814433,783.5051546391753) translate(103.9 18.6)"/><path d="M278.46 301.95v9.9m0 9.9v19.8m0 9.92v19.8m0 9.9v19.8m0 9.9v19.82m0 9.9v19.8m0 9.9v19.8m0 9.9v19.82m0 9.9v19.8m0 9.9v19.8m0 9.92v19.8m0 9.9v19.8m0 9.9v19.82m0 9.9v19.8m0 9.9v19.82m0 9.9v19.8m0 9.9v19.82m0 9.9v19.8m0 9.9v19.8m0 9.92v19.8m0 9.9v19.8m0 9.9v19.82m0 9.9v19.8m0 9.9v19.82m0 9.9v19.8m0 9.9v19.82m0 9.9v19.8m0 9.9v19.8m0 9.92v19.8m0 9.9v19.8m0 9.9v19.82m0 9.9v19.8m0 9.9v19.82m0 9.9v9.9M278.46 301.98v-1.03M278.46 1282.32v1.02" stroke="#999" stroke-width="2" fill="none"/><path d="M258.46 366a5 5 0 0 1 5-5h30a5 5 0 0 1 5 5v268.18a5 5 0 0 1-5 5h-30a5 5 0 0 1-5-5z" stroke="#666" stroke-width="2" fill="#f2f2f2"/><path d="M698.46 302.95v9.97m0 9.97v19.94m0 9.97v19.95m0 9.97v19.94m0 9.97v19.94m0 9.98v19.94m0 9.96v19.94m0 9.97v19.94m0 10v19.93m0 9.97v19.94m0 9.97v19.95m0 9.98v19.94m0 9.97v19.94m0 9.97v19.94m0 9.96v19.95m0 9.98v19.94m0 9.97v19.93m0 9.97v19.95m0 9.97v19.94m0 9.97v19.94m0 9.97v19.95m0 9.96v19.94m0 9.97V971m0 9.98v19.95m0 9.97v19.94m0 9.97v19.95m0 9.97v19.95m0 9.97v19.94m0 9.97v19.94m0 9.96v19.95m0 9.98v19.94m0 9.97v19.93m0 9.97v19.94m0 9.98v19.94m0 9.97v9.97" stroke="#999" stroke-width="2" fill="none"/><path d="M699.46 302.98h-2v-1.03h2z" stroke="#999" stroke-width=".05" fill="#999"/><path d="M698.46 1319.97v1.03" stroke="#999" stroke-width="2" fill="none"/><path d="M678.46 426a5 5 0 0 1 5-5h30a5 5 0 0 1 5 5v187.56a5 5 0 0 1-5 5h-30a5 5 0 0 1-5-5z" stroke="#666" stroke-width="2" fill="#f2f2f2"/><path d="M300.4 431h358.56" stroke="#999" stroke-width="2" fill="none"/><path d="M300.44 432h-1.03v-2h1.04z" stroke="#999" stroke-width=".05" fill="#999"/><path d="M674.22 431l-14.26 4.64v-9.27z" stroke="#999" stroke-width="2" fill="#999"/><use xlink:href="#g" transform="matrix(1,0,0,1,393.00963328547454,405.3997819579065) translate(0 14.4)"/><use xlink:href="#h" transform="matrix(1,0,0,1,393.00963328547454,405.3997819579065) translate(64 14.4)"/><use xlink:href="#i" transform="matrix(1,0,0,1,393.00963328547454,405.3997819579065) translate(122.95 14.4)"/><use xlink:href="#j" transform="matrix(1,0,0,1,393.00963328547454,405.3997819579065) translate(156.95 14.4)"/><path d="M1078.97 462H720.4v-2h358.57z" stroke="#999" stroke-width=".05" fill="#999"/><path d="M720.43 462h-1.02v-2h1.03z" fill="#999"/><path d="M720.46 462.02h-1.08v-2.05h1.08zm-1.03-2v1.95h.98v-1.95z" stroke="#999" stroke-width=".05" fill="#999"/><path d="M1094.24 461l-14.27 4.63v-9.27z" fill="#999"/><path d="M1097.47 461l-18.5 6v-12.02zm-16.5 3.25L1091 461l-10.03-3.27z" stroke="#999" stroke-width=".05" fill="#999"/><use xlink:href="#k" transform="matrix(1,0,0,1,807.0656335225882,435.39084505510823) translate(0 14.4)"/><use xlink:href="#l" transform="matrix(1,0,0,1,908.4407572525294,450.1952635821771) translate(0 14.4)"/><path d="M1118.46 302.95v9.97m0 9.97v19.94m0 9.97v19.95m0 9.97v19.94m0 9.97v19.94m0 9.98v19.94m0 9.96v19.94m0 9.97v19.94m0 10v19.93m0 9.97v19.94m0 9.97v19.95m0 9.98v19.94m0 9.97v19.94m0 9.97v19.94m0 9.96v19.95m0 9.98v19.94m0 9.97v19.93m0 9.97v19.95m0 9.97v19.94m0 9.97v19.94m0 9.97v19.95m0 9.96v19.94m0 9.97V971m0 9.98v19.95m0 9.97v19.94m0 9.97v19.95m0 9.97v19.95m0 9.97v19.94m0 9.97v19.94m0 9.96v19.95m0 9.98v19.94m0 9.97v19.93m0 9.97v19.94m0 9.98v19.94m0 9.97v9.97" stroke="#999" stroke-width="2" fill="none"/><path d="M1119.46 302.98h-2v-1.03h2z" stroke="#999" stroke-width=".05" fill="#999"/><path d="M1118.46 1319.97v1.03" stroke="#999" stroke-width="2" fill="none"/><path d="M1098.46 706.03a5 5 0 0 1 5-5h30a5 5 0 0 1 5 5v381.75a5 5 0 0 1-5 5h-30a5 5 0 0 1-5-5z" stroke="#666" stroke-width="2" fill="#f2f2f2"/><path d="M742.98 720.28H915.1a4.6 4.6 0 0 1 4.62 4.6 4.6 4.6 0 0 0 4.6 4.63h154.64" stroke="#999" stroke-width="2" fill="none"/><path d="M743 721.28h-1.02v-2H743z" stroke="#999" stroke-width=".05" fill="#999"/><path d="M1094.22 729.5l-14.26 4.64v-9.27z" stroke="#999" stroke-width="2" fill="#999"/><use xlink:href="#m" transform="matrix(1,0,0,1,794.2393568802216,694.695085613837) translate(0 14.4)"/><use xlink:href="#n" transform="matrix(1,0,0,1,794.2393568802216,694.695085613837) translate(56.95 14.4)"/><use xlink:href="#o" transform="matrix(1,0,0,1,794.2393568802216,694.695085613837) translate(110.95 14.4)"/><path d="M1587.63 1015.3a5 5 0 0 1 5-5h150a5 5 0 0 1 5 5v50a5 5 0 0 1-5 5h-150a5 5 0 0 1-5-5z" stroke="#000" stroke-opacity="0" stroke-width="2" fill="#ffe6be"/><use xlink:href="#p" transform="matrix(1,0,0,1,1587.6288659793815,1010.3092783505156) translate(17.14999999999999 33.15)"/><use xlink:href="#q" transform="matrix(1,0,0,1,1587.6288659793815,1010.3092783505156) translate(69.04999999999998 33.15)"/><use xlink:href="#r" transform="matrix(1,0,0,1,1587.6288659793815,1010.3092783505156) translate(94.05 33.15)"/><path d="M1140.45 1040.3h428.7" stroke="#999" stroke-width="2" fill="none"/><path d="M1140.48 1041.3h-1.03v-2h1.03z" stroke="#999" stroke-width=".05" fill="#999"/><path d="M1584.42 1040.3l-14.26 4.64v-9.27z" stroke="#999" stroke-width="2" fill="#999"/><use xlink:href="#s" transform="matrix(1,0,0,1,1181.7712544013152,1044.3092783505153) translate(0 14.4)"/><use xlink:href="#t" transform="matrix(1,0,0,1,1181.7712544013152,1044.3092783505153) translate(122.85000000000001 14.4)"/><use xlink:href="#u" transform="matrix(1,0,0,1,1181.7712544013152,1044.3092783505153) translate(196.8 14.4)"/><use xlink:href="#v" transform="matrix(1,0,0,1,1181.7712544013152,1044.3092783505153) translate(227.75 14.4)"/><path d="M1667.63 1071.28v11.06m0 11.06v22.12m0 11.06v22.12m0 11.06v22.12m0 11.06v11.27l.06.2.06.17.1.16.13.15.14.13.16.1.18.08.2.05h.2l.18.03.2.04.17.08.16.1.14.12.13.15.1.17.07.18.05.2v11.06m0 11.08v22.15m0 11.07v22.15m0 11.08v22.15m0 11.08v11.08" stroke="#999" stroke-width="2" fill="none"/><path d="M1668.63 1071.3h-2v-1.02h2z" stroke="#999" stroke-width=".05" fill="#999"/><path d="M1670.1 1339.18v1.03" stroke="#999" stroke-width="2" fill="none"/><path d="M595.98 188a8 8 0 0 1 8-8h188.96a8 8 0 0 1 8 8v106a8 8 0 0 1-8 8H603.98a8 8 0 0 1-8-8z" stroke="#000" stroke-opacity="0" fill="#ffcc78"/><use xlink:href="#w" transform="matrix(1,0,0,1,603.9758996115919,188) translate(35.29012345679012 56.55555555555555)"/><use xlink:href="#x" transform="matrix(1,0,0,1,603.9758996115919,188) translate(86.59876543209876 56.55555555555555)"/><use xlink:href="#y" transform="matrix(1,0,0,1,603.9758996115919,188) translate(124.08024691358025 56.55555555555555)"/><path d="M1015.98 188a8 8 0 0 1 8-8h188.96a8 8 0 0 1 8 8v106a8 8 0 0 1-8 8h-188.96a8 8 0 0 1-8-8z" stroke="#000" stroke-opacity="0" fill="#ffd99a"/><use xlink:href="#z" transform="matrix(1,0,0,1,1023.9758996115918,188) translate(19.537037037037024 56.55555555555555)"/><use xlink:href="#A" transform="matrix(1,0,0,1,1023.9758996115918,188) translate(75.73456790123456 56.55555555555555)"/><use xlink:href="#B" transform="matrix(1,0,0,1,1023.9758996115918,188) translate(117.21604938271605 56.55555555555555)"/><path d="M480.36 78a8 8 0 0 1 8-8h836.75a8 8 0 0 1 8 8v27.67a8 8 0 0 1-8 8H488.37a8 8 0 0 1-8-8z" stroke="#000" stroke-opacity="0" stroke-width="2" fill="#fff" fill-opacity="0"/><use xlink:href="#C" transform="matrix(1,0,0,1,484.36304763070416,74) translate(131.57555937380675 26.923127147766323)"/><use xlink:href="#D" transform="matrix(1,0,0,1,484.36304763070416,74) translate(264.29797250859104 26.923127147766323)"/><use xlink:href="#E" transform="matrix(1,0,0,1,484.36304763070416,74) translate(303.9314203894616 26.923127147766323)"/><use xlink:href="#F" transform="matrix(1,0,0,1,484.36304763070416,74) translate(445.7412714776632 26.923127147766323)"/><use xlink:href="#G" transform="matrix(1,0,0,1,484.36304763070416,74) translate(486.8256548300878 26.923127147766323)"/><use xlink:href="#H" transform="matrix(1,0,0,1,484.36304763070416,74) translate(637.7229438717068 26.923127147766323)"/><use xlink:href="#I" transform="matrix(1,0,0,1,484.36304763070416,74) translate(677.3563917525773 26.923127147766323)"/><path d="M669.1 112.25h483.93M669.14 112.25h-1.03M1153 112.25h1.03" stroke="#b2b2b2" stroke-width="2" fill="none"/><path d="M480.36 120.4a8 8 0 0 1 8-8h837.7a8 8 0 0 1 8 8v2.86a8 8 0 0 1-8 8h-837.7a8 8 0 0 1-8-8z" stroke="#000" stroke-opacity="0" stroke-width="2" fill="#fff" fill-opacity="0"/><use xlink:href="#J" transform="matrix(1,0,0,1,484.3630476307046,116.41245733927416) translate(311.8427160493827 14.917037037037037)"/><use xlink:href="#K" transform="matrix(1,0,0,1,484.3630476307046,116.41245733927416) translate(356.83932098765433 14.917037037037037)"/><use xlink:href="#L" transform="matrix(1,0,0,1,484.3630476307046,116.41245733927416) translate(402.68572016460905 14.917037037037037)"/><use xlink:href="#M" transform="matrix(1,0,0,1,484.3630476307046,116.41245733927416) translate(415.13520576131685 14.917037037037037)"/><use xlink:href="#N" transform="matrix(1,0,0,1,484.3630476307046,116.41245733927416) translate(489.7896296296296 14.917037037037037)"/><use xlink:href="#O" transform="matrix(1,0,0,1,484.3630476307046,116.41245733927416) translate(506.78551440329215 14.917037037037037)"/><path d="M291 185.83c0 6.93-5.6 12.55-12.54 12.55-6.93 0-12.55-5.62-12.55-12.55 0-6.93 5.63-12.55 12.56-12.55 6.93 0 12.55 5.62 12.55 12.55z" stroke="#333" fill="#fff"/><path d="M278.46 198.38v30.93a29.4 29.4 0 0 0 4.05 14.9l21.06 35.8m-25.1-42.7l-25.1 42.7m0-69.07h50.2" stroke="#333" fill="none"/><path d="M253.36 181.28a8 8 0 0 1 8-8h34.2a8 8 0 0 1 8 8V294a8 8 0 0 1-8 8h-34.2a8 8 0 0 1-8-8z" fill="none"/><use xlink:href="#P" transform="matrix(1,0,0,1,173.3557382114787,280) translate(72.07499999999999 14.6)"/><path d="M1547.52 192v5.92c0 2.7-7.6 7.15-21.95 9.7-8.06 1.38-16.1 2.05-24.27 2.04-29.9 0-46.4-7.74-46.4-11.7V192c0 3.96 16.3 11.7 46.4 11.7 8.62.04 15.84-.54 24.37-2 14.26-2.64 21.85-7 21.85-9.7z" fill="#4f4f4f"/><path d="M1559.3 238.85v5.2c-.8 32.18-27.5 57.55-59.5 56.7-30.98-.88-55.7-25.63-56.5-56.7v-5.2h116z" fill-opacity="0"/><path d="M1547.14 193.1v6c-1.57 2.6-9 6.3-21.6 8.5-7.97 1.4-16.13 2.06-24.3 2.06-29.93 0-46.34-7.74-46.34-11.66v-6c0 3.93 16.32 11.67 46.35 11.67 8.62.1 15.95-.55 24.38-1.97 12.7-2.18 20.03-5.88 21.7-8.6m.1 87.73c.08-.22.18-.44.18-.77v9.92l-.1.44c-.08.1-.17.32-.26.54v.1l-.28.34-.37.54-.38.44-.65.43-.56.45-.64.55-.74.32-.93.55-.75.43-1.3.55-.74.32c-.73.33-1.47.55-2.3.88l-.84.2-1.85.56-1.2.34-1.76.43-1.4.33-1.94.44-1.57.2-2.14.45-1.77.2-2.4.23-1.77.2-2.87.23-1.87.22-3.24.1h-6.97c-16.87 0-29.57-2.06-38-4.8-6.12-2.17-10.57-4.56-11.04-6.3v-9.5c.46 1.75 4.35 3.93 9.82 6l-.1-.54c13.36 4.14 25.22 5.88 39.22 5.88h6.95l3.33-.1 1.76-.1 2.77-.34 1.77-.1 2.5-.34 1.57-.2 2.33-.34 10.57-2.62c.84-.32 1.67-.54 2.4-.87l2.05-.86.46-.33 1.3-.64.48-.33.92-.54.37-.34.75-.65.27-.2.55-.67v-.43l.37-.87z" fill="#4f4f4f"/><path d="M1501.3 181c8.16-.07 16.3.6 24.37 1.98 14.26 2.55 21.85 7 21.85 9.74 0 2.78-7.6 7.08-21.95 9.65-8.06 1.35-16.1 2.03-24.27 1.98-29.9 0-46.4-7.73-46.4-11.67 0-3.97 16.4-11.68 46.4-11.68z" fill="#7d7c7c"/><path d="M1524.97 211.8c-1.3.27-2.5.36-3.8.64-.65 0-1.3.18-2.04.27l-3.52.38c-.82 0-1.66.18-2.4.18-1.58.1-3.06.2-4.64.28h-.83c-1.85 0-3.7.1-5.65.18h-1.2c-18.37 0-36.9-3.22-45.9-9.28v80.27c.46 1.85 4.9 4.24 11.03 6.36 8.26 2.67 21.06 4.78 37.93 4.78 30.87.1 43.76-7.45 43.76-11.5V203.9c-4.83 3.3-12.62 6.17-22.73 7.9z" fill="#7d7c7c"/><use xlink:href="#Q" transform="matrix(1,0,0,1,1443.298969072165,301) translate(21 14.4)"/><use xlink:href="#R" transform="matrix(1,0,0,1,1443.298969072165,301) translate(75 14.4)"/><use xlink:href="#S" transform="matrix(1,0,0,1,1443.298969072165,301) translate(33.5 36)"/><path d="M1098.46 417.37a5 5 0 0 1 5-5h30a5 5 0 0 1 5 5v154.95a5 5 0 0 1-5 5h-30a5 5 0 0 1-5-5z" stroke="#666" stroke-width="2" fill="#f2f2f2"/><path d="M1501.3 301.82v9.96m0 9.96v19.92m0 9.96v19.92m0 9.97v19.93m0 9.96v19.9m0 9.97v19.92m0 9.95v19.92m0 9.96v19.92m0 9.96v19.93m0 9.96v19.9m0 9.97v19.93m0 9.96v19.92m0 9.96v19.92m0 9.96v19.92m0 9.96v19.92m0 9.96V760m0 9.96v19.92m0 9.96v19.93m0 9.96v19.92m0 9.96v19.93m0 9.96v19.9m0 9.97v19.92m0 9.95v19.92m0 9.96v19.92m0 9.96v19.93m0 9.96v19.92m0 9.96v19.92m0 9.96v19.92m0 9.96v19.92m0 9.96v19.92m0 9.96v19.92m0 9.96v19.92m0 9.96V1268m0 9.95v19.92m0 9.96v19.92m0 9.96v9.97l.03.45.1.43.18.42.24.38.3.34.34.28.38.23.4.18.45.1.45.04" stroke="#999" stroke-width="2" fill="none"/><path d="M1502.3 300.88v.97h-2v-1.1z" stroke="#999" stroke-width=".05" fill="#999"/><path d="M1504.13 1350.52h1.02" stroke="#999" stroke-width="2" fill="none"/><path d="M1465.06 479.35H1140.4v-2h324.63z" stroke="#999" stroke-width=".05" fill="#999"/><path d="M1140.45 479.36h-1.03v-2h1.03z" fill="#999"/><path d="M1140.47 479.38h-1.07v-2.05h1.07zm-1.03-2v1.95h.98v-1.95z" stroke="#999" stroke-width=".05" fill="#999"/><path d="M1480.32 478.35l-14.26 4.64v-9.28z" fill="#999"/><path d="M1483.56 478.35l-18.5 6v-12zm-16.5 3.26l10.03-3.25-10.04-3.26z" stroke="#999" stroke-width=".05" fill="#999"/><use xlink:href="#T" transform="matrix(1,0,0,1,1250.5891138564432,452.75210411232416) translate(0 14.4)"/><use xlink:href="#l" transform="matrix(1,0,0,1,1311.4892190724809,467.55447386004005) translate(0 14.4)"/><path d="M1484.54 438a5 5 0 0 1 5-5h30a5 5 0 0 1 5 5v110a5 5 0 0 1-5 5h-30a5 5 0 0 1-5-5z" stroke="#666" stroke-width="2" fill="#f2f2f2"/><path d="M1482.6 533h-9.52v-2h9.5zm-19.02 0h-19v-2h19zm-28.5 0h-19.02v-2h19zm-28.52 0h-19v-2h19zm-28.5 0h-19.02v-2h19zm-28.52 0h-19v-2h19zm-38.02-2h9.5v2h-19.75v-2zm-20.5 0v2h-20.46v-2zm-30.7 0v2h-20.47v-2zm-30.7 0v2h-20.5v-2zm-30.73 0v2h-20.48v-2zm-30.72 0v2h-10.24v-2z" stroke="#999" stroke-width=".05" fill="#999"/><path d="M1483.6 533h-1.04v-2h1.03z" fill="#999"/><path d="M1483.6 533.03h-1.06v-2.05h1.07zm-1-2v1.95h.96v-1.95z" stroke="#999" stroke-width=".05" fill="#999"/><path d="M1156.94 536.63l-14.26-4.63 14.26-4.64z" fill="#999"/><path d="M1157.94 538l-18.5-6 18.5-6.02zm-12.03-6l10.04 3.26v-6.52z" stroke="#999" stroke-width=".05" fill="#999"/><use xlink:href="#U" transform="matrix(1,0,0,1,1231.1399767906664,506.39637242147984) translate(0 14.4)"/><use xlink:href="#q" transform="matrix(1,0,0,1,1231.1399767906664,506.39637242147984) translate(36.9 14.4)"/><use xlink:href="#V" transform="matrix(1,0,0,1,1231.1399767906664,506.39637242147984) translate(61.9 14.4)"/><use xlink:href="#W" transform="matrix(1,0,0,1,1231.1399767906664,506.39637242147984) translate(100.8 14.4)"/><use xlink:href="#l" transform="matrix(1,0,0,1,1311.5147633514716,521.202533674825) translate(0 14.4)"/><path d="M747.4 537.12h-9.47v-2h9.48zm28.43 0h-18.95v-2h18.95zm28.42 0H785.3v-2h18.95zm28.42 0h-18.95v-2h18.95zm28.42 0h-18.96v-2h18.95zm28.4 0h-18.94v-2h18.95zm29.42-.02h-10.44l-9.5.02v-2l9.5-.02h10.44zm177.58 0h-10.44v-2h10.44zm-20.9 0h-20.88v-2h20.9zm-31.33 0h-20.9v-2h20.9zm-31.33 0h-20.9v-2h20.9zm-31.34 0h-20.9v-2h20.9zm-31.34 0h-20.9v-2h20.9z" stroke="#999" stroke-width=".05" fill="#999"/><path d="M1097.5 537.1h-1.02v-2h1.02z" fill="#999"/><path d="M1097.53 537.12h-1.08v-2.05h1.08zm-1.03-2v1.95h.98v-1.95z" stroke="#999" stroke-width=".05" fill="#999"/><path d="M736.93 540.75l-14.26-4.63 14.26-4.64z" fill="#999"/><path d="M737.93 542.13l-18.5-6 18.5-6.02zm-12.03-6l10.03 3.25v-6.52z" stroke="#999" stroke-width=".05" fill="#999"/><use xlink:href="#X" transform="matrix(1,0,0,1,834.1175188468293,510.4966101247614) translate(0 14.4)"/><use xlink:href="#Y" transform="matrix(1,0,0,1,834.1175188468293,510.4966101247614) translate(38.9 14.4)"/><use xlink:href="#Z" transform="matrix(1,0,0,1,834.1175188468293,510.4966101247614) translate(103.85 14.4)"/><use xlink:href="#l" transform="matrix(1,0,0,1,908.467914882385,525.3072648483078) translate(0 14.4)"/><path d="M327.4 557.7h-9.46v-2h9.47zm28.43 0H336.9v-2h18.93zm28.42 0H365.3v-2h18.95zm28.42 0h-18.95v-2h18.95zm28.4 0h-18.93v-2h18.94zm28.43 0h-18.94v-2h18.94zm29.44-.06H488.5l-9.52.06v-2l9.52-.06h10.44zm177.56 0h-10.44v-2h10.44zm-20.9 0h-20.88v-2h20.9zm-31.32 0h-20.9v-2h20.9zm-31.34 0h-20.9v-2h20.9zm-31.33 0h-20.88v-2h20.9zm-31.32 0h-20.9v-2h20.9z" stroke="#999" stroke-width=".05" fill="#999"/><path d="M677.5 557.64h-1.03v-2h1.03z" fill="#999"/><path d="M677.53 557.67h-1.08v-2.05h1.07zm-1.03-2v1.95h.98v-1.95z" stroke="#999" stroke-width=".05" fill="#999"/><path d="M316.94 561.34l-14.26-4.64 14.26-4.63z" fill="#999"/><path d="M317.94 562.7l-18.5-6 18.5-6zm-12.03-6l10.04 3.26v-6.52z" stroke="#999" stroke-width=".05" fill="#999"/><use xlink:href="#aa" transform="matrix(1,0,0,1,365.6189270863995,531.0442311902166) translate(0 14.4)"/><use xlink:href="#ab" transform="matrix(1,0,0,1,365.6189270863995,531.0442311902166) translate(84.95 14.4)"/><use xlink:href="#q" transform="matrix(1,0,0,1,365.6189270863995,531.0442311902166) translate(121.85 14.4)"/><use xlink:href="#V" transform="matrix(1,0,0,1,365.6189270863995,531.0442311902166) translate(146.85 14.4)"/><use xlink:href="#W" transform="matrix(1,0,0,1,365.6189270863995,531.0442311902166) translate(185.75 14.4)"/><use xlink:href="#l" transform="matrix(1,0,0,1,488.46959162835606,545.8726154920334) translate(0 14.4)"/><path d="M258.46 676.9a5 5 0 0 1 5-5h30a5 5 0 0 1 5 5v431.5a5 5 0 0 1-5 5h-30a5 5 0 0 1-5-5z" stroke="#666" stroke-width="2" fill="#f2f2f2"/><path d="M300.4 721.68h188.52v-.02H659.97" stroke="#999" stroke-width="2" fill="none"/><path d="M300.43 722.68h-1.03v-2h1.03z" stroke="#999" stroke-width=".05" fill="#999"/><path d="M675.22 721.65l-14.26 4.64V717z" stroke="#999" stroke-width="2" fill="#999"/><use xlink:href="#ac" transform="matrix(1,0,0,1,348.65423327781934,696.0500415140364) translate(0 14.4)"/><use xlink:href="#ad" transform="matrix(1,0,0,1,348.65423327781934,696.0500415140364) translate(40.9 14.4)"/><use xlink:href="#ae" transform="matrix(1,0,0,1,348.65423327781934,696.0500415140364) translate(81.85 14.4)"/><use xlink:href="#af" transform="matrix(1,0,0,1,348.65423327781934,696.0500415140364) translate(105.85 14.4)"/><use xlink:href="#ag" transform="matrix(1,0,0,1,348.65423327781934,696.0500415140364) translate(185.75 14.4)"/><use xlink:href="#ah" transform="matrix(1,0,0,1,348.65423327781934,696.0500415140364) translate(215.7 14.4)"/><use xlink:href="#ai" transform="matrix(1,0,0,1,348.65423327781934,696.0500415140364) translate(255.64999999999998 14.4)"/><path d="M678.46 685.4a5 5 0 0 1 5-5h30a5 5 0 0 1 5 5v381.76a5 5 0 0 1-5 5h-30a5 5 0 0 1-5-5z" stroke="#666" stroke-width="2" fill="#f2f2f2"/><path d="M701.03 706.03a5 5 0 0 1 5-5h30a5 5 0 0 1 5 5v110a5 5 0 0 1-5 5h-30a5 5 0 0 1-5-5z" stroke="#4c535d" stroke-width="2" fill="#fff"/><path d="M1140.4 735.45h164.45a5 5 0 0 1 5 5v10.5a5 5 0 0 0 5 5h146.95" stroke="#999" stroke-width="2" fill="none"/><path d="M1140.43 736.45h-1.03v-2h1.03z" stroke="#999" stroke-width=".05" fill="#999"/><path d="M1477.07 755.94l-14.27 4.63v-9.27z" stroke="#999" stroke-width="2" fill="#999"/><g><use xlink:href="#aj" transform="matrix(1,0,0,1,1253.7989491974527,709.8499762587355) translate(0 14.4)"/></g><path d="M1481.3 706.03a5 5 0 0 1 5-5h30a5 5 0 0 1 5 5v423a5 5 0 0 1-5 5h-30a5 5 0 0 1-5-5z" stroke="#666" stroke-width="2" fill="#f2f2f2"/><path d="M743 749.7H777a5 5 0 0 1 5 5v32.06a5 5 0 0 1-5 5h-16.5" stroke="#999" stroke-width="2" fill="none"/><path d="M743.02 750.7H742v-2H743z" stroke="#999" stroke-width=".05" fill="#999"/><path d="M745.25 791.76l14.27-4.64v9.27z" stroke="#999" stroke-width="2" fill="#999"/><g><use xlink:href="#ak" transform="matrix(1,0,0,1,790.0174221648144,759.9155699706749) translate(0 14.4)"/><use xlink:href="#al" transform="matrix(1,0,0,1,790.0174221648144,759.9155699706749) translate(38.95 14.4)"/></g><path d="M327.4 805.16h-9.48v-2h9.47zm28.4 0h-18.94v-2h18.95zm28.43 0h-18.95v-2h18.95zm28.42 0H393.7v-2h18.95zm28.42 0h-18.95v-2h18.95zm28.4 0h-18.93v-2h18.94zm29.44-.04h-10.44l-9.5.04v-2l9.5-.04h10.45zm177.58 0h-10.45v-2h10.45zm-20.9 0H634.7v-2h20.9zm-31.33 0h-20.9v-2h20.9zm-31.34 0h-20.88v-2h20.9zm-31.32 0h-20.9v-2h20.9zm-31.34 0h-20.9v-2h20.9z" stroke="#999" stroke-width=".05" fill="#999"/><path d="M677.48 805.12h-1.03v-2h1.03z" fill="#999"/><path d="M677.5 805.15h-1.07v-2.05h1.07zm-1.02-2v1.95h.97v-1.95z" stroke="#999" stroke-width=".05" fill="#999"/><path d="M316.92 808.8l-14.27-4.64 14.27-4.64z" fill="#999"/><path d="M317.92 810.17l-18.5-6 18.5-6.02zm-12.03-6l10.02 3.25v-6.52z" stroke="#999" stroke-width=".05" fill="#999"/><g><use xlink:href="#am" transform="matrix(1,0,0,1,392.51946981262546,778.5237403637902) translate(0 14.4)"/><use xlink:href="#an" transform="matrix(1,0,0,1,392.51946981262546,778.5237403637902) translate(63.900000000000006 14.4)"/><use xlink:href="#ao" transform="matrix(1,0,0,1,392.51946981262546,778.5237403637902) translate(98.9 14.4)"/><use xlink:href="#ap" transform="matrix(1,0,0,1,392.51946981262546,778.5237403637902) translate(137.9 14.4)"/></g><g><use xlink:href="#l" transform="matrix(1,0,0,1,488.4449618352177,793.3404368985773) translate(0 14.4)"/></g><path d="M1168.04 822.1h-10.12v-2h10.12zm30.38 0h-20.25v-2h20.25zm30.38 0h-20.25v-2h20.25zm30.38 0h-20.25v-2h20.25zm30.38 0h-20.25v-2h20.26zm29.77-.13h-8.92l-.07.1-10.64.02v-2l9.65-.02.08-.1h9.9zm160 0h-9.43v-2h9.42zm-18.84 0h-18.83v-2h18.82zm-28.24 0h-18.82v-2h18.82zm-28.23 0h-18.82v-2h18.83zm-28.23 0h-18.82v-2h18.82zm-28.23 0h-18.83v-2h18.83z" stroke="#999" stroke-width=".05" fill="#999"/><path d="M1480.32 821.97h-1.03v-2h1.02z" fill="#999"/><path d="M1480.34 822h-1.07v-2.05h1.07zm-1.02-2v1.95h.97V820z" stroke="#999" stroke-width=".05" fill="#999"/><path d="M1156.92 825.72l-14.27-4.63 14.27-4.65z" fill="#999"/><path d="M1157.92 827.1l-18.5-6 18.5-6.02zm-12.03-6l10.02 3.25v-6.52z" stroke="#999" stroke-width=".05" fill="#999"/><g><use xlink:href="#aq" transform="matrix(1,0,0,1,1278.1605726948462,795.3739422067664) translate(0 14.4)"/></g><g><use xlink:href="#l" transform="matrix(1,0,0,1,1309.8649013130703,810.2303384024933) translate(0 14.4)"/></g><path d="M1096.5 1011.3h-10.44v-2h10.45zm-20.9 0h-20.88v-2h20.9zm-31.32 0h-20.9v-2h20.9zm-31.34 0h-20.9v-2h20.9zm-31.34 0h-20.9v-2h20.9zm-31.34 0h-20.9v-2h20.9zm-31.34 0H899v-2h19.92zm-29.4 0H870.6v-2h18.95zm-28.4 0h-18.96v-2h18.95zm-28.43 0h-18.96v-2h18.95zm-28.43 0h-18.95v-2h18.95zm-28.42 0H756.9v-2h18.95zm-28.43 0h-9.47v-2h9.47z" stroke="#999" stroke-width=".05" fill="#999"/><path d="M1097.5 1011.3h-1.02v-2h1.03z" fill="#999"/><path d="M1097.53 1011.33h-1.07v-2.05h1.07zm-1.02-2v1.95h.98v-1.95z" stroke="#999" stroke-width=".05" fill="#999"/><path d="M736.95 1014.94l-14.27-4.63 14.27-4.63z" fill="#999"/><path d="M737.95 1016.32l-18.5-6 18.5-6.02zm-12.03-6l10.03 3.25v-6.52z" stroke="#999" stroke-width=".05" fill="#999"/><g><use xlink:href="#ar" transform="matrix(1,0,0,1,796.0770252044958,984.7083040982881) translate(0 14.4)"/><use xlink:href="#as" transform="matrix(1,0,0,1,796.0770252044958,984.7083040982881) translate(71 14.4)"/><use xlink:href="#t" transform="matrix(1,0,0,1,796.0770252044958,984.7083040982881) translate(96 14.4)"/><use xlink:href="#ag" transform="matrix(1,0,0,1,796.0770252044958,984.7083040982881) translate(169.95 14.4)"/><use xlink:href="#ai" transform="matrix(1,0,0,1,796.0770252044958,984.7083040982881) translate(199.89999999999998 14.4)"/></g><g><use xlink:href="#l" transform="matrix(1,0,0,1,908.4770252044958,999.5083040982881) translate(0 14.4)"/></g><path d="M676.52 1047.67h-10.45v-2h10.45zm-20.9 0h-20.9v-2h20.9zm-31.34 0h-20.9v-2h20.9zm-31.34 0h-20.9v-2h20.9zm-31.33 0h-20.9v-2h20.9zm-31.33 0h-20.9v-2h20.9zm-31.34 0H479v-2h19.93zm-29.4 0H450.6v-2h18.93zm-28.42 0h-18.94v-2h18.95zm-28.4 0h-18.96v-2h18.95zm-28.43 0h-18.95v-2h18.95zm-28.42 0H336.9v-2h18.95zm-28.42 0h-9.48v-2h9.48z" stroke="#999" stroke-width=".05" fill="#999"/><path d="M677.52 1047.67h-1.03v-2h1.02z" fill="#999"/><path d="M677.54 1047.7h-1.08v-2.06h1.08zm-1.03-2v1.94h1v-1.95z" stroke="#999" stroke-width=".05" fill="#999"/><path d="M316.95 1051.3l-14.26-4.63 14.25-4.64z" fill="#999"/><path d="M317.95 1052.68l-18.5-6 18.5-6.02zm-12.03-6l10.03 3.25v-6.52z" stroke="#999" stroke-width=".05" fill="#999"/><g><use xlink:href="#am" transform="matrix(1,0,0,1,384.6067951788191,1021.0667453423316) translate(0 14.4)"/><use xlink:href="#at" transform="matrix(1,0,0,1,384.6067951788191,1021.0667453423316) translate(63.900000000000006 14.4)"/><use xlink:href="#au" transform="matrix(1,0,0,1,384.6067951788191,1021.0667453423316) translate(157.85000000000002 14.4)"/><use xlink:href="#ai" transform="matrix(1,0,0,1,384.6067951788191,1021.0667453423316) translate(182.85000000000002 14.4)"/></g><g><use xlink:href="#l" transform="matrix(1,0,0,1,488.481795178819,1035.8667453423316) translate(0 14.4)"/></g><path d="M1140.43 901.06h321.4" stroke="#999" stroke-width="2" fill="none"/><path d="M1140.45 902.06h-1.02v-2h1.02z" stroke="#999" stroke-width=".05" fill="#999"/><path d="M1477.1 901.05l-14.27 4.63v-9.27z" stroke="#999" stroke-width="2" fill="#999"/><g><use xlink:href="#av" transform="matrix(1,0,0,1,1230.2343780359256,875.4570084763511) translate(0 14.4)"/></g><path d="M1167.8 991.66h-9.86v-2h9.85zm29.54 0h-19.7v-2h19.7zm29.54-.02h-19.7v-2h19.7zm29.55 0h-19.7v-2h19.7zm29.54-.03l-19.7.02v-2h19.7zm39.88-26.6h-10.92l-.67.05-.6.15-.6.24-.52.33-.48.4-.4.48-.33.54-.24.57-.15.57-.06 17.37-.08.9-.22.92-.36.87-.5.8-.6.7-.72.62-.8.5-.88.36-.95.23h-9.98v-2h9.73l.57-.13.58-.24.54-.33.48-.4.4-.48.33-.54.24-.58.14-.6.05-.67.05-17.53.23-.95.36-.87.5-.8.6-.72.72-.62.8-.5.87-.35.92-.23.9-.07h11zm153.5 0h-10.98v-2h10.97zm-21.94 0h-21.92v-2h21.93zm-32.88 0h-21.93v-2h21.92zm-32.9 0h-21.92v-2h21.93zm-32.88 0h-21.92v-2h21.92z" stroke="#999" stroke-width=".05" fill="#999"/><path d="M1480.34 965h-1.03v-2h1.04z" fill="#999"/><path d="M1480.36 965.03h-1.07v-2.05h1.06zm-1.02-2v1.95h.97v-1.95z" stroke="#999" stroke-width=".05" fill="#999"/><path d="M1156.94 995.3l-14.26-4.63 14.26-4.64z" fill="#999"/><path d="M1157.94 996.68l-18.5-6 18.5-6.02zm-12.03-6l10.04 3.25v-6.52z" stroke="#999" stroke-width=".05" fill="#999"/><g><use xlink:href="#aw" transform="matrix(1,0,0,1,1175.9093458832124,938.7030558573942) translate(0 14.4)"/></g><g><use xlink:href="#l" transform="matrix(1,0,0,1,1309.88896736803,966.53482026508) translate(0 14.4)"/></g><defs><path d="M141-36C126-15 110 5 73 4 37 3 15-17 15-53c-1-64 63-63 125-63 3-35-9-54-41-54-24 1-41 7-42 31l-33-3c5-37 33-52 76-52 45 0 72 20 72 64v82c-1 20 7 32 28 27v20c-31 9-61-2-59-35zM48-53c0 20 12 33 32 33 41-3 63-29 60-74-43 2-92-5-92 41" id="ax"/><path d="M84 4C-5 8 30-112 23-190h32v120c0 31 7 50 39 49 72-2 45-101 50-169h31l1 190h-30c-1-10 1-25-2-33-11 22-28 36-60 37" id="ay"/><path d="M59-47c-2 24 18 29 38 22v24C64 9 27 4 27-40v-127H5v-23h24l9-43h21v43h35v23H59v120" id="az"/><path d="M100-194c63 0 86 42 84 106H49c0 40 14 67 53 68 26 1 43-12 49-29l28 8c-11 28-37 45-77 45C44 4 14-33 15-96c1-61 26-98 85-98zm52 81c6-60-76-77-97-28-3 7-6 17-6 28h103" id="aA"/><path d="M117-194c89-4 53 116 60 194h-32v-121c0-31-8-49-39-48C34-167 62-67 57 0H25l-1-190h30c1 10-1 24 2 32 11-22 29-35 61-36" id="aB"/><path d="M24-231v-30h32v30H24zM24 0v-190h32V0H24" id="aC"/><path d="M96-169c-40 0-48 33-48 73s9 75 48 75c24 0 41-14 43-38l32 2c-6 37-31 61-74 61-59 0-76-41-82-99-10-93 101-131 147-64 4 7 5 14 7 22l-32 3c-4-21-16-35-41-35" id="aD"/><path d="M96-169c-40 0-48 33-48 73s9 75 48 75c24 0 41-14 43-38l32 2c-6 37-31 61-74 61-59 0-76-41-82-99-10-93 101-131 147-64 4 7 5 14 7 22l-32 3c-4-21-16-35-41-35zm3 187c19-1 33 8 33 26 0 31-30 33-64 32V58c18 2 39 4 41-13 1-15-18-13-34-13L87 0h19" id="aE"/><path d="M141-36C126-15 110 5 73 4 37 3 15-17 15-53c-1-64 63-63 125-63 3-35-9-54-41-54-24 1-41 7-42 31l-33-3c5-37 33-52 76-52 45 0 72 20 72 64v82c-1 20 7 32 28 27v20c-31 9-61-2-59-35zM48-53c0 20 12 33 32 33 41-3 63-29 60-74-43 2-92-5-92 41zm117-205c-3 23-9 48-36 47-26-1-65-44-74 0H39c4-23 8-48 36-47s64 44 74 0h16" id="aF"/><path d="M100-194c62-1 85 37 85 99 1 63-27 99-86 99S16-35 15-95c0-66 28-99 85-99zM99-20c44 1 53-31 53-75 0-43-8-75-51-75s-53 32-53 75 10 74 51 75" id="aG"/><g id="a"><use transform="matrix(0.05,0,0,0.05,0,0)" xlink:href="#ax"/><use transform="matrix(0.05,0,0,0.05,10,0)" xlink:href="#ay"/><use transform="matrix(0.05,0,0,0.05,20,0)" xlink:href="#az"/><use transform="matrix(0.05,0,0,0.05,25,0)" xlink:href="#aA"/><use transform="matrix(0.05,0,0,0.05,35,0)" xlink:href="#aB"/><use transform="matrix(0.05,0,0,0.05,45,0)" xlink:href="#az"/><use transform="matrix(0.05,0,0,0.05,50,0)" xlink:href="#aC"/><use transform="matrix(0.05,0,0,0.05,53.95,0)" xlink:href="#aD"/><use transform="matrix(0.05,0,0,0.05,62.95,0)" xlink:href="#ax"/><use transform="matrix(0.05,0,0,0.05,72.95,0)" xlink:href="#aE"/><use transform="matrix(0.05,0,0,0.05,81.95,0)" xlink:href="#aF"/><use transform="matrix(0.05,0,0,0.05,91.95,0)" xlink:href="#aG"/></g><path d="M85-194c31 0 48 13 60 33l-1-100h32l1 261h-30c-2-10 0-23-3-31C134-8 116 4 85 4 32 4 16-35 15-94c0-66 23-100 70-100zm9 24c-40 0-46 34-46 75 0 40 6 74 45 74 42 0 51-32 51-76 0-42-9-74-50-73" id="aH"/><g id="b"><use transform="matrix(0.05,0,0,0.05,0,0)" xlink:href="#aH"/><use transform="matrix(0.05,0,0,0.05,10,0)" xlink:href="#aA"/></g><path d="M135-143c-3-34-86-38-87 0 15 53 115 12 119 90S17 21 10-45l28-5c4 36 97 45 98 0-10-56-113-15-118-90-4-57 82-63 122-42 12 7 21 19 24 35" id="aI"/><path d="M141-36C126-15 110 5 73 4 37 3 15-17 15-53c-1-64 63-63 125-63 3-35-9-54-41-54-24 1-41 7-42 31l-33-3c5-37 33-52 76-52 45 0 72 20 72 64v82c-1 20 7 32 28 27v20c-31 9-61-2-59-35zM48-53c0 20 12 33 32 33 41-3 63-29 60-74-43 2-92-5-92 41zm25-158c8-23 27-35 38-54h36v5l-58 49H73" id="aJ"/><path d="M114-163C36-179 61-72 57 0H25l-1-190h30c1 12-1 29 2 39 6-27 23-49 58-41v29" id="aK"/><g id="c"><use transform="matrix(0.05,0,0,0.05,0,0)" xlink:href="#ay"/><use transform="matrix(0.05,0,0,0.05,10,0)" xlink:href="#aI"/><use transform="matrix(0.05,0,0,0.05,19,0)" xlink:href="#ay"/><use transform="matrix(0.05,0,0,0.05,29,0)" xlink:href="#aJ"/><use transform="matrix(0.05,0,0,0.05,39,0)" xlink:href="#aK"/><use transform="matrix(0.05,0,0,0.05,44.95,0)" xlink:href="#aC"/><use transform="matrix(0.05,0,0,0.05,48.900000000000006,0)" xlink:href="#aG"/></g><g id="d"><use transform="matrix(0.05,0,0,0.05,0,0)" xlink:href="#aD"/><use transform="matrix(0.05,0,0,0.05,9,0)" xlink:href="#ax"/><use transform="matrix(0.05,0,0,0.05,19,0)" xlink:href="#aH"/><use transform="matrix(0.05,0,0,0.05,29,0)" xlink:href="#ax"/><use transform="matrix(0.05,0,0,0.05,39,0)" xlink:href="#aI"/><use transform="matrix(0.05,0,0,0.05,48,0)" xlink:href="#az"/><use transform="matrix(0.05,0,0,0.05,53,0)" xlink:href="#aK"/><use transform="matrix(0.05,0,0,0.05,58.95,0)" xlink:href="#aG"/></g><path d="M210-169c-67 3-38 105-44 169h-31v-121c0-29-5-50-35-48C34-165 62-65 56 0H25l-1-190h30c1 10-1 24 2 32 10-44 99-50 107 0 11-21 27-35 58-36 85-2 47 119 55 194h-31v-121c0-29-5-49-35-48" id="aL"/><g id="e"><use transform="matrix(0.05,0,0,0.05,0,0)" xlink:href="#aA"/><use transform="matrix(0.05,0,0,0.05,10,0)" xlink:href="#aL"/></g><path d="M101-234c-31-9-42 10-38 44h38v23H63V0H32v-167H5v-23h27c-7-52 17-82 69-68v24" id="aM"/><g id="f"><use transform="matrix(0.05,0,0,0.05,0,0)" xlink:href="#aK"/><use transform="matrix(0.05,0,0,0.05,5.95,0)" xlink:href="#aC"/><use transform="matrix(0.05,0,0,0.05,9.9,0)" xlink:href="#aM"/><use transform="matrix(0.05,0,0,0.05,14.9,0)" xlink:href="#ax"/></g><path fill="#333" d="M205 0l-28-72H64L36 0H1l101-248h38L239 0h-34zm-38-99l-47-123c-12 45-31 82-46 123h93" id="aN"/><path fill="#333" d="M96-169c-40 0-48 33-48 73s9 75 48 75c24 0 41-14 43-38l32 2c-6 37-31 61-74 61-59 0-76-41-82-99-10-93 101-131 147-64 4 7 5 14 7 22l-32 3c-4-21-16-35-41-35" id="aO"/><path fill="#333" d="M100-194c63 0 86 42 84 106H49c0 40 14 67 53 68 26 1 43-12 49-29l28 8c-11 28-37 45-77 45C44 4 14-33 15-96c1-61 26-98 85-98zm52 81c6-60-76-77-97-28-3 7-6 17-6 28h103" id="aP"/><path fill="#333" d="M135-143c-3-34-86-38-87 0 15 53 115 12 119 90S17 21 10-45l28-5c4 36 97 45 98 0-10-56-113-15-118-90-4-57 82-63 122-42 12 7 21 19 24 35" id="aQ"/><path fill="#333" d="M141-36C126-15 110 5 73 4 37 3 15-17 15-53c-1-64 63-63 125-63 3-35-9-54-41-54-24 1-41 7-42 31l-33-3c5-37 33-52 76-52 45 0 72 20 72 64v82c-1 20 7 32 28 27v20c-31 9-61-2-59-35zM48-53c0 20 12 33 32 33 41-3 63-29 60-74-43 2-92-5-92 41" id="aR"/><g id="g"><use transform="matrix(0.05,0,0,0.05,0,0)" xlink:href="#aN"/><use transform="matrix(0.05,0,0,0.05,12,0)" xlink:href="#aO"/><use transform="matrix(0.05,0,0,0.05,21,0)" xlink:href="#aP"/><use transform="matrix(0.05,0,0,0.05,31,0)" xlink:href="#aQ"/><use transform="matrix(0.05,0,0,0.05,40,0)" xlink:href="#aQ"/><use transform="matrix(0.05,0,0,0.05,49,0)" xlink:href="#aR"/></g><path fill="#333" d="M115-194c55 1 70 41 70 98S169 2 115 4C84 4 66-9 55-30l1 105H24l-1-265h31l2 30c10-21 28-34 59-34zm-8 174c40 0 45-34 45-75s-6-73-45-74c-42 0-51 32-51 76 0 43 10 73 51 73" id="aS"/><path fill="#333" d="M141-36C126-15 110 5 73 4 37 3 15-17 15-53c-1-64 63-63 125-63 3-35-9-54-41-54-24 1-41 7-42 31l-33-3c5-37 33-52 76-52 45 0 72 20 72 64v82c-1 20 7 32 28 27v20c-31 9-61-2-59-35zM48-53c0 20 12 33 32 33 41-3 63-29 60-74-43 2-92-5-92 41zm25-158c8-23 27-35 38-54h36v5l-58 49H73" id="aT"/><path fill="#333" d="M177-190C167-65 218 103 67 71c-23-6-38-20-44-43l32-5c15 47 100 32 89-28v-30C133-14 115 1 83 1 29 1 15-40 15-95c0-56 16-97 71-98 29-1 48 16 59 35 1-10 0-23 2-32h30zM94-22c36 0 50-32 50-73 0-42-14-75-50-75-39 0-46 34-46 75s6 73 46 73" id="aU"/><path fill="#333" d="M24-231v-30h32v30H24zM24 0v-190h32V0H24" id="aV"/><path fill="#333" d="M117-194c89-4 53 116 60 194h-32v-121c0-31-8-49-39-48C34-167 62-67 57 0H25l-1-190h30c1 10-1 24 2 32 11-22 29-35 61-36" id="aW"/><g id="h"><use transform="matrix(0.05,0,0,0.05,0,0)" xlink:href="#aS"/><use transform="matrix(0.05,0,0,0.05,10,0)" xlink:href="#aT"/><use transform="matrix(0.05,0,0,0.05,20,0)" xlink:href="#aU"/><use transform="matrix(0.05,0,0,0.05,30,0)" xlink:href="#aV"/><use transform="matrix(0.05,0,0,0.05,33.95,0)" xlink:href="#aW"/><use transform="matrix(0.05,0,0,0.05,43.95,0)" xlink:href="#aR"/></g><path fill="#333" d="M85-194c31 0 48 13 60 33l-1-100h32l1 261h-30c-2-10 0-23-3-31C134-8 116 4 85 4 32 4 16-35 15-94c0-66 23-100 70-100zm9 24c-40 0-46 34-46 75 0 40 6 74 45 74 42 0 51-32 51-76 0-42-9-74-50-73" id="aX"/><g id="i"><use transform="matrix(0.05,0,0,0.05,0,0)" xlink:href="#aX"/><use transform="matrix(0.05,0,0,0.05,10,0)" xlink:href="#aR"/><use transform="matrix(0.05,0,0,0.05,20,0)" xlink:href="#aQ"/></g><path fill="#333" d="M114-163C36-179 61-72 57 0H25l-1-190h30c1 12-1 29 2 39 6-27 23-49 58-41v29" id="aY"/><path fill="#333" d="M101-234c-31-9-42 10-38 44h38v23H63V0H32v-167H5v-23h27c-7-52 17-82 69-68v24" id="aZ"/><g id="j"><use transform="matrix(0.05,0,0,0.05,0,0)" xlink:href="#aY"/><use transform="matrix(0.05,0,0,0.05,5.95,0)" xlink:href="#aV"/><use transform="matrix(0.05,0,0,0.05,9.9,0)" xlink:href="#aZ"/><use transform="matrix(0.05,0,0,0.05,14.9,0)" xlink:href="#aR"/><use transform="matrix(0.05,0,0,0.05,24.9,0)" xlink:href="#aQ"/></g><path fill="#333" d="M140-251c81 0 123 46 123 126C263-46 219 4 140 4 59 4 17-45 17-125s42-126 123-126zm0 227c63 0 89-41 89-101s-29-99-89-99c-61 0-89 39-89 99S79-25 140-24" id="ba"/><path fill="#333" d="M233-177c-1 41-23 64-60 70L243 0h-38l-65-103H63V0H30v-248c88 3 205-21 203 71zM63-129c60-2 137 13 137-47 0-61-80-42-137-45v92" id="bb"/><path fill="#333" d="M145-31C134-9 116 4 85 4 32 4 16-35 15-94c0-59 17-99 70-100 32-1 48 14 60 33 0-11-1-24 2-32h30l-1 268h-32zM93-21c41 0 51-33 51-76s-8-73-50-73c-40 0-46 35-46 75s5 74 45 74" id="bc"/><path fill="#333" d="M84 4C-5 8 30-112 23-190h32v120c0 31 7 50 39 49 72-2 45-101 50-169h31l1 190h-30c-1-10 1-25-2-33-11 22-28 36-60 37" id="bd"/><path fill="#333" d="M59-47c-2 24 18 29 38 22v24C64 9 27 4 27-40v-127H5v-23h24l9-43h21v43h35v23H59v120" id="be"/><path fill="#333" d="M87 75C49 33 22-17 22-94c0-76 28-126 65-167h31c-38 41-64 92-64 168S80 34 118 75H87" id="bf"/><path fill="#333" d="M33-261c38 41 65 92 65 168S71 34 33 75H2C39 34 66-17 66-93S39-220 2-261h31" id="bg"/><g id="k"><use transform="matrix(0.05,0,0,0.05,0,0)" xlink:href="#aQ"/><use transform="matrix(0.05,0,0,0.05,9,0)" xlink:href="#aP"/><use transform="matrix(0.05,0,0,0.05,19,0)" xlink:href="#aW"/><use transform="matrix(0.05,0,0,0.05,29,0)" xlink:href="#aX"/><use transform="matrix(0.05,0,0,0.05,39,0)" xlink:href="#ba"/><use transform="matrix(0.05,0,0,0.05,53,0)" xlink:href="#aS"/><use transform="matrix(0.05,0,0,0.05,63,0)" xlink:href="#aP"/><use transform="matrix(0.05,0,0,0.05,73,0)" xlink:href="#aW"/><use transform="matrix(0.05,0,0,0.05,83,0)" xlink:href="#bb"/><use transform="matrix(0.05,0,0,0.05,95.95,0)" xlink:href="#aV"/><use transform="matrix(0.05,0,0,0.05,99.9,0)" xlink:href="#aZ"/><use transform="matrix(0.05,0,0,0.05,104.9,0)" xlink:href="#aR"/><use transform="matrix(0.05,0,0,0.05,114.9,0)" xlink:href="#aQ"/><use transform="matrix(0.05,0,0,0.05,123.9,0)" xlink:href="#bb"/><use transform="matrix(0.05,0,0,0.05,136.85,0)" xlink:href="#aP"/><use transform="matrix(0.05,0,0,0.05,146.85,0)" xlink:href="#bc"/><use transform="matrix(0.05,0,0,0.05,156.85,0)" xlink:href="#bd"/><use transform="matrix(0.05,0,0,0.05,166.85,0)" xlink:href="#aP"/><use transform="matrix(0.05,0,0,0.05,176.85,0)" xlink:href="#aQ"/><use transform="matrix(0.05,0,0,0.05,185.85,0)" xlink:href="#be"/><use transform="matrix(0.05,0,0,0.05,190.85,0)" xlink:href="#bf"/><use transform="matrix(0.05,0,0,0.05,196.79999999999998,0)" xlink:href="#bg"/></g><path fill="#333" d="M100-194c62-1 85 37 85 99 1 63-27 99-86 99S16-35 15-95c0-66 28-99 85-99zM99-20c44 1 53-31 53-75 0-43-8-75-51-75s-53 32-53 75 10 74 51 75" id="bh"/><g id="m"><use transform="matrix(0.05,0,0,0.05,0,0)" xlink:href="#aS"/><use transform="matrix(0.05,0,0,0.05,10,0)" xlink:href="#bh"/><use transform="matrix(0.05,0,0,0.05,20,0)" xlink:href="#aQ"/><use transform="matrix(0.05,0,0,0.05,29,0)" xlink:href="#aQ"/><use transform="matrix(0.05,0,0,0.05,38,0)" xlink:href="#bd"/><use transform="matrix(0.05,0,0,0.05,48,0)" xlink:href="#aV"/></g><path fill="#333" d="M143 0L79-87 56-68V0H24v-261h32v163l83-92h37l-77 82L181 0h-38" id="bi"/><path fill="#333" d="M33-154v-36h34v36H33zM33 0v-36h34V0H33" id="bj"/><g id="n"><use transform="matrix(0.05,0,0,0.05,0,0)" xlink:href="#be"/><use transform="matrix(0.05,0,0,0.05,5,0)" xlink:href="#bh"/><use transform="matrix(0.05,0,0,0.05,15,0)" xlink:href="#bi"/><use transform="matrix(0.05,0,0,0.05,24,0)" xlink:href="#aP"/><use transform="matrix(0.05,0,0,0.05,34,0)" xlink:href="#aW"/><use transform="matrix(0.05,0,0,0.05,44,0)" xlink:href="#bj"/></g><path fill="#333" d="M108 0H70L1-190h34L89-25l56-165h34" id="bk"/><path fill="#333" d="M24 0v-261h32V0H24" id="bl"/><g id="o"><use transform="matrix(0.05,0,0,0.05,0,0)" xlink:href="#bk"/><use transform="matrix(0.05,0,0,0.05,9,0)" xlink:href="#aR"/><use transform="matrix(0.05,0,0,0.05,19,0)" xlink:href="#bl"/><use transform="matrix(0.05,0,0,0.05,22.95,0)" xlink:href="#aV"/><use transform="matrix(0.05,0,0,0.05,26.899999999999995,0)" xlink:href="#aX"/><use transform="matrix(0.05,0,0,0.05,36.9,0)" xlink:href="#aR"/><use transform="matrix(0.05,0,0,0.05,46.9,0)" xlink:href="#be"/><use transform="matrix(0.05,0,0,0.05,51.900000000000006,0)" xlink:href="#aP"/><use transform="matrix(0.05,0,0,0.05,61.900000000000006,0)" xlink:href="#bb"/><use transform="matrix(0.05,0,0,0.05,74.85,0)" xlink:href="#aP"/><use transform="matrix(0.05,0,0,0.05,84.85,0)" xlink:href="#bc"/><use transform="matrix(0.05,0,0,0.05,94.85,0)" xlink:href="#bd"/><use transform="matrix(0.05,0,0,0.05,104.84999999999998,0)" xlink:href="#aP"/><use transform="matrix(0.05,0,0,0.05,114.84999999999998,0)" xlink:href="#aQ"/><use transform="matrix(0.05,0,0,0.05,123.84999999999998,0)" xlink:href="#be"/><use transform="matrix(0.05,0,0,0.05,128.85,0)" xlink:href="#bf"/><use transform="matrix(0.05,0,0,0.05,134.79999999999998,0)" xlink:href="#bg"/></g><g id="p"><use transform="matrix(0.05,0,0,0.05,0,0)" xlink:href="#aN"/><use transform="matrix(0.05,0,0,0.05,12,0)" xlink:href="#bl"/><use transform="matrix(0.05,0,0,0.05,15.949999999999998,0)" xlink:href="#aP"/><use transform="matrix(0.05,0,0,0.05,25.950000000000003,0)" xlink:href="#aY"/><use transform="matrix(0.05,0,0,0.05,31.899999999999995,0)" xlink:href="#be"/><use transform="matrix(0.05,0,0,0.05,36.9,0)" xlink:href="#aR"/></g><g id="q"><use transform="matrix(0.05,0,0,0.05,0,0)" xlink:href="#aX"/><use transform="matrix(0.05,0,0,0.05,10,0)" xlink:href="#aP"/></g><path fill="#333" d="M16-82v-28h88v28H16" id="bm"/><path fill="#333" d="M210-169c-67 3-38 105-44 169h-31v-121c0-29-5-50-35-48C34-165 62-65 56 0H25l-1-190h30c1 10-1 24 2 32 10-44 99-50 107 0 11-21 27-35 58-36 85-2 47 119 55 194h-31v-121c0-29-5-49-35-48" id="bn"/><g id="r"><use transform="matrix(0.05,0,0,0.05,0,0)" xlink:href="#aP"/><use transform="matrix(0.05,0,0,0.05,10,0)" xlink:href="#bm"/><use transform="matrix(0.05,0,0,0.05,15.949999999999998,0)" xlink:href="#bn"/><use transform="matrix(0.05,0,0,0.05,30.899999999999995,0)" xlink:href="#aR"/><use transform="matrix(0.05,0,0,0.05,40.9,0)" xlink:href="#aV"/><use transform="matrix(0.05,0,0,0.05,44.85,0)" xlink:href="#bl"/></g><g id="s"><use transform="matrix(0.05,0,0,0.05,0,0)" xlink:href="#aO"/><use transform="matrix(0.05,0,0,0.05,9,0)" xlink:href="#bh"/><use transform="matrix(0.05,0,0,0.05,19,0)" xlink:href="#aW"/><use transform="matrix(0.05,0,0,0.05,29,0)" xlink:href="#aZ"/><use transform="matrix(0.05,0,0,0.05,34,0)" xlink:href="#aV"/><use transform="matrix(0.05,0,0,0.05,37.95,0)" xlink:href="#aY"/><use transform="matrix(0.05,0,0,0.05,43.900000000000006,0)" xlink:href="#bn"/><use transform="matrix(0.05,0,0,0.05,58.85,0)" xlink:href="#aR"/><use transform="matrix(0.05,0,0,0.05,68.85000000000001,0)" xlink:href="#aO"/><use transform="matrix(0.05,0,0,0.05,77.85000000000001,0)" xlink:href="#aR"/><use transform="matrix(0.05,0,0,0.05,87.85000000000001,0)" xlink:href="#bh"/><use transform="matrix(0.05,0,0,0.05,97.85000000000001,0)" xlink:href="#aX"/><use transform="matrix(0.05,0,0,0.05,107.85000000000001,0)" xlink:href="#aP"/></g><g id="t"><use transform="matrix(0.05,0,0,0.05,0,0)" xlink:href="#aO"/><use transform="matrix(0.05,0,0,0.05,9,0)" xlink:href="#aR"/><use transform="matrix(0.05,0,0,0.05,19,0)" xlink:href="#aX"/><use transform="matrix(0.05,0,0,0.05,29,0)" xlink:href="#aR"/><use transform="matrix(0.05,0,0,0.05,39,0)" xlink:href="#aQ"/><use transform="matrix(0.05,0,0,0.05,48,0)" xlink:href="#be"/><use transform="matrix(0.05,0,0,0.05,53,0)" xlink:href="#aY"/><use transform="matrix(0.05,0,0,0.05,58.95,0)" xlink:href="#bh"/></g><g id="u"><use transform="matrix(0.05,0,0,0.05,0,0)" xlink:href="#aS"/><use transform="matrix(0.05,0,0,0.05,10,0)" xlink:href="#bh"/><use transform="matrix(0.05,0,0,0.05,20,0)" xlink:href="#aY"/></g><g id="v"><use transform="matrix(0.05,0,0,0.05,0,0)" xlink:href="#aP"/><use transform="matrix(0.05,0,0,0.05,10,0)" xlink:href="#bn"/><use transform="matrix(0.05,0,0,0.05,24.950000000000003,0)" xlink:href="#aR"/><use transform="matrix(0.05,0,0,0.05,34.95,0)" xlink:href="#aV"/><use transform="matrix(0.05,0,0,0.05,38.900000000000006,0)" xlink:href="#bl"/></g><g id="w"><use transform="matrix(0.04938271604938272,0,0,0.04938271604938272,0,0)" xlink:href="#bb"/><use transform="matrix(0.04938271604938272,0,0,0.04938271604938272,12.790123456790125,0)" xlink:href="#aP"/><use transform="matrix(0.04938271604938272,0,0,0.04938271604938272,22.66666666666667,0)" xlink:href="#aR"/><use transform="matrix(0.04938271604938272,0,0,0.04938271604938272,32.543209876543216,0)" xlink:href="#aO"/><use transform="matrix(0.04938271604938272,0,0,0.04938271604938272,41.4320987654321,0)" xlink:href="#be"/></g><path fill="#333" d="M206 0h-36l-40-164L89 0H53L-1-190h32L70-26l43-164h34l41 164 42-164h31" id="bo"/><path fill="#333" d="M115-194c53 0 69 39 70 98 0 66-23 100-70 100C84 3 66-7 56-30L54 0H23l1-261h32v101c10-23 28-34 59-34zm-8 174c40 0 45-34 45-75 0-40-5-75-45-74-42 0-51 32-51 76 0 43 10 73 51 73" id="bp"/><g id="x"><use transform="matrix(0.04938271604938272,0,0,0.04938271604938272,0,0)" xlink:href="#bo"/><use transform="matrix(0.04938271604938272,0,0,0.04938271604938272,12.790123456790125,0)" xlink:href="#aP"/><use transform="matrix(0.04938271604938272,0,0,0.04938271604938272,22.66666666666667,0)" xlink:href="#bp"/></g><g id="y"><use transform="matrix(0.04938271604938272,0,0,0.04938271604938272,0,0)" xlink:href="#aR"/><use transform="matrix(0.04938271604938272,0,0,0.04938271604938272,9.876543209876544,0)" xlink:href="#aS"/><use transform="matrix(0.04938271604938272,0,0,0.04938271604938272,19.75308641975309,0)" xlink:href="#aS"/></g><path fill="#333" d="M185-189c-5-48-123-54-124 2 14 75 158 14 163 119 3 78-121 87-175 55-17-10-28-26-33-46l33-7c5 56 141 63 141-1 0-78-155-14-162-118-5-82 145-84 179-34 5 7 8 16 11 25" id="bq"/><g id="z"><use transform="matrix(0.04938271604938272,0,0,0.04938271604938272,0,0)" xlink:href="#bq"/><use transform="matrix(0.04938271604938272,0,0,0.04938271604938272,11.851851851851853,0)" xlink:href="#aS"/><use transform="matrix(0.04938271604938272,0,0,0.04938271604938272,21.7283950617284,0)" xlink:href="#aY"/><use transform="matrix(0.04938271604938272,0,0,0.04938271604938272,27.604938271604947,0)" xlink:href="#aV"/><use transform="matrix(0.04938271604938272,0,0,0.04938271604938272,31.506172839506174,0)" xlink:href="#aW"/><use transform="matrix(0.04938271604938272,0,0,0.04938271604938272,41.38271604938272,0)" xlink:href="#aU"/></g><path fill="#333" d="M160-131c35 5 61 23 61 61C221 17 115-2 30 0v-248c76 3 177-17 177 60 0 33-19 50-47 57zm-97-11c50-1 110 9 110-42 0-47-63-36-110-37v79zm0 115c55-2 124 14 124-45 0-56-70-42-124-44v89" id="br"/><g id="A"><use transform="matrix(0.04938271604938272,0,0,0.04938271604938272,0,0)" xlink:href="#br"/><use transform="matrix(0.04938271604938272,0,0,0.04938271604938272,11.851851851851853,0)" xlink:href="#bh"/><use transform="matrix(0.04938271604938272,0,0,0.04938271604938272,21.7283950617284,0)" xlink:href="#bh"/><use transform="matrix(0.04938271604938272,0,0,0.04938271604938272,31.60493827160494,0)" xlink:href="#be"/></g><g id="B"><use transform="matrix(0.04938271604938272,0,0,0.04938271604938272,0,0)" xlink:href="#bq"/><use transform="matrix(0.04938271604938272,0,0,0.04938271604938272,11.851851851851853,0)" xlink:href="#aP"/><use transform="matrix(0.04938271604938272,0,0,0.04938271604938272,21.7283950617284,0)" xlink:href="#aY"/><use transform="matrix(0.04938271604938272,0,0,0.04938271604938272,27.604938271604947,0)" xlink:href="#bk"/><use transform="matrix(0.04938271604938272,0,0,0.04938271604938272,36.49382716049384,0)" xlink:href="#aP"/><use transform="matrix(0.04938271604938272,0,0,0.04938271604938272,46.37037037037038,0)" xlink:href="#aY"/></g><path fill="#b2b2b2" d="M24-248c120-7 223 5 221 122C244-46 201 0 124 0H24v-248zM76-40c74 7 117-18 117-86 0-67-45-88-117-82v168" id="bs"/><path fill="#b2b2b2" d="M25-224v-37h50v37H25zM25 0v-190h50V0H25" id="bt"/><path fill="#b2b2b2" d="M133-34C117-15 103 5 69 4 32 3 11-16 11-54c-1-60 55-63 116-61 1-26-3-47-28-47-18 1-26 9-28 27l-52-2c7-38 36-58 82-57s74 22 75 68l1 82c-1 14 12 18 25 15v27c-30 8-71 5-69-32zm-48 3c29 0 43-24 42-57-32 0-66-3-65 30 0 17 8 27 23 27" id="bu"/><path fill="#b2b2b2" d="M195-6C206 82 75 100 31 46c-4-6-6-13-8-21l49-6c3 16 16 24 34 25 40 0 42-37 40-79-11 22-30 35-61 35-53 0-70-43-70-97 0-56 18-96 73-97 30 0 46 14 59 34l2-30h47zm-90-29c32 0 41-27 41-63 0-35-9-62-40-62-32 0-39 29-40 63 0 36 9 62 39 62" id="bv"/><path fill="#b2b2b2" d="M135-150c-39-12-60 13-60 57V0H25l-1-190h47c2 13-1 29 3 40 6-28 27-53 61-41v41" id="bw"/><path fill="#b2b2b2" d="M220-157c-53 9-28 100-34 157h-49v-107c1-27-5-49-29-50C55-147 81-57 75 0H25l-1-190h47c2 12-1 28 3 38 10-53 101-56 108 0 13-22 24-43 59-42 82 1 51 116 57 194h-49v-107c-1-25-5-48-29-50" id="bx"/><g id="C"><use transform="matrix(0.07636502481863307,0,0,0.07636502481863307,0,0)" xlink:href="#bs"/><use transform="matrix(0.07636502481863307,0,0,0.07636502481863307,19.778541428025964,0)" xlink:href="#bt"/><use transform="matrix(0.07636502481863307,0,0,0.07636502481863307,27.41504390988927,0)" xlink:href="#bu"/><use transform="matrix(0.07636502481863307,0,0,0.07636502481863307,42.688048873615884,0)" xlink:href="#bv"/><use transform="matrix(0.07636502481863307,0,0,0.07636502481863307,59.41198930889653,0)" xlink:href="#bw"/><use transform="matrix(0.07636502481863307,0,0,0.07636502481863307,70.10309278350515,0)" xlink:href="#bu"/><use transform="matrix(0.07636502481863307,0,0,0.07636502481863307,85.37609774723177,0)" xlink:href="#bx"/><use transform="matrix(0.07636502481863307,0,0,0.07636502481863307,109.81290568919435,0)" xlink:href="#bu"/></g><path fill="#b2b2b2" d="M88-194c31-1 46 15 58 34l-1-101h50l1 261h-48c-2-10 0-23-3-31C134-8 116 4 84 4 32 4 16-41 15-95c0-56 19-97 73-99zm17 164c33 0 40-30 41-66 1-37-9-64-41-64s-38 30-39 65c0 43 13 65 39 65" id="by"/><path fill="#b2b2b2" d="M185-48c-13 30-37 53-82 52C43 2 14-33 14-96s30-98 90-98c62 0 83 45 84 108H66c0 31 8 55 39 56 18 0 30-7 34-22zm-45-69c5-46-57-63-70-21-2 6-4 13-4 21h74" id="bz"/><g id="D"><use transform="matrix(0.07636502481863307,0,0,0.07636502481863307,0,0)" xlink:href="#by"/><use transform="matrix(0.07636502481863307,0,0,0.07636502481863307,16.723940435280642,0)" xlink:href="#bz"/></g><path fill="#b2b2b2" d="M137-138c1-29-70-34-71-4 15 46 118 7 119 86 1 83-164 76-172 9l43-7c4 19 20 25 44 25 33 8 57-30 24-41C81-84 22-81 20-136c-2-80 154-74 161-7" id="bA"/><path fill="#b2b2b2" d="M84 4C32 4 15-41 15-95c0-55 18-99 73-99 29 0 47 12 58 34l2-30h48l-1 265h-49V-32C136-9 114 4 84 4zm21-34c32 0 41-29 41-66 0-36-9-64-40-64-33 0-39 30-40 65 0 43 13 65 39 65" id="bB"/><path fill="#b2b2b2" d="M85 4C-2 5 27-109 22-190h50c7 57-23 150 33 157 60-5 35-97 40-157h50l1 190h-47c-2-12 1-28-3-38-12 25-28 42-61 42" id="bC"/><path fill="#b2b2b2" d="M185-48c-13 30-37 53-82 52C43 2 14-33 14-96s30-98 90-98c62 0 83 45 84 108H66c0 31 8 55 39 56 18 0 30-7 34-22zm-45-69c5-46-57-63-70-21-2 6-4 13-4 21h74zm29-96v5h-28c-13-11-23-24-37-34l-37 34H39c9-26 32-39 45-61h41" id="bD"/><path fill="#b2b2b2" d="M135-194c87-1 58 113 63 194h-50c-7-57 23-157-34-157-59 0-34 97-39 157H25l-1-190h47c2 12-1 28 3 38 12-26 28-41 61-42" id="bE"/><path fill="#b2b2b2" d="M190-63c-7 42-38 67-86 67-59 0-84-38-90-98-12-110 154-137 174-36l-49 2c-2-19-15-32-35-32-30 0-35 28-38 64-6 74 65 87 74 30" id="bF"/><g id="E"><use transform="matrix(0.07636502481863307,0,0,0.07636502481863307,0,0)" xlink:href="#bA"/><use transform="matrix(0.07636502481863307,0,0,0.07636502481863307,15.273004963726613,0)" xlink:href="#bz"/><use transform="matrix(0.07636502481863307,0,0,0.07636502481863307,30.546009927453227,0)" xlink:href="#bB"/><use transform="matrix(0.07636502481863307,0,0,0.07636502481863307,47.269950362733866,0)" xlink:href="#bC"/><use transform="matrix(0.07636502481863307,0,0,0.07636502481863307,63.993890798014505,0)" xlink:href="#bD"/><use transform="matrix(0.07636502481863307,0,0,0.07636502481863307,79.26689576174113,0)" xlink:href="#bE"/><use transform="matrix(0.07636502481863307,0,0,0.07636502481863307,95.99083619702176,0)" xlink:href="#bF"/><use transform="matrix(0.07636502481863307,0,0,0.07636502481863307,111.26384116074836,0)" xlink:href="#bt"/><use transform="matrix(0.07636502481863307,0,0,0.07636502481863307,118.90034364261167,0)" xlink:href="#bu"/></g><path fill="#b2b2b2" d="M110-194c64 0 96 36 96 99 0 64-35 99-97 99-61 0-95-36-95-99 0-62 34-99 96-99zm-1 164c35 0 45-28 45-65 0-40-10-65-43-65-34 0-45 26-45 65 0 36 10 65 43 65" id="bG"/><g id="F"><use transform="matrix(0.07636502481863307,0,0,0.07636502481863307,0,0)" xlink:href="#by"/><use transform="matrix(0.07636502481863307,0,0,0.07636502481863307,16.723940435280642,0)" xlink:href="#bG"/></g><path fill="#b2b2b2" d="M135-194c53 0 70 44 70 98 0 56-19 98-73 100-31 1-45-17-59-34 3 33 2 69 2 105H25l-1-265h48c2 10 0 23 3 31 11-24 29-35 60-35zM114-30c33 0 39-31 40-66 0-38-9-64-40-64-56 0-55 130 0 130" id="bH"/><g id="G"><use transform="matrix(0.07636502481863307,0,0,0.07636502481863307,0,0)" xlink:href="#bF"/><use transform="matrix(0.07636502481863307,0,0,0.07636502481863307,15.273004963726613,0)" xlink:href="#bG"/><use transform="matrix(0.07636502481863307,0,0,0.07636502481863307,31.996945399007256,0)" xlink:href="#bx"/><use transform="matrix(0.07636502481863307,0,0,0.07636502481863307,56.43375334096984,0)" xlink:href="#bH"/><use transform="matrix(0.07636502481863307,0,0,0.07636502481863307,73.15769377625048,0)" xlink:href="#bw"/><use transform="matrix(0.07636502481863307,0,0,0.07636502481863307,83.8487972508591,0)" xlink:href="#bu"/><use transform="matrix(0.07636502481863307,0,0,0.07636502481863307,99.12180221458573,0)" xlink:href="#by"/><use transform="matrix(0.07636502481863307,0,0,0.07636502481863307,115.84574264986637,0)" xlink:href="#bG"/><use transform="matrix(0.07636502481863307,0,0,0.07636502481863307,132.569683085147,0)" xlink:href="#bw"/></g><g id="H"><use transform="matrix(0.07636502481863307,0,0,0.07636502481863307,0,0)" xlink:href="#by"/><use transform="matrix(0.07636502481863307,0,0,0.07636502481863307,16.723940435280642,0)" xlink:href="#bu"/></g><path fill="#b2b2b2" d="M121-226c-27-7-43 5-38 36h38v33H83V0H34v-157H6v-33h28c-9-59 32-81 87-68v32" id="bI"/><g id="I"><use transform="matrix(0.07636502481863307,0,0,0.07636502481863307,0,0)" xlink:href="#bw"/><use transform="matrix(0.07636502481863307,0,0,0.07636502481863307,10.69110347460863,0)" xlink:href="#bt"/><use transform="matrix(0.07636502481863307,0,0,0.07636502481863307,18.327605956471935,0)" xlink:href="#bI"/><use transform="matrix(0.07636502481863307,0,0,0.07636502481863307,27.41504390988927,0)" xlink:href="#bu"/></g><path fill="#b2b2b2" d="M205 0l-28-72H64L36 0H1l101-248h38L239 0h-34zm-38-99l-47-123c-12 45-31 82-46 123h93" id="bJ"/><path fill="#b2b2b2" d="M117-194c89-4 53 116 60 194h-32v-121c0-31-8-49-39-48C34-167 62-67 57 0H25l-1-190h30c1 10-1 24 2 32 11-22 29-35 61-36" id="bK"/><path fill="#b2b2b2" d="M85-194c31 0 48 13 60 33l-1-100h32l1 261h-30c-2-10 0-23-3-31C134-8 116 4 85 4 32 4 16-35 15-94c0-66 23-100 70-100zm9 24c-40 0-46 34-46 75 0 40 6 74 45 74 42 0 51-32 51-76 0-42-9-74-50-73" id="bL"/><path fill="#b2b2b2" d="M114-163C36-179 61-72 57 0H25l-1-190h30c1 12-1 29 2 39 6-27 23-49 58-41v29" id="bM"/><path fill="#b2b2b2" d="M100-194c63 0 86 42 84 106H49c0 40 14 67 53 68 26 1 43-12 49-29l28 8c-11 28-37 45-77 45C44 4 14-33 15-96c1-61 26-98 85-98zm52 81c6-60-76-77-97-28-3 7-6 17-6 28h103zm-74-98c8-23 27-35 38-54h36v5l-58 49H78" id="bN"/><g id="J"><use transform="matrix(0.04248971193415638,0,0,0.04248971193415638,0,0)" xlink:href="#bJ"/><use transform="matrix(0.04248971193415638,0,0,0.04248971193415638,10.19753086419753,0)" xlink:href="#bK"/><use transform="matrix(0.04248971193415638,0,0,0.04248971193415638,18.695473251028805,0)" xlink:href="#bL"/><use transform="matrix(0.04248971193415638,0,0,0.04248971193415638,27.193415637860078,0)" xlink:href="#bM"/><use transform="matrix(0.04248971193415638,0,0,0.04248971193415638,32.249691358024684,0)" xlink:href="#bN"/></g><path fill="#b2b2b2" d="M24 0v-261h32V0H24" id="bO"/><path fill="#b2b2b2" d="M108 0H70L1-190h34L89-25l56-165h34" id="bP"/><path fill="#b2b2b2" d="M100-194c63 0 86 42 84 106H49c0 40 14 67 53 68 26 1 43-12 49-29l28 8c-11 28-37 45-77 45C44 4 14-33 15-96c1-61 26-98 85-98zm52 81c6-60-76-77-97-28-3 7-6 17-6 28h103" id="bQ"/><path fill="#b2b2b2" d="M135-143c-3-34-86-38-87 0 15 53 115 12 119 90S17 21 10-45l28-5c4 36 97 45 98 0-10-56-113-15-118-90-4-57 82-63 122-42 12 7 21 19 24 35" id="bR"/><g id="K"><use transform="matrix(0.04248971193415638,0,0,0.04248971193415638,0,0)" xlink:href="#bJ"/><use transform="matrix(0.04248971193415638,0,0,0.04248971193415638,10.19753086419753,0)" xlink:href="#bO"/><use transform="matrix(0.04248971193415638,0,0,0.04248971193415638,13.554218106995881,0)" xlink:href="#bP"/><use transform="matrix(0.04248971193415638,0,0,0.04248971193415638,21.20236625514403,0)" xlink:href="#bQ"/><use transform="matrix(0.04248971193415638,0,0,0.04248971193415638,29.7003086419753,0)" xlink:href="#bR"/></g><path fill="#b2b2b2" d="M32 76v-337h29V76H32" id="bS"/><use transform="matrix(0.04248971193415638,0,0,0.04248971193415638,0,0)" xlink:href="#bS" id="L"/><path fill="#b2b2b2" d="M30-248c118-7 216 8 213 122C240-48 200 0 122 0H30v-248zM63-27c89 8 146-16 146-99s-60-101-146-95v194" id="bT"/><path fill="#b2b2b2" d="M96-169c-40 0-48 33-48 73s9 75 48 75c24 0 41-14 43-38l32 2c-6 37-31 61-74 61-59 0-76-41-82-99-10-93 101-131 147-64 4 7 5 14 7 22l-32 3c-4-21-16-35-41-35" id="bU"/><path fill="#b2b2b2" d="M210-169c-67 3-38 105-44 169h-31v-121c0-29-5-50-35-48C34-165 62-65 56 0H25l-1-190h30c1 10-1 24 2 32 10-44 99-50 107 0 11-21 27-35 58-36 85-2 47 119 55 194h-31v-121c0-29-5-49-35-48" id="bV"/><path fill="#b2b2b2" d="M115-194c53 0 69 39 70 98 0 66-23 100-70 100C84 3 66-7 56-30L54 0H23l1-261h32v101c10-23 28-34 59-34zm-8 174c40 0 45-34 45-75 0-40-5-75-45-74-42 0-51 32-51 76 0 43 10 73 51 73" id="bW"/><g id="M"><use transform="matrix(0.04248971193415638,0,0,0.04248971193415638,0,0)" xlink:href="#bT"/><use transform="matrix(0.04248971193415638,0,0,0.04248971193415638,11.004835390946502,0)" xlink:href="#bQ"/><use transform="matrix(0.04248971193415638,0,0,0.04248971193415638,19.502777777777776,0)" xlink:href="#bU"/><use transform="matrix(0.04248971193415638,0,0,0.04248971193415638,27.150925925925925,0)" xlink:href="#bQ"/><use transform="matrix(0.04248971193415638,0,0,0.04248971193415638,35.6488683127572,0)" xlink:href="#bV"/><use transform="matrix(0.04248971193415638,0,0,0.04248971193415638,48.35329218106995,0)" xlink:href="#bW"/><use transform="matrix(0.04248971193415638,0,0,0.04248971193415638,56.851234567901244,0)" xlink:href="#bQ"/><use transform="matrix(0.04248971193415638,0,0,0.04248971193415638,65.34917695473251,0)" xlink:href="#bM"/></g><path fill="#b2b2b2" d="M54-142c48-35 137-8 131 61C196 18 31 33 14-55l32-4c7 23 22 37 52 37 35-1 51-22 54-58 4-55-73-65-99-34H22l8-134h141v27H59" id="bX"/><path fill="#b2b2b2" d="M68-38c1 34 0 65-14 84H32c9-13 17-26 17-46H33v-38h35" id="bY"/><g id="N"><use transform="matrix(0.04248971193415638,0,0,0.04248971193415638,0,0)" xlink:href="#bX"/><use transform="matrix(0.04248971193415638,0,0,0.04248971193415638,8.497942386831275,0)" xlink:href="#bY"/></g><path fill="#b2b2b2" d="M101-251c82-7 93 87 43 132L82-64C71-53 59-42 53-27h129V0H18c2-99 128-94 128-182 0-28-16-43-45-43s-46 15-49 41l-32-3c6-41 34-60 81-64" id="bZ"/><path fill="#b2b2b2" d="M101-251c68 0 85 55 85 127S166 4 100 4C33 4 14-52 14-124c0-73 17-127 87-127zm-1 229c47 0 54-49 54-102s-4-102-53-102c-51 0-55 48-55 102 0 53 5 102 54 102" id="ca"/><g id="O"><use transform="matrix(0.04248971193415638,0,0,0.04248971193415638,0,0)" xlink:href="#bZ"/><use transform="matrix(0.04248971193415638,0,0,0.04248971193415638,8.497942386831275,0)" xlink:href="#ca"/><use transform="matrix(0.04248971193415638,0,0,0.04248971193415638,16.99588477366255,0)" xlink:href="#bZ"/><use transform="matrix(0.04248971193415638,0,0,0.04248971193415638,25.493827160493822,0)" xlink:href="#bZ"/></g><path fill="#333" d="M238-95c0 69-44 99-111 99C63 4 22-25 22-93v-155h51v151c-1 38 19 59 55 60 90 1 49-130 58-211h52v153" id="cb"/><path fill="#333" d="M137-138c1-29-70-34-71-4 15 46 118 7 119 86 1 83-164 76-172 9l43-7c4 19 20 25 44 25 33 8 57-30 24-41C81-84 22-81 20-136c-2-80 154-74 161-7" id="cc"/><path fill="#333" d="M85 4C-2 5 27-109 22-190h50c7 57-23 150 33 157 60-5 35-97 40-157h50l1 190h-47c-2-12 1-28-3-38-12 25-28 42-61 42" id="cd"/><path fill="#333" d="M132-34C116-15 102 5 68 4 31 3 10-16 10-54c-1-60 55-63 116-61 1-26-3-47-28-47-18 1-26 9-28 27l-52-2c7-38 36-58 82-57s74 22 75 68l1 82c-1 14 12 18 25 15v27c-30 8-71 5-69-32zm-48 3c29 0 43-24 42-57-32 0-66-3-65 30 0 17 8 27 23 27zM66-208v-5l45-51h45v8l-60 48H66" id="ce"/><path fill="#333" d="M135-150c-39-12-60 13-60 57V0H25l-1-190h47c2 13-1 29 3 40 6-28 27-53 61-41v41" id="cf"/><path fill="#333" d="M25-224v-37h50v37H25zM25 0v-190h50V0H25" id="cg"/><path fill="#333" d="M110-194c64 0 96 36 96 99 0 64-35 99-97 99-61 0-95-36-95-99 0-62 34-99 96-99zm-1 164c35 0 45-28 45-65 0-40-10-65-43-65-34 0-45 26-45 65 0 36 10 65 43 65" id="ch"/><g id="P"><use transform="matrix(0.05,0,0,0.05,0,0)" xlink:href="#cb"/><use transform="matrix(0.05,0,0,0.05,12.950000000000001,0)" xlink:href="#cc"/><use transform="matrix(0.05,0,0,0.05,22.950000000000003,0)" xlink:href="#cd"/><use transform="matrix(0.05,0,0,0.05,33.900000000000006,0)" xlink:href="#ce"/><use transform="matrix(0.05,0,0,0.05,43.900000000000006,0)" xlink:href="#cf"/><use transform="matrix(0.05,0,0,0.05,50.900000000000006,0)" xlink:href="#cg"/><use transform="matrix(0.05,0,0,0.05,55.900000000000006,0)" xlink:href="#ch"/></g><g id="Q"><use transform="matrix(0.05,0,0,0.05,0,0)" xlink:href="#bp"/><use transform="matrix(0.05,0,0,0.05,10,0)" xlink:href="#aR"/><use transform="matrix(0.05,0,0,0.05,20,0)" xlink:href="#aW"/><use transform="matrix(0.05,0,0,0.05,30,0)" xlink:href="#aO"/><use transform="matrix(0.05,0,0,0.05,39,0)" xlink:href="#bh"/></g><g id="R"><use transform="matrix(0.05,0,0,0.05,0,0)" xlink:href="#aX"/><use transform="matrix(0.05,0,0,0.05,10,0)" xlink:href="#aP"/></g><g id="S"><use transform="matrix(0.05,0,0,0.05,0,0)" xlink:href="#aX"/><use transform="matrix(0.05,0,0,0.05,10,0)" xlink:href="#aR"/><use transform="matrix(0.05,0,0,0.05,20,0)" xlink:href="#aX"/><use transform="matrix(0.05,0,0,0.05,30,0)" xlink:href="#bh"/><use transform="matrix(0.05,0,0,0.05,40,0)" xlink:href="#aQ"/></g><g id="T"><use transform="matrix(0.05,0,0,0.05,0,0)" xlink:href="#aU"/><use transform="matrix(0.05,0,0,0.05,10,0)" xlink:href="#aP"/><use transform="matrix(0.05,0,0,0.05,20,0)" xlink:href="#be"/><use transform="matrix(0.05,0,0,0.05,25,0)" xlink:href="#ba"/><use transform="matrix(0.05,0,0,0.05,39,0)" xlink:href="#aS"/><use transform="matrix(0.05,0,0,0.05,49,0)" xlink:href="#aP"/><use transform="matrix(0.05,0,0,0.05,59,0)" xlink:href="#aW"/><use transform="matrix(0.05,0,0,0.05,69,0)" xlink:href="#bb"/><use transform="matrix(0.05,0,0,0.05,81.95,0)" xlink:href="#aV"/><use transform="matrix(0.05,0,0,0.05,85.9,0)" xlink:href="#aZ"/><use transform="matrix(0.05,0,0,0.05,90.9,0)" xlink:href="#aR"/><use transform="matrix(0.05,0,0,0.05,100.9,0)" xlink:href="#aQ"/><use transform="matrix(0.05,0,0,0.05,109.9,0)" xlink:href="#bf"/><use transform="matrix(0.05,0,0,0.05,115.85000000000001,0)" xlink:href="#bg"/></g><g id="U"><use transform="matrix(0.05,0,0,0.05,0,0)" xlink:href="#bl"/><use transform="matrix(0.05,0,0,0.05,3.95,0)" xlink:href="#aV"/><use transform="matrix(0.05,0,0,0.05,7.9,0)" xlink:href="#aQ"/><use transform="matrix(0.05,0,0,0.05,16.9,0)" xlink:href="#be"/><use transform="matrix(0.05,0,0,0.05,21.9,0)" xlink:href="#aR"/></g><g id="V"><use transform="matrix(0.05,0,0,0.05,0,0)" xlink:href="#aY"/><use transform="matrix(0.05,0,0,0.05,5.95,0)" xlink:href="#aV"/><use transform="matrix(0.05,0,0,0.05,9.9,0)" xlink:href="#aZ"/><use transform="matrix(0.05,0,0,0.05,14.9,0)" xlink:href="#aR"/><use transform="matrix(0.05,0,0,0.05,24.9,0)" xlink:href="#aQ"/></g><g id="W"><use transform="matrix(0.05,0,0,0.05,0,0)" xlink:href="#aR"/><use transform="matrix(0.05,0,0,0.05,10,0)" xlink:href="#bp"/><use transform="matrix(0.05,0,0,0.05,20,0)" xlink:href="#aP"/><use transform="matrix(0.05,0,0,0.05,30,0)" xlink:href="#aY"/><use transform="matrix(0.05,0,0,0.05,35.95,0)" xlink:href="#be"/><use transform="matrix(0.05,0,0,0.05,40.95,0)" xlink:href="#aR"/><use transform="matrix(0.05,0,0,0.05,50.95,0)" xlink:href="#aQ"/></g><g id="X"><use transform="matrix(0.05,0,0,0.05,0,0)" xlink:href="#aY"/><use transform="matrix(0.05,0,0,0.05,5.95,0)" xlink:href="#aV"/><use transform="matrix(0.05,0,0,0.05,9.9,0)" xlink:href="#aZ"/><use transform="matrix(0.05,0,0,0.05,14.9,0)" xlink:href="#aR"/><use transform="matrix(0.05,0,0,0.05,24.9,0)" xlink:href="#aQ"/></g><g id="Y"><use transform="matrix(0.05,0,0,0.05,0,0)" xlink:href="#aR"/><use transform="matrix(0.05,0,0,0.05,10,0)" xlink:href="#bp"/><use transform="matrix(0.05,0,0,0.05,20,0)" xlink:href="#aP"/><use transform="matrix(0.05,0,0,0.05,30,0)" xlink:href="#aY"/><use transform="matrix(0.05,0,0,0.05,35.95,0)" xlink:href="#be"/><use transform="matrix(0.05,0,0,0.05,40.95,0)" xlink:href="#aR"/><use transform="matrix(0.05,0,0,0.05,50.95,0)" xlink:href="#aQ"/></g><path fill="#333" d="M24-231v-30h32v30H24zM-9 49c24 4 33-6 33-30v-209h32V24c2 40-23 58-65 49V49" id="ci"/><g id="Z"><use transform="matrix(0.05,0,0,0.05,0,0)" xlink:href="#bf"/><use transform="matrix(0.05,0,0,0.05,5.95,0)" xlink:href="#ci"/><use transform="matrix(0.05,0,0,0.05,9.9,0)" xlink:href="#aQ"/><use transform="matrix(0.05,0,0,0.05,18.9,0)" xlink:href="#bh"/><use transform="matrix(0.05,0,0,0.05,28.899999999999995,0)" xlink:href="#aW"/><use transform="matrix(0.05,0,0,0.05,38.9,0)" xlink:href="#bg"/></g><g id="aa"><use transform="matrix(0.05,0,0,0.05,0,0)" xlink:href="#aR"/><use transform="matrix(0.05,0,0,0.05,10,0)" xlink:href="#aS"/><use transform="matrix(0.05,0,0,0.05,20,0)" xlink:href="#aY"/><use transform="matrix(0.05,0,0,0.05,25.950000000000003,0)" xlink:href="#aP"/><use transform="matrix(0.05,0,0,0.05,35.95,0)" xlink:href="#aQ"/><use transform="matrix(0.05,0,0,0.05,44.95,0)" xlink:href="#aP"/><use transform="matrix(0.05,0,0,0.05,54.95,0)" xlink:href="#aW"/><use transform="matrix(0.05,0,0,0.05,64.95,0)" xlink:href="#be"/><use transform="matrix(0.05,0,0,0.05,69.95,0)" xlink:href="#aR"/></g><g id="ab"><use transform="matrix(0.05,0,0,0.05,0,0)" xlink:href="#bl"/><use transform="matrix(0.05,0,0,0.05,3.95,0)" xlink:href="#aV"/><use transform="matrix(0.05,0,0,0.05,7.9,0)" xlink:href="#aQ"/><use transform="matrix(0.05,0,0,0.05,16.9,0)" xlink:href="#be"/><use transform="matrix(0.05,0,0,0.05,21.9,0)" xlink:href="#aR"/></g><g id="ac"><use transform="matrix(0.05,0,0,0.05,0,0)" xlink:href="#aO"/><use transform="matrix(0.05,0,0,0.05,9,0)" xlink:href="#bl"/><use transform="matrix(0.05,0,0,0.05,12.949999999999998,0)" xlink:href="#aV"/><use transform="matrix(0.05,0,0,0.05,16.9,0)" xlink:href="#aO"/><use transform="matrix(0.05,0,0,0.05,25.899999999999995,0)" xlink:href="#aR"/></g><g id="ad"><use transform="matrix(0.05,0,0,0.05,0,0)" xlink:href="#aS"/><use transform="matrix(0.05,0,0,0.05,10,0)" xlink:href="#aR"/><use transform="matrix(0.05,0,0,0.05,20,0)" xlink:href="#aY"/><use transform="matrix(0.05,0,0,0.05,25.950000000000003,0)" xlink:href="#aR"/></g><g id="ae"><use transform="matrix(0.05,0,0,0.05,0,0)" xlink:href="#aQ"/><use transform="matrix(0.05,0,0,0.05,9,0)" xlink:href="#aP"/></g><g id="af"><use transform="matrix(0.05,0,0,0.05,0,0)" xlink:href="#aO"/><use transform="matrix(0.05,0,0,0.05,9,0)" xlink:href="#aR"/><use transform="matrix(0.05,0,0,0.05,19,0)" xlink:href="#aX"/><use transform="matrix(0.05,0,0,0.05,29,0)" xlink:href="#aR"/><use transform="matrix(0.05,0,0,0.05,39,0)" xlink:href="#aQ"/><use transform="matrix(0.05,0,0,0.05,48,0)" xlink:href="#be"/><use transform="matrix(0.05,0,0,0.05,53,0)" xlink:href="#aY"/><use transform="matrix(0.05,0,0,0.05,58.95,0)" xlink:href="#aR"/><use transform="matrix(0.05,0,0,0.05,68.95,0)" xlink:href="#aY"/></g><g id="ag"><use transform="matrix(0.05,0,0,0.05,0,0)" xlink:href="#aP"/><use transform="matrix(0.05,0,0,0.05,10,0)" xlink:href="#bn"/></g><g id="ah"><use transform="matrix(0.05,0,0,0.05,0,0)" xlink:href="#bd"/><use transform="matrix(0.05,0,0,0.05,10,0)" xlink:href="#bn"/><use transform="matrix(0.05,0,0,0.05,24.950000000000003,0)" xlink:href="#aR"/></g><g id="ai"><use transform="matrix(0.05,0,0,0.05,0,0)" xlink:href="#aY"/><use transform="matrix(0.05,0,0,0.05,5.95,0)" xlink:href="#aV"/><use transform="matrix(0.05,0,0,0.05,9.9,0)" xlink:href="#aZ"/><use transform="matrix(0.05,0,0,0.05,14.9,0)" xlink:href="#aR"/></g><path fill="#333" d="M106-169C34-169 62-67 57 0H25v-261h32l-1 103c12-21 28-36 61-36 89 0 53 116 60 194h-32v-121c2-32-8-49-39-48" id="cj"/><path fill="#333" d="M127-220V0H93v-220H8v-28h204v28h-85" id="ck"/><g id="aj"><use transform="matrix(0.05,0,0,0.05,0,0)" xlink:href="#aO"/><use transform="matrix(0.05,0,0,0.05,9,0)" xlink:href="#cj"/><use transform="matrix(0.05,0,0,0.05,19,0)" xlink:href="#aP"/><use transform="matrix(0.05,0,0,0.05,29,0)" xlink:href="#aO"/><use transform="matrix(0.05,0,0,0.05,38,0)" xlink:href="#bi"/><use transform="matrix(0.05,0,0,0.05,47,0)" xlink:href="#ck"/><use transform="matrix(0.05,0,0,0.05,55.95,0)" xlink:href="#bh"/><use transform="matrix(0.05,0,0,0.05,65.95,0)" xlink:href="#bi"/><use transform="matrix(0.05,0,0,0.05,74.95,0)" xlink:href="#aP"/><use transform="matrix(0.05,0,0,0.05,84.95,0)" xlink:href="#aW"/><use transform="matrix(0.05,0,0,0.05,94.95,0)" xlink:href="#bf"/><use transform="matrix(0.05,0,0,0.05,100.9,0)" xlink:href="#bg"/></g><g id="ak"><use transform="matrix(0.05,0,0,0.05,0,0)" xlink:href="#aQ"/><use transform="matrix(0.05,0,0,0.05,9,0)" xlink:href="#aP"/><use transform="matrix(0.05,0,0,0.05,19,0)" xlink:href="#bn"/></g><g id="al"><use transform="matrix(0.05,0,0,0.05,0,0)" xlink:href="#be"/><use transform="matrix(0.05,0,0,0.05,5,0)" xlink:href="#bh"/><use transform="matrix(0.05,0,0,0.05,15,0)" xlink:href="#bi"/><use transform="matrix(0.05,0,0,0.05,24,0)" xlink:href="#aP"/><use transform="matrix(0.05,0,0,0.05,34,0)" xlink:href="#aW"/></g><g id="am"><use transform="matrix(0.05,0,0,0.05,0,0)" xlink:href="#bd"/><use transform="matrix(0.05,0,0,0.05,10,0)" xlink:href="#aQ"/><use transform="matrix(0.05,0,0,0.05,19,0)" xlink:href="#bd"/><use transform="matrix(0.05,0,0,0.05,29,0)" xlink:href="#aT"/><use transform="matrix(0.05,0,0,0.05,39,0)" xlink:href="#aY"/><use transform="matrix(0.05,0,0,0.05,44.95,0)" xlink:href="#aV"/><use transform="matrix(0.05,0,0,0.05,48.900000000000006,0)" xlink:href="#bh"/></g><path fill="#333" d="M141-36C126-15 110 5 73 4 37 3 15-17 15-53c-1-64 63-63 125-63 3-35-9-54-41-54-24 1-41 7-42 31l-33-3c5-37 33-52 76-52 45 0 72 20 72 64v82c-1 20 7 32 28 27v20c-31 9-61-2-59-35zM48-53c0 20 12 33 32 33 41-3 63-29 60-74-43 2-92-5-92 41zm117-205c-3 23-9 48-36 47-26-1-65-44-74 0H39c4-23 8-48 36-47s64 44 74 0h16" id="cl"/><g id="an"><use transform="matrix(0.05,0,0,0.05,0,0)" xlink:href="#aW"/><use transform="matrix(0.05,0,0,0.05,10,0)" xlink:href="#cl"/><use transform="matrix(0.05,0,0,0.05,20,0)" xlink:href="#bh"/></g><g id="ao"><use transform="matrix(0.05,0,0,0.05,0,0)" xlink:href="#aP"/><use transform="matrix(0.05,0,0,0.05,10,0)" xlink:href="#aQ"/><use transform="matrix(0.05,0,0,0.05,19,0)" xlink:href="#be"/><use transform="matrix(0.05,0,0,0.05,24,0)" xlink:href="#aT"/></g><g id="ap"><use transform="matrix(0.05,0,0,0.05,0,0)" xlink:href="#bl"/><use transform="matrix(0.05,0,0,0.05,3.95,0)" xlink:href="#bh"/><use transform="matrix(0.05,0,0,0.05,13.949999999999998,0)" xlink:href="#aU"/><use transform="matrix(0.05,0,0,0.05,23.95,0)" xlink:href="#aR"/><use transform="matrix(0.05,0,0,0.05,33.95,0)" xlink:href="#aX"/><use transform="matrix(0.05,0,0,0.05,43.95,0)" xlink:href="#bh"/></g><path fill="#333" d="M137 0h-34L2-248h35l83 218 83-218h36" id="cm"/><g id="aq"><use transform="matrix(0.05,0,0,0.05,0,0)" xlink:href="#aV"/><use transform="matrix(0.05,0,0,0.05,3.95,0)" xlink:href="#aQ"/><use transform="matrix(0.05,0,0,0.05,12.949999999999998,0)" xlink:href="#cm"/><use transform="matrix(0.05,0,0,0.05,23.6,0)" xlink:href="#aR"/><use transform="matrix(0.05,0,0,0.05,33.6,0)" xlink:href="#bl"/><use transform="matrix(0.05,0,0,0.05,37.550000000000004,0)" xlink:href="#aV"/><use transform="matrix(0.05,0,0,0.05,41.50000000000001,0)" xlink:href="#aX"/><use transform="matrix(0.05,0,0,0.05,51.5,0)" xlink:href="#bf"/><use transform="matrix(0.05,0,0,0.05,57.45000000000002,0)" xlink:href="#bg"/></g><g id="ar"><use transform="matrix(0.05,0,0,0.05,0,0)" xlink:href="#aQ"/><use transform="matrix(0.05,0,0,0.05,9,0)" xlink:href="#bd"/><use transform="matrix(0.05,0,0,0.05,19,0)" xlink:href="#aO"/><use transform="matrix(0.05,0,0,0.05,28,0)" xlink:href="#aP"/><use transform="matrix(0.05,0,0,0.05,38,0)" xlink:href="#aQ"/><use transform="matrix(0.05,0,0,0.05,47,0)" xlink:href="#aQ"/><use transform="matrix(0.05,0,0,0.05,56,0)" xlink:href="#bh"/></g><g id="as"><use transform="matrix(0.05,0,0,0.05,0,0)" xlink:href="#aW"/><use transform="matrix(0.05,0,0,0.05,10,0)" xlink:href="#bh"/></g><g id="at"><use transform="matrix(0.05,0,0,0.05,0,0)" xlink:href="#aO"/><use transform="matrix(0.05,0,0,0.05,9,0)" xlink:href="#aR"/><use transform="matrix(0.05,0,0,0.05,19,0)" xlink:href="#aX"/><use transform="matrix(0.05,0,0,0.05,29,0)" xlink:href="#aR"/><use transform="matrix(0.05,0,0,0.05,39,0)" xlink:href="#aQ"/><use transform="matrix(0.05,0,0,0.05,48,0)" xlink:href="#be"/><use transform="matrix(0.05,0,0,0.05,53,0)" xlink:href="#aY"/><use transform="matrix(0.05,0,0,0.05,58.95,0)" xlink:href="#aR"/><use transform="matrix(0.05,0,0,0.05,68.95,0)" xlink:href="#aX"/><use transform="matrix(0.05,0,0,0.05,78.95,0)" xlink:href="#bh"/></g><g id="au"><use transform="matrix(0.05,0,0,0.05,0,0)" xlink:href="#aW"/><use transform="matrix(0.05,0,0,0.05,10,0)" xlink:href="#aR"/></g><path fill="#333" d="M30 0v-248h187v28H63v79h144v27H63v87h162V0H30" id="cn"/><g id="av"><use transform="matrix(0.05,0,0,0.05,0,0)" xlink:href="#aO"/><use transform="matrix(0.05,0,0,0.05,9,0)" xlink:href="#aR"/><use transform="matrix(0.05,0,0,0.05,19,0)" xlink:href="#aX"/><use transform="matrix(0.05,0,0,0.05,29,0)" xlink:href="#aR"/><use transform="matrix(0.05,0,0,0.05,39,0)" xlink:href="#aQ"/><use transform="matrix(0.05,0,0,0.05,48,0)" xlink:href="#be"/><use transform="matrix(0.05,0,0,0.05,53,0)" xlink:href="#aY"/><use transform="matrix(0.05,0,0,0.05,58.95,0)" xlink:href="#aR"/><use transform="matrix(0.05,0,0,0.05,68.95,0)" xlink:href="#aY"/><use transform="matrix(0.05,0,0,0.05,74.9,0)" xlink:href="#cn"/><use transform="matrix(0.05,0,0,0.05,86.9,0)" xlink:href="#bn"/><use transform="matrix(0.05,0,0,0.05,101.85000000000001,0)" xlink:href="#bb"/><use transform="matrix(0.05,0,0,0.05,114.80000000000001,0)" xlink:href="#aV"/><use transform="matrix(0.05,0,0,0.05,118.75,0)" xlink:href="#aZ"/><use transform="matrix(0.05,0,0,0.05,123.75,0)" xlink:href="#aR"/><use transform="matrix(0.05,0,0,0.05,133.75,0)" xlink:href="#bf"/><use transform="matrix(0.05,0,0,0.05,139.7,0)" xlink:href="#bg"/></g><path fill="#333" d="M96-169c-40 0-48 33-48 73s9 75 48 75c24 0 41-14 43-38l32 2c-6 37-31 61-74 61-59 0-76-41-82-99-10-93 101-131 147-64 4 7 5 14 7 22l-32 3c-4-21-16-35-41-35zm3 187c19-1 33 8 33 26 0 31-30 33-64 32V58c18 2 39 4 41-13 1-15-18-13-34-13L87 0h19" id="co"/><path fill="#333" d="M212-179c-10-28-35-45-73-45-59 0-87 40-87 99 0 60 29 101 89 101 43 0 62-24 78-52l27 14C228-24 195 4 139 4 59 4 22-46 18-125c-6-104 99-153 187-111 19 9 31 26 39 46" id="cp"/><g id="aw"><use transform="matrix(0.05,0,0,0.05,0,0)" xlink:href="#aV"/><use transform="matrix(0.05,0,0,0.05,3.95,0)" xlink:href="#aW"/><use transform="matrix(0.05,0,0,0.05,13.949999999999998,0)" xlink:href="#aQ"/><use transform="matrix(0.05,0,0,0.05,22.95,0)" xlink:href="#aP"/><use transform="matrix(0.05,0,0,0.05,32.95,0)" xlink:href="#aY"/><use transform="matrix(0.05,0,0,0.05,38.900000000000006,0)" xlink:href="#co"/><use transform="matrix(0.05,0,0,0.05,47.900000000000006,0)" xlink:href="#cl"/><use transform="matrix(0.05,0,0,0.05,57.900000000000006,0)" xlink:href="#bh"/><use transform="matrix(0.05,0,0,0.05,67.9,0)" xlink:href="#cp"/><use transform="matrix(0.05,0,0,0.05,80.85000000000001,0)" xlink:href="#bh"/><use transform="matrix(0.05,0,0,0.05,90.85000000000001,0)" xlink:href="#aW"/><use transform="matrix(0.05,0,0,0.05,100.85000000000001,0)" xlink:href="#aO"/><use transform="matrix(0.05,0,0,0.05,109.85000000000001,0)" xlink:href="#bl"/><use transform="matrix(0.05,0,0,0.05,113.80000000000001,0)" xlink:href="#bd"/><use transform="matrix(0.05,0,0,0.05,123.80000000000001,0)" xlink:href="#aV"/><use transform="matrix(0.05,0,0,0.05,127.75,0)" xlink:href="#aX"/><use transform="matrix(0.05,0,0,0.05,137.75,0)" xlink:href="#aR"/><use transform="matrix(0.05,0,0,0.05,147.75,0)" xlink:href="#cp"/><use transform="matrix(0.05,0,0,0.05,160.7,0)" xlink:href="#bh"/><use transform="matrix(0.05,0,0,0.05,170.7,0)" xlink:href="#bn"/><use transform="matrix(0.05,0,0,0.05,185.64999999999998,0)" xlink:href="#bq"/><use transform="matrix(0.05,0,0,0.05,197.64999999999998,0)" xlink:href="#bd"/><use transform="matrix(0.05,0,0,0.05,207.64999999999998,0)" xlink:href="#aO"/><use transform="matrix(0.05,0,0,0.05,216.64999999999998,0)" xlink:href="#aP"/><use transform="matrix(0.05,0,0,0.05,226.64999999999998,0)" xlink:href="#aQ"/><use transform="matrix(0.05,0,0,0.05,235.64999999999998,0)" xlink:href="#aQ"/><use transform="matrix(0.05,0,0,0.05,244.64999999999998,0)" xlink:href="#bh"/></g></defs></g></svg>